<?xml version="1.0" standalone="no"?>
<!DOCTYPE svg PUBLIC "-//W3C//DTD SVG 1.1//EN" "http://www.w3.org/Graphics/SVG/1.1/DTD/svg11.dtd" >
<svg>
<metadata>
Created by FontForge 20120731 at Tue Sep  1 15:02:44 2015
 By root
Copyright 1990 Brendel Informatik Cologne &#38; SoftMaker
</metadata>
<defs>
<font id="Hudson-Bold" horiz-adv-x="660" >
  <font-face 
    font-family="Hudson"
    font-weight="700"
    font-stretch="normal"
    units-per-em="1000"
    panose-1="0 0 0 0 0 0 0 0 0 0"
    ascent="800"
    descent="-200"
    x-height="449"
    cap-height="741"
    bbox="-119 -301 1165 930"
    underline-thickness="20"
    underline-position="-123"
    unicode-range="U+0020-F002"
  />
<missing-glyph horiz-adv-x="800" 
d="M50 0v800h700v-800h-700zM700 50v700h-600v-700h600z" />
    <glyph glyph-name=".notdef" horiz-adv-x="800" 
d="M50 0v800h700v-800h-700zM700 50v700h-600v-700h600z" />
    <glyph glyph-name=".null" unicode="&#xfd;" horiz-adv-x="0" 
 />
    <glyph glyph-name=".null" unicode="&#x141;" horiz-adv-x="0" 
 />
    <glyph glyph-name="nonmarkingreturn" horiz-adv-x="290" 
 />
    <glyph glyph-name="space" unicode=" " horiz-adv-x="290" 
 />
    <glyph glyph-name="exclam" unicode="!" horiz-adv-x="275" 
d="M221 669q-8 -12 -16 -23q-2 -4 -5 -34l-12 -180v-39l-3 -37v-18q0 -8 -1 -16.5t-1 -12.5l-1 -26l2 -57q0 -22 3 -30v-6q0 -11 -26.5 -19t-38.5 -8q-20 0 -39 10q-24 13 -29 37q6 28 8 44t2 43q0 18 2.5 48t2.5 36l8 133v76l5 75l3 39q0 17 5.5 31t19.5 20
q16 -3 30.5 -5.5t33.5 -2.5q18 0 28 -5.5t19.5 -17t9.5 -24.5q0 -7 -2.5 -14.5t-7.5 -16.5zM111 -23q-30 0 -49 24t-19 57q0 8 2 12q4 27 37.5 53.5t58.5 26.5q20 0 34 -23q9 -14 16 -43l4 -22t2 -12q0 -34 -31 -55q-26 -18 -55 -18z" />
    <glyph glyph-name="quotedbl" unicode="&#x22;" horiz-adv-x="374" 
d="M336 637l-26 -116q-8 -39 -14 -47q-12 -15 -48 -15q-29 0 -39.5 15.5t-10.5 45.5q0 23 1.5 34.5t8.5 40.5q3 12 3 25q-1 17 -1 26q0 32 11 61q16 42 46 42q33 0 50 -7q28 -12 28 -42q0 -16 -2 -27.5t-7 -35.5zM167 637l-26 -116q-8 -39 -14 -47q-12 -15 -48 -15
q-29 0 -39.5 15.5t-10.5 45.5q0 23 1.5 33.5t7.5 41.5q3 12 3 25q-1 17 -1 26q0 32 11 61q16 42 46 42q43 0 61 -13t18 -36q0 -16 -2 -27.5t-7 -35.5z" />
    <glyph glyph-name="numbersign" unicode="#" horiz-adv-x="446" 
d="M432 422h-87l-28 -124h88l-18 -70h-88l-56 -238h-70l57 238h-71l-57 -238h-69l56 238h-92l18 70h91l29 124h-94l17 70h94l57 238h69l-56 -238h71l57 238h69l-56 -238h86zM205 422l-30 -124h72l29 124h-71z" />
    <glyph glyph-name="dollar" unicode="$" horiz-adv-x="488" 
d="M196 661v44q0 42 4 50q8 16 47 22l24 2q25 0 35.5 -13.5t10.5 -60.5v-31v-18q41 -19 70 -56q23 -30 45 -81q7 -17 11.5 -36.5t4.5 -35.5q0 -22 -12.5 -31.5t-31.5 -9.5q-15 0 -33.5 4.5t-33.5 14.5v4q-17 35 -33 71q-28 50 -53 50q-27 0 -37.5 -30t-10.5 -66
q0 -47 48 -64l119 -40q43 -15 60 -31q25 -23 25 -67q0 -67 -45 -125q-20 -25 -40.5 -41t-48.5 -23q-7 -14 -7 -33q0 -7 2 -21t2 -21q0 -22 -13 -32q-8 -6 -29 -10q-11 -1 -23 -3t-19 -2q-26 0 -32.5 14.5t-6.5 42.5l1 50v24l-32 11q-39 12 -59 24q-31 18 -48 47
q-13 23 -22 42q-14 30 -14 46q0 26 30 42q23 12 47 12q28 0 48 -18q17 -15 30 -45t24.5 -37.5t46.5 -7.5q23 0 37 9.5t14 29.5q0 24 -25 36q-5 2 -46 15q-110 37 -145.5 80.5t-35.5 107.5q0 52 13 83.5t48 67.5q14 14 39.5 26t49.5 18z" />
    <glyph glyph-name="percent" unicode="%" horiz-adv-x="669" 
d="M577 650l-26 -39q-34 -59 -68 -119l-66 -120l-53 -95l-83 -159l-58 -110q-3 -8 -9.5 -13t-18.5 -5q-19 0 -43.5 22.5t-24.5 41.5t39 100q29 61 78 151l60 110l58 106q14 25 19 34q1 2 36 57l23 45l35 56q9 15 14 20q9 10 21 10q8 0 20 -3.5t25 -7t25 -10.5q20 -12 20 -28
q0 -7 -5.5 -17t-17.5 -27zM250 411l-2 -2q-32 -6 -63 -12q-13 0 -28.5 4t-23.5 6q-46 13 -68 33t-38 67q-6 15 -6 32q0 25 7 55t17 61t21.5 42.5t37 23.5t55.5 12q69 0 115 -47t46 -119q0 -25 -4.5 -48t-14 -43t-21.5 -36q-16 -23 -30 -29zM177 642q-21 0 -28.5 -34
t-7.5 -66q0 -21 2.5 -31t12 -22t19.5 -12q6 0 11 5q13 14 17.5 34.5t4.5 49.5q0 30 -4 46q-7 30 -27 30zM643 102q-14 -57 -32 -81q-27 -37 -79 -37q-9 0 -23.5 2.5t-22.5 5.5l4 -2q-22 6 -30 8q-20 8 -30 11q-38 13 -54.5 40.5t-22.5 70.5l-2 20q0 19 1 27t9 43
q14 53 35 76q28 31 79 31q20 0 45 -5q49 -9 73.5 -30t41.5 -69q13 -36 13 -69q0 -19 -5 -42zM490 186q-8 -22 -12.5 -42t-4.5 -38q0 -13 7 -24.5t16 -11.5q18 0 26 24t8 47q0 34 -2 59t-13 25q-6 0 -15 -16q-5 -8 -10 -23z" />
    <glyph glyph-name="ampersand" unicode="&#x26;" horiz-adv-x="675" 
d="M670 180q-8 -5 -32.5 -11t-32.5 -8q-15 -50 -48 -83q-29 -29 -82 -51.5t-103.5 -34t-104.5 -11.5q-57 0 -104.5 15t-85.5 53q-25 25 -39 50q-18 32 -18 64q0 57 56 96q19 14 99 50q-58 9 -96 38q-45 35 -45 93q0 34 17.5 62t47.5 46q75 45 154 74q93 34 168 34
q21 0 37.5 -3.5t34.5 -13.5q26 -16 37 -35.5t18 -54.5q3 -15 3 -17q1 -7 1 -18q0 -24 -9 -36q-12 -16 -36 -16q-31 0 -54 22q-16 16 -34 49q-1 2 -1 5v2q-14 0 -57 -13t-60 -20q-11 -3 -29.5 -11t-27 -11t-21 -10.5t-26 -14.5t-25 -15t-11.5 -12q0 -11 31 -19q4 -1 42 -7.5
t73.5 -9t88.5 -2.5q16 0 32 -23q13 -19 16 -37l2 -21q0 -25 -22 -38q-12 -7 -45 -15.5t-72 -24t-67 -33.5q-41 -24 -61 -37q-49 -32 -49 -42q0 -17 34 -25q21 -5 49 -5q68 0 132 15.5t121 48.5q-19 3 -34 12t-34 24q-9 7 -13 13.5t-4 11.5q0 11 9.5 20.5t20 14.5t24.5 6
t20 3l27 10q12 5 88 15q45 6 48 6q22 0 38 -8t23 -30q3 -10 7 -22t4 -21q0 -22 -20 -33z" />
    <glyph glyph-name="quotesingle" unicode="'" horiz-adv-x="194" 
d="M157 637l-24 -116q-7 -39 -13 -47q-11 -15 -45 -15q-27 0 -36.5 15t-9.5 46q0 39 10 75q2 14 2 22q-1 19 -1 29q0 32 10 61q14 42 42 42q31 0 47 -7q27 -12 27 -42q0 -16 -2 -27.5t-7 -35.5z" />
    <glyph glyph-name="parenleft" unicode="(" horiz-adv-x="287" 
d="M215 -101q-17 0 -31 3t-30 11q-54 28 -82 121q-22 74 -22 157q-3 32 -5 56t-2 41v108l2 38l-2 48q0 11 2 18.5t3.5 24t4.5 45.5l6 20v12v18q0 14 6 33.5t9 28.5l10 40q7 32 42 53.5t65 21.5q22 0 39 -10q23 -14 23 -39q0 -24 -19 -31.5t-36 -13.5q-10 -9 -13 -34t-3 -53
l-5 -39v-45l-3 -46l3 -43l-3 -62l3 -82q0 -17 -0.5 -33.5t-0.5 -32.5v-9l3 -70q0 -42 3.5 -80t15.5 -67t57 -45q18 -7 18 -19q0 -23 -20 -35q-15 -9 -38 -9z" />
    <glyph glyph-name="parenright" unicode=")" horiz-adv-x="285" 
d="M222 103v-30q0 -24 -11.5 -60t-12.5 -43q-6 -32 -42 -54t-66 -22q-23 0 -39 10q-22 14 -22 40t30 34.5t34 25.5t5 44.5t1 28.5l6 45l-2 36q0 9 2.5 25t2.5 20q0 7 -2 22t-2 24q0 12 2 35t2 35q0 29 -2 45t-2 24q0 12 1 39.5t1 39.5q0 38 -2 80.5t-8 81t-11 52.5
q-11 31 -35 40l-33 13q-6 11 -7 21q0 19 16.5 29t35.5 10q64 0 100 -42q29 -33 49 -105q6 -24 11 -60t8.5 -68.5t5.5 -52t2 -44.5v-127l-1 -53l1 -33q0 -5 -2 -15t-3.5 -25.5t-3 -33.5t-7.5 -32z" />
    <glyph glyph-name="asterisk" unicode="*" horiz-adv-x="380" 
d="M263 525q9 -24 9 -52q0 -16 -11.5 -28.5t-27.5 -12.5q-20 0 -38.5 15t-31.5 36q-13 -15 -30.5 -29t-28.5 -14q-21 0 -35 16t-14 37q0 19 7.5 35t22.5 31q-8 6 -20.5 11t-22.5 7t-13.5 10t-3.5 17q0 13 2.5 22.5t8.5 23.5t16.5 18.5t26.5 4.5l44 -3v13l-1 46q0 11 14 18.5
t25 7.5q19 0 38 -11.5t32 -29.5q23 30 57 30q20 0 33.5 -14.5t13.5 -34.5q0 -16 -9 -33t-24 -33q22 -10 34 -24q16 -18 16 -38q0 -19 -13 -33t-32 -14q-6 0 -13 2q-18 5 -22 5z" />
    <glyph glyph-name="plus" unicode="+" horiz-adv-x="628" 
d="M448 277h-67v-69q0 -34 -15 -54q-18 -24 -52 -24q-28 0 -46.5 21.5t-18.5 51.5v74h-68q-31 0 -52 20t-21 52q0 31 21.5 48.5t49.5 17.5h70v74q0 31 17.5 52.5t48.5 21.5q28 0 47 -21t19 -50v-77h67q29 0 51 -16.5t22 -49.5q0 -32 -21 -52t-52 -20z" />
    <glyph glyph-name="comma" unicode="," horiz-adv-x="194" 
d="M157 50l-24 -116q-7 -39 -13 -47q-11 -15 -45 -15q-27 0 -36.5 15t-9.5 46q0 39 10 75q2 14 2 22q-1 19 -1 29q0 32 10 61q14 42 42 42q31 0 47 -7q27 -12 27 -42q0 -16 -2 -27.5t-7 -35.5z" />
    <glyph glyph-name="hyphen" unicode="-" horiz-adv-x="369" 
d="M329 195q-6 -2 -13 -3t-17.5 -2t-42 -1.5t-50.5 -0.5q-15 -3 -34 -3h-21t-20 1q-22 0 -40.5 3.5t-31.5 14.5l-3 3l-3 2q-10 14 -19 29q-13 22 -13 29l2 8q8 14 70.5 21t104.5 7l18 1q38 0 71.5 -6.5t43.5 -28.5q4 -9 10.5 -25.5t6.5 -24.5q0 -11 -5.5 -16.5t-13.5 -7.5z
" />
    <glyph glyph-name="period" unicode="." horiz-adv-x="209" 
d="M94 -23q-29 0 -47.5 23.5t-18.5 57.5l1 12q4 27 37 53.5t57 26.5q21 0 34 -23q9 -15 15 -43l7 -34q0 -33 -31 -55q-26 -18 -54 -18z" />
    <glyph glyph-name="slash" unicode="/" horiz-adv-x="286" 
d="M261 597l-20 -27q-4 -4 -29 -102q-17 -67 -47 -188l-32 -130l-24 -106q-3 -20 -6 -39q-7 -20 -30 -20q-26 0 -43 26.5t-17 53.5l1 12q7 18 12 32q10 27 15 53q13 61 27 116q46 179 49 193l17 75l29 112q9 37 12 45q11 33 23 33q6 0 23 -15q21 -19 24 -21l6 -3
q9 -7 13 -18t6.5 -25.5t1.5 -21.5q0 -10 -3 -18.5t-8 -16.5z" />
    <glyph glyph-name="zero" unicode="0" horiz-adv-x="630" 
d="M579 182q-19 -55 -50 -95.5t-79 -68.5q-31 -18 -58.5 -26t-62.5 -8q-30 0 -65 10q-41 14 -64 21q-45 14 -80 46t-58 79q-19 37 -26 69t-7 75q0 22 3 41q0 2 9 41q6 35 12 71q13 42 29 75.5t40 67.5l7 12q5 2 10 7t9 10q26 37 64 50q27 9 79 9q22 0 31.5 -1.5t38.5 -8.5
q49 -14 66.5 -23t59.5 -44q9 -8 13 -12l22 -22q45 -50 61.5 -100t16.5 -121q0 -51 -4 -84.5t-17 -69.5zM407 542q-24 16 -40 24q-24 11 -43 11q-31 0 -60 -27q-21 -20 -46.5 -61t-41 -112.5t-15.5 -129.5l3 -35q12 -49 24 -72q17 -32 49 -52q18 -11 33 -14.5t39 -3.5
q18 0 31.5 6t50.5 34l24 19q30 32 47 89t17 110q0 81 -10 120q-15 60 -62 94z" />
    <glyph glyph-name="one" unicode="1" horiz-adv-x="633" 
d="M417 -4q-13 -4 -30 -5t-38 -1h-23q-26 0 -68 -2.5t-49 -2.5q-30 0 -41 4q-23 8 -23 35q0 35 36 51q14 7 63 16l6 253v98.5t1 99.5h-6q-35 0 -55.5 14.5t-20.5 32.5q0 20 15 31q4 3 54 19q8 3 24 6.5t23 2.5l53 -4q24 0 35 -10t11 -36q0 -22 -2 -38.5t-3 -27.5l-4 -59
q0 -45 -4 -141t-4 -142v-87q27 -4 47.5 -26t20.5 -51q0 -9 -1 -12q-4 -13 -17 -18z" />
    <glyph glyph-name="two" unicode="2" horiz-adv-x="629" 
d="M525 314q-6 -10 -16 -22t-18 -21l-36 -40q-16 -16 -39 -35q-18 -15 -43 -33l-37 -30l80 3q24 0 42 -1.5t39.5 -8t38.5 -18.5q24 -17 24 -41q0 -14 -10 -27t-25 -13q-12 0 -37 2t-39 2q-50 0 -167.5 -13.5t-141.5 -27.5q-12 -7 -18 -10q-13 -7 -22 -7q-20 0 -29.5 28.5
t-9.5 54.5q0 27 17 41q9 8 37 18.5t66.5 33.5t61.5 42l59 48q6 4 12.5 13t13.5 18l49 57q29 32 48.5 79t19.5 90q0 35 -16 60t-45 25q-51 0 -111 -67q-40 -44 -80 -115q-13 -23 -13 -32q0 -2 2 -12t1 -16q0 -16 -11 -25t-26 -9q-13 0 -26 7t-25 18q-21 18 -21 52q0 46 23 99
q20 45 52 87q19 25 37 41.5t46 35.5q52 36 104 36q54 0 95.5 -21.5t79.5 -65.5q28 -33 42.5 -67.5t14.5 -78.5q0 -32 -6.5 -57t-36.5 -77z" />
    <glyph glyph-name="three" unicode="3" horiz-adv-x="629" 
d="M447 315q45 -12 78 -54t33 -89q0 -37 -17.5 -67t-47.5 -58q-34 -32 -105 -53q-62 -18 -115 -18q-41 0 -75 7.5t-69 26.5q-26 15 -43.5 42t-17.5 59q0 16 4 24.5t11 15.5q11 10 18 14q13 8 24 8q22 0 30 -16t8 -39q2 -22 45 -29q18 -3 59 -3q51 0 90.5 17t68.5 55
q7 8 10.5 14.5t4.5 11.5q0 22 -50 34.5t-84 12.5q-17 0 -26.5 -1.5t-33.5 -10.5q-10 -4 -17 -4q-25 0 -35.5 29.5t-10.5 60.5q0 18 6.5 28.5t25.5 10.5q6 0 18 -2t18 -2q15 0 31.5 5t37.5 14q44 19 75 62q24 32 33.5 51.5t9.5 33.5q0 23 -18.5 37.5t-44.5 14.5
q-36 0 -80.5 -29t-70.5 -63l-29 -39q-7 -9 -11 -16q-8 -13 -7 -19l2 -19q0 -9 -7.5 -13.5t-17.5 -4.5q-7 0 -15 2t-22 7q-21 8 -35 22q-18 19 -18 43q0 16 5 33q2 8 11 29q23 54 82 105t114 65q17 4 36.5 7.5t33.5 3.5q28 0 53 -12q2 -1 47 -28q15 -9 41 -34q19 -18 37 -39
t28 -41.5t10 -44.5q0 -17 -5 -32t-15 -35q-4 -8 -12.5 -20.5t-23.5 -24.5t-28.5 -23.5t-31.5 -22.5z" />
    <glyph glyph-name="four" unicode="4" horiz-adv-x="628" 
d="M312 566l79 74q13 13 23 16t32 3l21 3q22 0 41 -10t19 -33q0 -6 -3.5 -19.5t-6.5 -27t-5 -40.5t-3 -52l-4 -33q0 -17 -0.5 -33.5t-0.5 -32.5v-10l-6 -48v-16l1 -30l-2 -23q39 0 62 -11q35 -17 35 -58q0 -31 -35 -38l-34 -6l-30 -7l-1 -117q0 -19 -30 -25q-15 -3 -45 -3
t-40 6q-16 9 -16 40l3 90v9l-60 -3l-32 -3q-40 0 -73 -2q-114 -7 -122 -7h-21q-20 0 -29 14q-4 7 -10.5 27t-10.5 44.5t-5 30.5l-2 10q0 12 26 39q19 19 38 39l13 17q9 10 17.5 17t17.5 15q26 27 52 55q5 4 58 54q24 23 36 34l42 40zM141 236l70 3l84 4h28q8 0 18 0.5
t27 3.5l3 80v52q0 13 2 41.5t2 29.5v18l-143 -139l-32 -32q-16 -15 -37 -37q-12 -12 -22 -24z" />
    <glyph glyph-name="five" unicode="5" horiz-adv-x="629" 
d="M230 -21q-21 0 -49 5t-46.5 12.5t-31 16t-25.5 23.5q-18 21 -26 35q-12 21 -12 44t12.5 42t36.5 19q25 0 41 -20q5 -7 24 -43q6 -12 20.5 -14.5t34.5 -2.5l47 2q58 0 130 26q92 33 92 79q0 39 -62 57q-41 12 -93 12q-39 0 -78 -9q-23 -5 -77 -23q-18 -10 -36 -19
q-10 0 -22.5 8.5t-19.5 16.5t-9.5 17t-2.5 18q0 14 2 46.5t2 35.5q0 13 1 40t1 40l4 99q0 44 12.5 62t54.5 24l49 7t52 5h78l95 -2q47 0 72.5 -3t38.5 -10.5t23.5 -20.5t10.5 -30q0 -26 -20 -35q-13 -6 -41 -6l-23 2q-28 0 -85.5 -3.5t-78.5 -3.5l-57 -3l-50 -4
q-4 -13 -6 -32.5t-2 -35.5v-24t1 -23l-1 -30h6q12 0 38 4t40 4q59 0 124 -18q79 -22 111 -60q23 -28 35 -54q16 -34 16 -66q0 -110 -133 -166q-98 -41 -218 -41z" />
    <glyph glyph-name="six" unicode="6" horiz-adv-x="630" 
d="M548 83l-22 -22q-14 -14 -24 -21q-35 -24 -67.5 -37.5t-71.5 -18.5q-16 -2 -33.5 -4.5t-29.5 -2.5q-32 0 -87 22t-81 44q-36 29 -51 49q-21 27 -30 67l1 -3q-3 9 -8 55.5t-5 59.5q0 96 24 191q13 49 46 102q24 39 31 48q11 14 26 26q32 25 53 36q31 16 65 16q20 0 31 -2
t42 -10l12 -3l10 -3l64 -30q21 -11 31.5 -21t25.5 -32q22 -33 29 -50t13 -51.5t6 -59.5q0 -17 -3 -23.5t-12 -10.5q-21 -11 -39.5 -17t-27.5 -6q-22 0 -30 26q-2 9 -4.5 26.5t-3 29.5t-4.5 25q-13 47 -26 70q-23 42 -57 42q-21 0 -44.5 -13.5t-41.5 -32.5
q-24 -28 -35.5 -49.5t-25.5 -62.5q-8 -22 -10 -31.5t-7 -45.5l-6 -41l2 -21q79 45 124.5 60t86.5 15q77 0 141 -55q8 -7 16 -17.5t12 -16.5q22 -28 28.5 -48.5t6.5 -59.5q0 -27 -11 -49q-7 -14 -29 -39zM459 229q-8 3 -31 7t-27 4l-35 -3q-33 0 -56 -5.5t-59 -18.5
q-28 -10 -44.5 -20.5t-30.5 -32.5q3 -36 26 -66.5t53 -30.5q51 0 111 39t90 88q8 14 8 27q0 6 -3 10z" />
    <glyph glyph-name="seven" unicode="7" horiz-adv-x="629" 
d="M520 494l-40 -84l-51 -114l-19 -55q-20 -55 -40 -109l-30 -84q-11 -39 -12 -41q-11 -26 -29 -26q-11 0 -31.5 6t-30.5 11q-15 8 -20.5 18t-5.5 21q0 32 53.5 174t81.5 185q5 9 8.5 20.5t7.5 23.5q13 29 19 43q11 26 16 45q-65 0 -113 -3.5t-103 -12.5l-16 -36l1 7
q-1 -13 -12.5 -50t-19.5 -48q-12 -19 -33 -19q-34 0 -49.5 20t-15.5 55q0 32 14 86q18 71 22 97t36 26q19 0 45 -16t32 -16q8 0 18.5 2t18.5 4q30 6 60 6q27 0 50 2q79 7 86 7l45 -1h19h19q21 0 30 -5.5t16 -18.5q1 -2 5.5 -10t4.5 -15q0 -12 -17 -51q-9 -20 -20 -44z" />
    <glyph glyph-name="eight" unicode="8" horiz-adv-x="632" 
d="M525 54q-9 -9 -17 -16.5t-18 -14.5q-32 -22 -78.5 -33.5t-89.5 -11.5q-103 0 -182 54q-27 17 -40.5 30t-23.5 29q-13 21 -20.5 40t-7.5 41q0 27 14 50q26 46 39.5 59.5t55.5 38.5q-39 27 -63 60q-29 40 -29 84q0 52 45 103q32 36 86 71q30 20 60.5 28t66.5 8q29 0 45 -6
q23 -12 42 -20.5t37 -17t37 -26.5q26 -24 41.5 -51t15.5 -61q0 -23 -7.5 -43.5t-20.5 -41.5q-16 -27 -32.5 -45t-41.5 -32l38 -14q30 -12 55 -37q31 -31 41.5 -54t10.5 -46q0 -40 -14.5 -68.5t-44.5 -56.5zM367 558l-12 3q-12 0 -33 -6t-30 -8q-24 -8 -52 -33
q-24 -22 -42 -48q-14 -19 -14 -30q0 -19 26 -33.5t52 -14.5q11 0 28.5 2t27.5 4q35 7 63 37t28 66q0 48 -42 61zM455 188q-3 20 -8.5 29.5t-35.5 28.5q-13 8 -46 15t-51 7q-43 0 -86 -36q-39 -33 -56 -77l-5 -17q0 -33 49 -47q31 -9 75 -9q29 0 66.5 10.5t56.5 25.5t30 30.5
t11 33.5v6z" />
    <glyph glyph-name="nine" unicode="9" horiz-adv-x="630" 
d="M564 206l-9 -33q-16 -38 -39 -76q-29 -47 -54 -67q-41 -33 -65.5 -42.5t-51.5 -9.5q-21 0 -31.5 2t-42.5 10l-11 4q-8 2 -11 1l-63 30q-22 11 -32 21t-26 33q-25 36 -31 49q-12 26 -12 58q0 12 -1 20q-4 31 -4 34q0 17 3.5 23.5t13.5 12t32 13.5t33 8q15 0 23 -10.5
t12 -43.5q1 -18 2.5 -28.5t5.5 -23.5q14 -51 25 -71q23 -42 57 -42q20 0 45 14.5t41 32.5q30 35 48 77q4 9 20 54q3 10 4.5 17t4.5 39q4 19 6 32t2 25l-1 8q-53 -35 -101 -54q-58 -23 -112 -23q-53 0 -94 22.5t-74 66.5q-23 30 -29.5 50t-6.5 59q0 26 11 47q6 12 28 39
q42 52 110.5 79.5t140.5 27.5q28 0 56.5 -11.5t58 -23.5t51.5 -30q32 -27 48.5 -48t30.5 -57l2 -12v-1l1 -4q6 -44 8.5 -68.5t2.5 -38.5q0 -95 -25 -191zM434 559q-13 24 -25 34q-15 13 -37 13q-42 0 -86 -24q-36 -20 -73 -55q-13 -11 -30 -34q-20 -27 -20 -40q0 -9 6 -13
q4 -2 23 -5.5t34 -6.5l34 3l35 4q21 0 49 9q15 5 45.5 18t39.5 19q21 15 21 32q0 9 -5 21.5t-11 24.5z" />
    <glyph glyph-name="colon" unicode=":" horiz-adv-x="237" 
d="M109 285q-29 0 -48 22.5t-19 54.5l1 15q4 26 37.5 52.5t57.5 26.5q20 0 33 -22q9 -15 15 -43l7 -34q0 -33 -30 -54q-26 -18 -54 -18zM108 -23q-29 0 -47.5 23.5t-18.5 57.5l1 12q4 27 37 53.5t57 26.5q21 0 34 -23q9 -15 15 -43l7 -34q0 -33 -31 -55q-26 -18 -54 -18z
" />
    <glyph glyph-name="semicolon" unicode=";" horiz-adv-x="237" 
d="M109 285q-29 0 -48 22.5t-19 54.5l1 15q4 26 37.5 52.5t57.5 26.5q20 0 33 -22q9 -15 15 -43l7 -34q0 -33 -30 -54q-26 -18 -54 -18zM174 20l-20 -87q-6 -33 -8 -39q-8 -21 -49 -21q-27 0 -37 15t-10 45q0 37 9 75q3 13 3 44t3 49.5t13 35.5q14 25 36 25q31 0 47 -7
q27 -12 27 -41q0 -16 -3.5 -36.5t-10.5 -57.5z" />
    <glyph glyph-name="less" unicode="&#x3c;" horiz-adv-x="258" 
d="M191 -13q-5 0 -21 5t-20 7q-5 3 -14.5 21t-12.5 23q-12 24 -32 54q-53 81 -58 89q-11 20 -11 29q0 7 3 13q2 4 9 12l4 5q12 13 23 36q5 10 12 27t35 56q13 18 20 34l9 18q4 10 21 21t27 11q18 0 34 -24.5t16 -42.5q0 -10 -10 -22l-4 -4l1 -4v-14l-35 -42q-26 -39 -51 -77
q9 -15 17 -25q3 -4 21 -23q3 -4 10 -15t10 -16l19 -28.5t13 -35.5q1 -2 5.5 -9.5t4.5 -12.5q0 -12 -15 -39t-30 -27z" />
    <glyph glyph-name="equal" unicode="=" horiz-adv-x="629" 
d="M452 361h-277q-27 0 -47.5 19.5t-20.5 47.5q0 30 19.5 50.5t48.5 20.5h143l68 1l68 -1q26 0 45.5 -21.5t19.5 -49.5t-19.5 -47.5t-47.5 -19.5zM454 195h-278q-28 0 -48.5 19.5t-20.5 49.5q0 31 19 50t49 19h277q28 0 47 -19t19 -49q0 -27 -18.5 -48.5t-45.5 -21.5z" />
    <glyph glyph-name="greater" unicode="&#x3e;" horiz-adv-x="258" 
d="M216 187l-21 -30q-13 -28 -25 -56q-26 -41 -51 -82q-5 -10 -21 -21t-27 -11q-18 0 -34 25t-16 41q0 8 5 15.5t8 11.5v19q43 53 74 100l12 18q-15 24 -38 49q-5 5 -10 13.5t-10 17.5q-10 14 -19.5 29t-12.5 34q-5 11 -9 23q0 13 15.5 39.5t30.5 26.5q4 0 19 -5t19 -8
q5 -4 15 -21.5t13 -22.5q12 -22 33 -54q46 -70 57 -89.5t11 -28.5q0 -4 -8 -17t-10 -16z" />
    <glyph glyph-name="question" unicode="?" horiz-adv-x="535" 
d="M521 544q-9 -34 -24 -61q-10 -17 -39 -55l-64 -81l-74 -91q8 -11 8 -25q0 -21 -38 -41q-33 -17 -56 -17q-21 0 -43 13q-28 16 -28 40q0 13 8 29q4 9 14 22q51 72 103 145q30 42 61 84q40 60 40 93q0 15 -8.5 25.5t-21.5 10.5q-14 0 -36 -9q-2 -1 -36 -17
q-15 -7 -22.5 -11.5t-30.5 -20.5q-35 -24 -60 -48q-34 -33 -47 -63q-9 -20 -17 -40q-5 -8 -17 -8q-9 0 -21.5 2t-26.5 5t-34 24t-20 41q0 16 15 40q6 10 27 35q37 45 52 62q28 31 61 55q22 18 35 28q23 18 37 24q31 12 55 17.5t39 5.5q36 0 87 -26.5t76 -56.5t33 -44
q17 -28 17 -53q0 -8 -1.5 -18t-2.5 -15zM231 -22q-31 0 -51.5 23.5t-20.5 57.5l1 12q5 27 40.5 53.5t62.5 26.5q26 0 41 -29q5 -9 18 -52l2 -19q0 -33 -34 -55q-28 -18 -59 -18z" />
    <glyph glyph-name="at" unicode="@" horiz-adv-x="630" 
d="M365 517q4 13 11 21.5t19 8.5q5 0 12 -2t19 -4t22.5 -8.5t10.5 -22.5q0 -19 -4.5 -39t-8.5 -43t-10 -50q-10 -45 -19 -89q-3 -15 -4.5 -27.5t-1.5 -22.5q0 -16 12 -16q31 0 58 52q18 34 29 80q4 17 6 34t2 37q0 74 -43 117t-114 43q-108 0 -178 -89q-66 -83 -66 -199
q0 -89 44 -146q48 -62 130 -62q54 0 102.5 14t101.5 43q7 3 10 4q7 3 12 3q12 0 17.5 -11.5t5.5 -24.5q0 -18 -17 -34q-10 -9 -33 -23q-42 -25 -95.5 -39t-102.5 -14q-123 0 -193 79.5t-70 207.5q0 148 94 256q98 113 241 113q103 0 168 -59q70 -63 70 -170q0 -56 -17 -113
q-21 -69 -63 -119q-52 -62 -117 -62q-36 0 -54 18.5t-26 52.5l-4 -4q-16 -15 -34.5 -26.5t-35.5 -11.5q-29 0 -56 28t-27 58q0 73 44 164q52 108 119 108q22 0 34 -11zM294 371q-9 -22 -19.5 -59t-10.5 -55l-1 -3q9 0 25 21q12 16 20 30q13 21 24.5 68.5t11.5 77.5
q-12 1 -30 -34q-12 -23 -20 -46z" />
    <glyph glyph-name="A" unicode="A" 
d="M667 46q-21 -18 -45.5 -29.5t-49.5 -11.5q-15 0 -27 3.5t-27 12.5q-41 23 -51.5 38.5t-21.5 66.5l-4 -7q-38 -69 -66 -98q-46 -47 -104 -47q-30 0 -78.5 12t-68.5 27q-3 2 -23 19t-24 22q-27 28 -40 98q-9 50 -9 107q0 16 3 39q0 3 7 48t11 62.5t20 68.5q4 15 8 31l21 44
l13 32q7 16 19 33.5t26 33.5q35 46 64 67q40 29 88 29t76 -14q21 -10 63 -48l14 -12q14 11 31.5 15.5t37.5 4.5q31 0 45.5 -10t14.5 -26q0 -8 -1.5 -18t-2.5 -15q-7 -38 -10.5 -74t-3.5 -80q0 -9 -2 -27t-2 -27q0 -16 -2.5 -44.5t-2.5 -34.5v-94l2 -93l-1 -17q0 -16 2 -24.5
t12 -8.5q17 0 34 5.5t44 16.5l22 7q12 0 18.5 -9.5t7.5 -19.5q0 -14 -13 -30q-8 -11 -24 -24zM416 599q-14 16 -26.5 24t-27.5 8q-27 0 -59 -33q-19 -19 -45 -56q-22 -31 -39 -72q-12 -29 -27 -77q-4 -14 -6.5 -38.5t-7 -49t-7.5 -43t-3 -33.5q0 -11 1 -23q0 -1 4.5 -41.5
t6.5 -50.5q11 -45 40 -45q21 0 39.5 10.5t39.5 30.5q53 50 82.5 105.5t43.5 129.5q4 20 6 34.5t7 25.5q1 4 2.5 39t1.5 60q0 32 -1 40q-4 31 -25 55z" />
    <glyph glyph-name="B" unicode="B" horiz-adv-x="723" 
d="M586 350q-18 -15 -43 -31t-52 -28q62 -26 104 -63q55 -49 55 -103q0 -66 -93 -105q-72 -30 -146 -30l-60 -3q-68 0 -140 25q-14 -23 -48 -23q-38 0 -56 10q-27 15 -27 55l1 42l2 61q0 18 2 33t5 31q0 44 3.5 122t3.5 100q0 26 4 78t4 78l-2 26q-19 0 -41 -4t-41 -10
l-22 -6t-20 -3q-13 0 -21.5 9.5t-8.5 21.5q0 15 7 29q11 26 29 39.5t50 19.5t70.5 11.5t67.5 5.5q92 0 161 -7.5t132 -32.5l57 -24q28 -13 48.5 -27.5t40.5 -38.5q29 -34 40.5 -57.5t11.5 -63.5q0 -46 -21 -79q-16 -25 -57 -58zM451 602q-28 14 -86.5 24.5t-97.5 10.5h-8
q-11 -22 -15 -43t-4 -49l-9 -140l-1 -45v-25q102 9 188 50q112 53 112 129q0 29 -25 53q-18 18 -54 35zM517 171q-11 11 -35 21.5t-40 13.5t-29.5 5t-29.5 2q-14 2 -21 2q-29 3 -37 3q-27 0 -54 -3.5t-47 -11.5q-4 -45 -4 -103q39 -15 79 -15q46 0 104 17q31 9 63 19
q16 4 33 15q22 14 22 28z" />
    <glyph glyph-name="C" unicode="C" horiz-adv-x="634" 
d="M462 690q56 -45 82 -121q22 -65 22 -148q0 -32 -11 -71l-21 -2l-24 3q-42 13 -57.5 31.5t-22.5 64.5q-1 7 -2 21.5t-1 27.5v17l-3 55q0 32 -1 37q-6 31 -45 31q-12 0 -27.5 -2t-28.5 -4q-47 -7 -81 -64q-18 -30 -43 -103q-19 -57 -29 -113t-10 -115l3 -42q9 -47 25 -65
t61 -33q22 -7 50 -7q39 0 68 11.5t68 38.5q13 8 30 22q10 8 28 24l25 18q16 11 28 23q8 8 26 29q6 6 13 6q17 0 30 -15t13 -32q0 -22 -17 -47q-8 -11 -34 -40q-57 -64 -115 -101q-74 -47 -145 -47q-22 0 -38 2.5t-40 10.5q-53 17 -85 41q-26 19 -67 69q-29 34 -43 76.5
t-14 88.5l1 72q0 33 9 75q6 27 19 73q17 62 38 106q27 57 62.5 93.5t61.5 51.5q32 18 77 18q23 0 37.5 -3t34.5 -13q12 -5 50.5 -24.5t42.5 -24.5z" />
    <glyph glyph-name="D" unicode="D" horiz-adv-x="685" 
d="M636 267l-19 -38q-10 -20 -19 -35q-46 -79 -134 -144q-97 -71 -180 -71q-14 0 -22 1t-39 7l-19 3q-8 0 -24 -6t-26 -6q-19 0 -40.5 14.5t-34.5 32.5l-1 60q0 18 2 32t3 23v65q0 35 3.5 96t3.5 78q1 7 1 20v28v17l4 53l1 61l3 39h-4q-21 0 -53.5 -12.5t-46.5 -12.5
q-21 0 -34 24t-13 48q0 14 11 29.5t39 30.5q40 22 109.5 34t124.5 12q67 0 122 -13.5t108 -46.5q28 -17 45 -32q7 -6 40 -38l31 -28q14 -13 31 -45q5 -10 13 -27q18 -38 26 -70t8 -74q0 -25 -5 -56t-15 -53zM487 554q-22 35 -58 51.5t-120 16.5l-31 3q-18 0 -30.5 -5
t-12.5 -22l2 -24q0 -7 -3.5 -30t-3.5 -35q0 -20 -2.5 -53.5t-2.5 -40.5v-66q0 -19 -1 -31q-4 -49 -4 -54v-29v-26q-2 -17 -3 -26t-2.5 -17t-1.5 -14v-34v-15q0 -18 15 -18q9 0 19.5 1.5t23 3.5t47.5 23q20 12 52 36q17 12 37.5 31.5t35.5 37.5q30 33 43 55.5t28 63t15 89.5
q0 40 -8.5 65.5t-33.5 62.5z" />
    <glyph glyph-name="E" unicode="E" horiz-adv-x="713" 
d="M657 112q-31 -21 -36 -25q-28 -18 -60 -32q-12 -5 -21 -9.5t-24 -13.5l-19 -6l-18 -5q-22 -8 -43 -16l-70 -14q-33 -9 -68 -9q-28 0 -64 6.5t-60 18.5q-5 2 -23 11.5t-22 13.5l-21 21q-20 19 -28 28q-13 15 -23 32t-16.5 36.5t-6.5 37.5q0 25 10 49.5t26 46.5
q25 33 70 58q32 18 87 38q-96 22 -136 61q-35 34 -35 84q0 57 50 102q33 30 100 61q32 15 74 31q19 7 62 23q9 4 80 12t84 8q54 0 95.5 -33t41.5 -90q0 -34 -15 -59q-18 -30 -53 -30t-60 28t-25 64h-11q-28 0 -72 -12.5t-76.5 -26.5t-56.5 -25q-37 -17 -49 -27
q-16 -14 -29 -24q-26 -22 -26 -26q0 -6 15 -9q49 -20 138 -26q46 -3 145 -3h25q16 0 24 3l11 2l14 5q7 0 21 -26t14 -35v-19q0 -36 -16 -45q-4 -3 -54 -10.5t-131 -39.5q-8 -3 -83 -35q-24 -10 -46.5 -19.5t-43.5 -26.5l-25 -18q-20 -15 -29 -25q-16 -17 -16 -33
q0 -31 51 -39q20 -3 50 -3h18q72 0 162.5 21t159.5 53l19 9.5t20 11.5t24 15q19 11 26 11q15 0 28.5 -13.5t13.5 -29.5q0 -17 -17 -37q-12 -14 -31 -27z" />
    <glyph glyph-name="F" unicode="F" horiz-adv-x="582" 
d="M575 634q-17 -5 -43 -7t-49 -4q-74 -7 -148 -13l-57 -10q-7 -1 -23 -3.5t-18 -6.5q-2 -9 -2 -15l1 -38q0 -20 -3 -49t-5 -55l24 -1q16 0 43.5 2.5t32.5 2.5q26 0 71 2.5t54 2.5q13 0 26.5 -0.5t29 -7.5t26.5 -18q15 -15 15 -33q0 -27 -25 -38q-17 -8 -46 -8
q-19 0 -30 -1.5t-64 -11.5l-108 -15q-9 -2 -27 -5t-26 -3l-2 -3l-2 -63q0 -11 -2 -33t-2 -32l2 -64l-2 -46q0 -12 3 -26t4 -21q-23 -14 -44 -18.5t-47 -4.5q-25 0 -35 3q-19 6 -25 24q7 36 9 70.5t2 76.5l3 141q-21 9 -36 30.5t-15 45.5q0 17 11 29t28 12l15 -3q2 12 3 28.5
t1 31.5t-0.5 30.5t-0.5 30.5q0 10 2 32.5t2 25.5q0 4 -6 6q-5 1 -9 3q-24 7 -40 22q-21 20 -21 46q0 22 21 32t76.5 15t107.5 5q31 0 73 3q98 7 123 7l101 -3q25 0 37.5 -8.5t24.5 -33.5q2 -5 6 -15.5t4 -16.5q0 -21 -19 -26z" />
    <glyph glyph-name="G" unicode="G" horiz-adv-x="688" 
d="M631 133q-23 -32 -29 -40q-24 -32 -58 -56q-56 -38 -85 -49q-39 -15 -99 -15q-63 0 -114 20q-39 15 -100 58l-27 21q-35 34 -49 56t-29 69q-13 36 -13 73q0 75 15.5 150.5t45.5 147.5l25 56q39 68 69.5 90t104.5 33l17 1q43 0 96.5 -13.5t89.5 -35.5q56 -36 72 -54
q25 -28 39 -88q5 -21 11 -42q2 -12 2 -35.5t1 -36.5q0 -33 -4 -44q-8 -22 -35 -22q-18 0 -44 10.5t-35 23.5q-3 5 -7 18.5t-8 34.5l-11 50q-3 19 -5 38q-5 28 -16.5 54t-23.5 34.5t-36 8.5q-11 0 -22 -1q-1 0 -31.5 -4.5t-55.5 -29.5q-19 -19 -42 -63q-31 -58 -53 -148
t-22 -157l1 -21q0 -49 8 -68.5t44 -50.5q15 -13 42.5 -21.5t52.5 -8.5q39 0 63 8t56 32q11 8 27 24t27 29.5t15 28.5l-69 -1q-10 0 -19 -0.5t-18 -0.5q-48 0 -69 13q-30 19 -37 75q48 7 70 9q61 8 99.5 11.5t46.5 4t27 0.5h43q38 0 53.5 -9t31.5 -44q5 -12 7 -28
q0 -20 -11.5 -49t-24.5 -46z" />
    <glyph glyph-name="H" unicode="H" horiz-adv-x="713" 
d="M684 258q-9 -2 -19.5 -3t-20.5 -2l-39 -9l-2 -87v-56t3 -53v-18q0 -47 -44 -47q-9 0 -20 2t-19 4q-32 7 -43 23.5t-11 51.5v37t1 38v23q0 36 -3 72l-102 -11l-128 -12l-15 1l-7 -1q-3 -26 -5 -50t-2 -50v-57q0 -36 -13 -51t-47 -15q-46 0 -59 25q-9 17 -9 64q0 20 1 66.5
t1 65.5q-44 0 -77 11q-49 16 -49 53q0 24 21.5 26.5t34.5 4.5l72 12l4 80l2 21l-1 63q0 30 2.5 76t2.5 53q0 45 3.5 72t22.5 39q11 7 32.5 10t38.5 3q26 0 39 -9.5t13 -37.5q0 -17 -1 -24t-9 -43q-4 -20 -6 -59t-2 -68v-24.5v-15.5q0 -15 -2 -49.5t-2 -37.5l1 -36h11
q15 0 46 4t46 4l82 6q16 0 30.5 2t40.5 8q0 143 14 297q2 14 3 26t1 29q0 15 23 24t39 9q44 0 66.5 -14t22.5 -36q0 -13 -4.5 -25.5t-8 -23t-5 -25t-3.5 -35.5t-4 -46.5t-2 -52.5q0 -16 -2 -49t-2 -50q0 -18 4 -31l3 -1q26 0 50 -12q33 -17 33 -45q0 -11 -5 -21t-17 -13z
" />
    <glyph glyph-name="I" unicode="I" horiz-adv-x="314" 
d="M80 625q-25 0 -50 18q-29 21 -29 50q0 23 18.5 31t50 12.5t57.5 4.5l69 -1h33q29 0 40 -3t33 -19q9 -8 16.5 -17.5t7.5 -22.5q0 -28 -27 -39q-17 -7 -48 -7q-4 0 -10.5 -3t-9.5 -4q-6 -61 -8 -139.5t-2 -150.5l1 -231q6 -13 19 -18q18 -4 28.5 -6.5t21 -13t10.5 -26.5
q0 -25 -23 -36q-14 -7 -36 -9t-34 -3.5t-29 -1.5h-41h-15q-52 0 -78 6q-48 11 -48 41q0 21 14.5 26.5t37.5 15.5q16 6 32 13q5 10 6 17.5t1 22.5l-1 78q0 32 2 108t2 82l-1 96v16q0 42 -1.5 62.5t-8.5 50.5z" />
    <glyph glyph-name="J" unicode="J" horiz-adv-x="347" 
d="M341 657q-16 -9 -28 -12.5t-24.5 -5.5t-17.5 -4q-7 -4 -10 -5l-3 -90q0 -8 -2 -24t-2 -24l-9 -212q0 -78 -4 -116t-15 -80q-7 -32 -15 -54q-11 -31 -27 -52q-33 -43 -65 -59t-84 -16l-36 -1q-44 0 -64 6q-39 12 -39 47q0 28 26.5 44.5t51.5 16.5q17 0 37 -7l22 -8l9 -3
q13 0 27 17q7 9 19 31t17 67t5 104q0 16 -0.5 31.5t-0.5 29.5v223l3 71l-2 44q-21 7 -35 12q-24 9 -33.5 15.5t-15 14.5t-5.5 21q0 28 31 41q12 5 33 10l51 8q11 2 23 2h19h25l69 2q25 0 37 -2.5t32 -13.5q9 -5 17.5 -14t8.5 -21q0 -10 -7.5 -18.5t-18.5 -15.5z" />
    <glyph glyph-name="K" unicode="K" horiz-adv-x="617" 
d="M602 47q-30 -26 -57 -38t-63 -12q-23 0 -41.5 7.5t-45.5 22.5q-51 28 -103 100q-2 3 -79 123l-3 -152q0 -15 0.5 -27t5.5 -31l4 -15q0 -17 -39 -28t-63 -11q-27 0 -37 13t-10 41q0 14 2 47.5t2 36.5l-1 102q0 45 2 82q7 128 7 138q0 38 2.5 96t2.5 67q0 44 4.5 76
t23.5 46q8 6 17.5 8.5t20.5 2.5q24 0 51.5 -7.5t33.5 -23.5q0 -7 -2 -19t-2 -18q-1 -9 -3.5 -53t-3.5 -52q-5 -43 -5 -77q0 -12 -1 -20q-4 -31 -4 -35v-13q15 14 26.5 28.5t25 28l27.5 27.5q95 91 107 102q56 52 112 98q9 8 17 12.5t18 4.5q26 0 53 -21q17 -13 17 -27
q0 -13 -13 -27q-3 -3 -24 -21q-28 -27 -55 -53l-13 -12q-12 -13 -23 -25q-7 -7 -25 -23q-11 -9 -23.5 -22.5t-23.5 -25.5q-26 -27 -51 -54q-18 -14 -29 -24q-22 -19 -22 -28q0 -13 35 -81q7 -14 46 -86q21 -39 42 -60q28 -27 62 -27q17 0 40 10t47 21q15 0 27 -16t12 -30
q0 -12 -7.5 -23t-20.5 -23z" />
    <glyph glyph-name="L" unicode="L" horiz-adv-x="473" 
d="M483 20q-26 -11 -78 -13t-97 -3q-35 -4 -71.5 -7.5t-62.5 -3.5q-13 0 -44.5 -2t-33.5 -2q-40 0 -40 39q0 16 4 31.5t19 55.5q1 2 1 19q0 12 -0.5 22.5t-0.5 19.5q0 26 2 77t2 77q0 18 1 55t1 56q0 30 3.5 56.5t4.5 38.5l1 46l3 59q0 9 -3 27t-3 27q0 21 22 31.5t70 10.5
q10 0 27.5 -3t26.5 -8q19 -11 19 -37q0 -18 -5 -41t-9 -42.5t-6 -44t-4 -46.5q0 -38 -2 -69q-7 -108 -7 -117q0 -24 -2 -78.5t-2 -59.5l-3 -43l1 -27l153 -3h24q37 0 60.5 -5.5t40.5 -25.5q11 -13 11 -30q0 -28 -23 -37z" />
    <glyph glyph-name="M" unicode="M" horiz-adv-x="779" 
d="M797 52q-27 -23 -51 -35q-31 -16 -59 -16q-77 0 -108 74q-4 10 -7.5 23.5t-10.5 46.5q-13 53 -17.5 109t-4.5 124q-11 -31 -27 -87q-34 -114 -44 -146l-18 -53q-11 -29 -21 -39q-15 -16 -45 -16q-21 0 -37.5 2t-34.5 4t-31.5 11t-21.5 35l-23 72q-3 9 -11 43t-15 67
l-12 58l-6 42l-1 4l-3 -20l-15 -108q-3 -29 -5 -58l-10 -98q-2 -20 -4 -41t-2 -24l2 -19q0 -13 -19 -22.5t-32 -9.5q-54 0 -54 55q0 10 1 19.5t5 40.5l3 49q2 24 3 35t1 21q0 16 4 35t6.5 35t6.5 56.5t6 60.5q10 91 15.5 154.5t5.5 120.5l-1 45q0 16 34.5 28t55.5 12
q47 0 61 -8q22 -13 22 -58q0 -17 4 -39.5t6 -36.5l19 -109q11 -60 17 -90q10 -48 21.5 -96.5t24.5 -103.5l13 40l9 38l16 46q12 39 18 58q12 39 19 58l26 71l56 167q8 24 39 36t59 12q36 0 49 -26q9 -18 9 -55l-2 -58q0 -36 2 -120t2 -89q0 -28 1 -56l2 -56q0 -20 5 -68.5
t9 -66.5t25 -18q13 0 42 17q15 9 24 9q14 0 25 -12t11 -26q0 -13 -9 -25.5t-23 -24.5z" />
    <glyph glyph-name="N" unicode="N" horiz-adv-x="643" 
d="M560 599l-3 -72q0 -10 1.5 -24t0.5 -19q0 -15 -2 -52.5t-2 -40.5v-21v-18q-2 -12 -2 -17q0 -35 -1 -70l-2 -70v-86l2 -86q-21 -14 -41 -19.5t-43 -5.5q-33 0 -54 17q-16 13 -34 44q-30 50 -76 140q-32 62 -44 87l-55 122q0 -23 -3 -71t-3 -72v-108l2 -129q0 -5 2 -18
t2 -14q0 -27 -25 -42q-21 -12 -45 -12q-28 0 -42 19t-14 47q0 32 2 108t2 81v66l2 132q0 16 1 40t4 35l-2 58q0 33 1 47q6 54 8 80q0 27 9.5 44.5t32.5 21t40 5t33 1.5q21 0 31 -8t15 -29q3 -30 7 -60q4 -15 7 -24q1 -4 15 -40l12 -37q15 -43 34 -87q25 -57 70 -140l42 -78
l-3 64l3 115q0 19 -0.5 37.5t-0.5 37.5v11l4 46q0 48 2.5 98t11.5 74q5 14 15.5 23t27.5 9q15 0 31 -5.5t25 -18.5v-16v-14v-11q0 -17 -0.5 -33.5t-0.5 -32.5v-9z" />
    <glyph glyph-name="O" unicode="O" horiz-adv-x="714" 
d="M676 268q-11 -50 -21 -76.5t-35 -68.5q-8 -14 -16.5 -28.5t-30.5 -34.5l-31 -26q-34 -28 -88.5 -42t-104.5 -14q-43 0 -86 18q-31 13 -76 42l-71 48q-9 5 -26 32.5t-21 34.5q-21 37 -30.5 89t-9.5 102q0 60 14 118q11 47 37 111q13 30 21 47q12 24 28 43q30 37 76 61.5
t93 24.5q30 0 51 -10q37 -17 47 -19.5t23 -11.5t26 -17q33 -16 67 -32q39 -20 62 -40q32 -27 38 -33q22 -22 44 -69q11 -25 17 -48.5t9 -52.5l3 -51q0 -41 -1.5 -56t-7.5 -41zM391 627q-27 5 -47 5q-52 0 -85 -38q-25 -28 -50 -92q-8 -21 -13 -34q-10 -26 -10 -34
q0 -26 -9 -95q-5 -38 -5 -58q0 -47 12 -88.5t40 -70.5q24 -26 52 -40.5t61 -14.5q51 0 96 36q36 29 69 84q21 35 34 84t13 92q0 87 -40 163q-46 87 -118 101z" />
    <glyph glyph-name="P" unicode="P" horiz-adv-x="600" 
d="M224 253q-4 -33 -5.5 -74.5t-1.5 -58.5l-1 -108v-4q-6 -15 -38 -21t-56 -6t-34.5 20.5t-10.5 47.5l3 61l9 175l1 48l11 178l6 102l-55 -9q-24 -4 -33 -5t-26.5 -6.5t-29.5 -8.5q-25 -7 -31 -7q-16 0 -33.5 20.5t-17.5 37.5q0 36 76 61q20 7 106 26q39 8 82 27
q23 -4 46.5 -7t44.5 -3q47 0 92.5 -5.5t96 -17t74.5 -23.5q32 -17 58 -52.5t40.5 -69.5t14.5 -72q0 -124 -141 -192q-112 -54 -247 -54zM442 597q-24 9 -70 16.5t-77 7.5q-21 0 -44 -6q-4 -27 -7 -59.5t-3 -59.5q0 -30 -2 -55q-7 -86 -7 -93q23 0 47 6q6 2 76 26q20 6 58 37
q34 27 52 49q19 26 25.5 42.5t6.5 29.5q0 20 -14.5 34.5t-40.5 24.5z" />
    <glyph glyph-name="Q" unicode="Q" horiz-adv-x="712" 
d="M204 40l-81 52q-29 16 -50 51q-13 21 -30 64q-7 20 -10.5 43.5t-3.5 48.5q0 51 11 104t29 108.5t57 116.5q45 70 86 93q24 13 43 20t43 7q31 0 61 -9q13 -4 59 -23q36 -15 61 -30.5t57 -41.5q18 -16 27 -23q17 -14 27 -21t26.5 -33t22.5 -39q18 -35 27.5 -78.5t9.5 -85.5
q0 -30 -3.5 -75t-10.5 -61q-22 -52 -44 -103l-33 -43l15 -1q33 0 79 46q22 22 40 22q21 0 31 -16.5t10 -35.5q0 -52 -59 -87q-50 -30 -100 -30q-22 0 -40 2.5t-53 14.5l-18 4q-6 0 -17.5 -3.5t-21.5 -6.5q-39 -12 -72 -12q-41 0 -74 12q-20 7 -66 33zM551 455
q-11 67 -33 100q-25 39 -80 59q-21 8 -34.5 12t-25.5 4q-17 0 -32 -5t-40.5 -17.5t-46.5 -42.5q-14 -19 -34 -63q-23 -48 -38 -109.5t-15 -114.5q0 -55 16 -92q20 -46 61 -59l14 -4q21 15 48 24.5t52 9.5q24 0 61 -10l60 -18q25 34 42 81q14 40 24 91q3 17 6 40.5t3 41.5
q0 20 -3 40t-5 32z" />
    <glyph glyph-name="R" unicode="R" horiz-adv-x="647" 
d="M661 65q-7 -28 -55 -45q-37 -13 -72 -13q-65 0 -112 44q-28 26 -74 99l-20 26q-1 6 -6 15t-7 14q-9 20 -15 27t-14 7q-9 0 -17 -1.5t-16 -2.5l-33 -4q-4 -18 -6 -49t-2 -54v-56v-45l2 -20q0 -12 -15.5 -19t-45.5 -7q-45 0 -60.5 12.5t-15.5 37.5q0 11 2 25t3.5 23.5
t1.5 18.5v14q0 13 -0.5 26.5t-0.5 27.5q0 38 2.5 98t2.5 68v36v18q3 21 4 31.5t1 32.5t1 33q0 10 -0.5 19.5t-0.5 19.5q0 44 5 97h-7q-39 0 -59 -6q-21 -9 -32.5 -13.5t-19.5 -4.5q-18 0 -28.5 16t-10.5 33q0 57 40 78q27 14 85 14l84 6q103 0 161.5 -10t110 -30.5
t69.5 -30.5q35 -19 61 -50.5t42.5 -65.5t16.5 -69q0 -64 -60 -123q-47 -46 -116 -77l2 -7l5 -13q23 -40 34 -60q20 -35 39.5 -57.5t28.5 -30.5q22 -19 57 -19l33 3q12 0 19.5 -9.5t7.5 -21.5v-6zM418 598q-23 9 -45 13t-52 6.5t-45 4t-19 1.5q-11 0 -13 -2q-2 -3 -2 -16
l-9 -93q0 -72 -3 -114q-5 -47 -7 -69l12 1q10 0 26 5t24 7q55 16 88 37q37 24 66 67q12 18 18 28q13 24 13 51q0 28 -13.5 45t-38.5 28z" />
    <glyph glyph-name="S" unicode="S" horiz-adv-x="690" 
d="M614 78q-37 -34 -80 -53q-25 -11 -91 -30l-16 -5l-60 -7l-20 -2l-79 2l-41 7q-51 8 -89 20q-58 19 -83 46.5t-33 46.5t-8 41q0 26 11.5 47.5t35.5 21.5q29 0 41 -27q8 -18 8 -52q0 -13 36 -25q15 -5 48 -12q7 -2 21.5 -3.5t30.5 -1.5q32 0 57 3t77 13t73 16q38 11 75 34
q5 3 11.5 7.5t5.5 10.5q0 8 -22 13.5l-26 6.5t-29.5 7t-62.5 13l-43 11l-90 20q-46 16 -87 34.5t-63 41.5t-43 67q-12 24 -20 49.5t-8 49.5q0 45 32 96q29 46 68 74q7 5 31 24q16 12 31 26q4 3 56 25t53 22q16 5 27 8q25 6 51 6q67 0 114 -55q13 -16 28 -31q2 -2 20 -19
q9 -9 18 -21.5t14 -19.5q30 -39 41 -65.5t11 -48.5q0 -25 -14 -45.5t-41 -20.5q-11 0 -15 1l-8 4q-13 7 -49 60q-30 44 -44 69q-3 5 -5.5 15t-3.5 23q-8 33 -37 33q-11 0 -24 -4t-25 -10q-72 -30 -135 -87q-76 -69 -76 -129q0 -17 14 -26q7 -5 30 -10l52 -10l76 -18l60 -12
q57 -12 100 -26q56 -18 97 -42q29 -16 46 -41t17 -59q0 -29 -12 -52.5t-35 -44.5z" />
    <glyph glyph-name="T" unicode="T" horiz-adv-x="624" 
d="M593 609h-26t-22 1q-22 0 -40 -2t-29 -3l-67 -6q-6 -16 -8 -38.5t-2 -43.5l-8 -118l-3 -66q0 -34 -5.5 -113.5t-5.5 -103.5l-2 -44l-2 -65q-6 -13 -17.5 -18.5t-26.5 -5.5q-30 0 -42 2q-27 5 -34 21q-3 6 -4 16t-1 19l3 129l7 251q0 19 1 58t1 59q0 9 0.5 17.5t4.5 33.5
l-45 2l-108 -2h-25q-59 0 -89 9q-50 15 -50 56q0 14 6 22t15.5 10t34 3t38.5 3l57 6q63 6 97 10q65 9 102 14t63.5 7.5t57.5 2.5q11 0 32 3t31 3l48 -3q37 0 51 -5q24 -9 39 -38q5 -20 11 -40l4 -10q2 -6 2 -8q0 -11 -12.5 -18t-31.5 -7z" />
    <glyph glyph-name="U" unicode="U" horiz-adv-x="688" 
d="M630 113q28 11 33 13q22 8 34 8q15 0 28 -8.5t13 -26.5q0 -11 -9 -24.5t-20 -22.5q-21 -18 -40.5 -27.5t-44.5 -9.5q-52 0 -88.5 34t-45.5 87l-6 37l-6 -10q-4 -7 -27 -53q-18 -35 -31 -52q-32 -41 -64.5 -58.5t-83.5 -17.5q-11 0 -18 1t-20 4q-60 16 -80.5 31.5
t-50.5 69.5q1 5 -3.5 20.5t-7.5 28.5q-11 45 -15.5 98.5t-4.5 110.5q0 111 19 217q4 28 9 59.5t10.5 54.5t15.5 37.5t27.5 18.5t22.5 5q7 1 21 1q22 0 39.5 -10.5t17.5 -35.5q-11 -36 -19.5 -81.5t-12.5 -87.5q-6 -38 -8.5 -59t-2.5 -33l-3 -136q0 -49 3.5 -78t12 -63.5
t19.5 -77.5q6 -16 24 -16q12 0 27 10q24 18 60 84q19 35 50 102q4 9 8 17.5t8 22t20 62.5q21 65 26 108l7 63l13 101q4 45 24 61t65 16q29 0 39 -10t10 -31q0 -9 -4 -27.5t-4 -19.5l-8 -56q-14 -96 -14 -187q0 -92 4 -144q9 -110 32 -120z" />
    <glyph glyph-name="V" unicode="V" horiz-adv-x="541" 
d="M279 181l36 100q27 73 54 147l65 162q5 13 11 25t13 25l20 39q3 8 13 12.5t21 4.5q19 0 31 -12t12 -32l-3 -21l-47 -130q-37 -105 -68.5 -197.5t-64.5 -194.5l-16 -43q-16 -45 -30.5 -59.5t-58.5 -22.5q-5 -1 -12.5 -2t-14.5 0q-35 0 -61 25q-19 19 -36 54.5t-34 88.5
q-12 37 -17 54q-9 28 -18 57l-22 75q-2 5 -4 18t-4 20l-12 46q-8 25 -11 37q-7 22 -9 37l-14 78q-4 26 -8 53t-4 51q0 26 8.5 38.5t31.5 21.5q8 3 12 4q12 4 22 4q30 0 46 -34q8 -18 17.5 -66t25.5 -112q7 -27 31 -116q3 -11 5 -18.5t9 -42.5l16 -49l15 -62q6 -20 17 -53
t21 -59l3 4l10 39z" />
    <glyph glyph-name="W" unicode="W" horiz-adv-x="833" 
d="M387 144q-24 -63 -26 -68q-3 -7 -20.5 -39t-34.5 -42.5t-49 -10.5h-13q-27 0 -45 3.5t-41 16.5q-35 20 -52 57q-11 23 -21 75q-13 71 -13 148l1 66q0 21 2.5 54t2.5 40t2.5 19t3.5 20q1 4 1 14.5v16.5v11q0 11 1 16q6 19 8 38t7 55t17.5 48.5t24 16.5t27.5 4q20 0 45 -9
t30 -27q-9 -26 -17 -50.5t-11 -56.5l-3 -70l-6 -70q0 -21 -1 -64t-1 -65q0 -60 6 -124.5t22 -98.5l19 14q3 7 28 57q18 37 24 59l11 44l13 49l21 114l9 65l8 60l-1 21q0 16 18.5 25t34.5 9q9 0 18 -1.5t18 -2.5q26 -5 35 -13q15 -12 15 -39q0 -10 -1.5 -18t-3 -20t-2.5 -31
t-1 -38v-11q0 -7 -1 -22t-1 -23q0 -80 9 -157q1 -9 5.5 -33.5t4.5 -39.5q5 -10 11 -28l9 -27q28 26 53 91q12 30 33 103q5 18 12 54t11 54l4 18q10 74 20 149v63q0 32 -4 43.5t-23 37.5q-7 8 -8 19q0 20 14 28.5t32 8.5q17 0 28 -7.5t24 -24.5l21 -37q9 -15 12.5 -51.5
t3.5 -68.5q0 -36 -1 -49.5t-9 -87.5l-10 -100q-4 -32 -11 -60q-12 -40 -16.5 -57.5t-9.5 -34t-18 -45.5l-22 -58q-29 -54 -50.5 -70t-50.5 -16q-16 0 -30.5 3t-36.5 10q-57 19 -81 54q-20 28 -34 94z" />
    <glyph glyph-name="X" unicode="X" horiz-adv-x="571" 
d="M187 628q6 -35 14 -61q4 -14 20 -56q9 -30 15.5 -50t16.5 -41q12 13 26 35q20 31 41 63q29 38 58 77q74 97 98 131q13 18 19 23q11 9 29 9q16 0 30.5 -3t30 -9t15.5 -24q0 -16 -14 -35q-19 -21 -26 -30q-12 -16 -23 -32l-25 -26l-63 -93l-68 -93l-44 -63l-34 -50
q3 -32 12 -46q12 -15 19.5 -26t14 -24.5t12.5 -25.5q19 -33 34 -46q21 -18 49 -18q42 0 61.5 30.5t30.5 30.5q18 0 34 -13t16 -33q0 -19 -25 -44q-17 -17 -38 -31t-45.5 -18.5t-51.5 -4.5q-77 0 -131 39q-44 32 -89 105q-13 -18 -28 -40t-20.5 -33t-14 -20.5t-16.5 -18.5
q-30 -46 -59 -91q-6 -10 -14 -15.5t-16 -5.5q-18 0 -35.5 21.5t-17.5 38.5q0 15 13 43t21.5 40t12.5 17q11 14 19 29q13 25 35 55q19 26 38 52.5t27 50.5q-18 37 -36 96q-12 42 -18 61l-44 134l-21 80l-3 20q0 9 4.5 14.5t22.5 14.5q20 12 36.5 17.5t38.5 5.5q32 0 43 -31
q7 -20 7 -57z" />
    <glyph glyph-name="Y" unicode="Y" horiz-adv-x="678" 
d="M456 131q-31 -60 -64 -92q-46 -44 -101 -44q-37 0 -75 16q-14 6 -41 21q-52 31 -73 77q-16 35 -25 106q-3 23 -4 57.5t-1 38.5q0 89 7 174.5t23 168.5q10 49 23 64q17 19 65 19q21 0 43.5 -7.5t22.5 -24.5q0 -7 -2.5 -14.5t-8.5 -20t-8.5 -27t-7.5 -58.5l-11 -59
q-8 -44 -10.5 -109t-2.5 -141q0 -41 2 -76.5t7 -41.5q14 -44 16 -48q14 -30 35 -30q19 0 31 9t25 28q19 26 29 41q20 29 25 43l42 106q7 23 15 46q5 16 14 51t16.5 82.5t11.5 73.5q1 7 6 41.5t5 53.5q0 42 44 42l30 -2l23 3q15 0 23 -13.5t8 -26.5t-3 -29.5t-5 -33t-3.5 -55
t-4.5 -65.5q-1 -41 -6 -81v-49q0 -26 -1 -42q-4 -64 -4 -70q0 -55 -10 -231q-5 -88 -5 -139q0 -13 1 -39t1 -39l2 -25q0 -53 -54 -53q-21 0 -39.5 6.5t-34.5 22.5l-2 118l3 80q0 30 1 61l2 62q0 16 2.5 43t2.5 31z" />
    <glyph glyph-name="Z" unicode="Z" horiz-adv-x="575" 
d="M530 561q-11 -12 -21 -22q-16 -15 -31 -29q-21 -21 -41 -43l-40 -44q-44 -48 -61 -67q-3 -3 -100 -115q-31 -35 -45 -52q-22 -27 -42 -56q36 0 72.5 3t57.5 5q13 0 40 3t41 3l90 1q26 0 40 -2t27 -11.5t23 -23.5t10 -31q0 -22 -21 -39l-35 3q-18 0 -44 -4t-49 -7
q-69 -9 -115 -16q-27 -4 -114 -19q-40 -7 -69.5 -11.5t-52.5 -4.5l-15 2q-39 7 -56 27t-17 61q0 36 23 74q3 5 27 39l10 12l139 155q46 51 90.5 98.5t58.5 57.5q25 30 36 43q19 22 39 42l-114 -8q-18 0 -53.5 -1t-51.5 -1q-49 0 -85 17q-48 23 -48 68l4 23l74 4q27 0 37 1
t61 7.5t88.5 12t79.5 11.5q14 2 47.5 6t41.5 4q38 0 56 -16q14 -12 32 -50q6 -12 9.5 -21t3.5 -20q0 -17 -11 -35q-7 -12 -26 -34z" />
    <glyph glyph-name="bracketleft" unicode="[" horiz-adv-x="391" 
d="M319 629l-47 -3l-42 -4q-14 0 -18 -5q-3 -4 -5 -21l-1 -33l-2 -66v-23v-20v-18v-15v-14v-12q0 -18 -0.5 -36t-0.5 -36v-10q0 -72 -1 -144.5t-2 -144.5q0 -24 -1 -49l-2 -50q0 -18 5 -20t16 -2q19 0 39 3q59 9 65 9q17 0 28 -11t11 -29q0 -14 -8.5 -22.5t-33.5 -8.5
q-14 0 -23 -1q-3 0 -38 -7q-20 -4 -47 -6t-53 -2q-25 0 -50 16q-31 20 -31 50q0 32 2.5 82.5t2.5 58.5q0 34 -1 103t-1 104v45q0 33 1 99.5t1 98.5q0 26 2 63.5t5 75.5q0 33 11 48.5t28 15.5q7 0 21 -2t21 -2q22 0 38.5 2t27.5 3l54 4l40 3q14 0 23 -8t9 -25
q0 -18 -12.5 -26t-30.5 -8z" />
    <glyph glyph-name="backslash" unicode="\" horiz-adv-x="312" 
d="M264 -183q-14 0 -20.5 4.5t-15.5 31t-11 34.5l-192 739q-3 10 -6 21.5t-3 22.5q0 12 19.5 19.5t31.5 7.5q24 0 33 -16q3 -5 11 -36l205 -761q3 -8 4.5 -17t1.5 -18q0 -16 -20.5 -24t-37.5 -8z" />
    <glyph glyph-name="bracketright" unicode="]" horiz-adv-x="391" 
d="M309 488q0 -51 1.5 -129t1.5 -79v-43q0 -33 -1 -99.5t-1 -98.5q0 -26 -2 -63.5t-5 -75.5q0 -33 -11 -48.5t-28 -15.5q-7 0 -21 2t-21 2q-22 0 -38.5 -2t-27.5 -3l-54 -4l-40 -3q-14 0 -23 8t-9 25q0 18 12.5 26t30.5 8l47 3l42 4q14 0 18 5q3 4 5 21l1 33l2 66v91t1 93
q0 72 1 144t2 145q0 24 1 49l2 50q0 18 -5 20t-16 2q-19 0 -39 -3q-59 -9 -65 -9q-17 0 -28 11t-11 29q0 14 8.5 22.5t33.5 8.5q20 0 37 3.5t24 4.5q20 4 47 6t53 2q25 0 50 -16q31 -20 31 -50q0 -35 -2 -66.5t-4 -75.5z" />
    <glyph glyph-name="asciicircum" unicode="^" horiz-adv-x="500" 
d="M370 342l-120 229l-120 -229h-119l173 337h133l173 -337h-120z" />
    <glyph glyph-name="underscore" unicode="_" horiz-adv-x="576" 
d="M0 -10v43h576v-43h-576z" />
    <glyph glyph-name="grave" unicode="`" horiz-adv-x="217" 
d="M132 479q-13 0 -57 19q-30 13 -61 27t-31 51q0 22 14.5 37.5t35.5 15.5q12 0 56 -19q23 -10 59 -28q32 -13 32 -50q0 -23 -14 -38t-34 -15z" />
    <glyph glyph-name="a" unicode="a" horiz-adv-x="463" 
d="M514 58q-16 -26 -36 -38t-49 -12q-75 0 -112 58l-22 -29q-20 -28 -42.5 -41.5t-55.5 -13.5q-168 0 -168 172q0 28 1 48.5t5 43.5q0 1 10.5 40t20.5 59q33 61 62 83.5t62 22.5q24 0 60.5 -9t61.5 -20q35 -16 56 -50l11 1q21 0 33 -7.5t16 -19.5q-16 -39 -20 -78t-4 -100
l-3 -54q0 -12 2.5 -21t10.5 -9q17 0 51.5 32.5t41.5 32.5q14 0 21 -11.5t7 -24.5q0 -16 -10 -36q-4 -8 -11 -19zM257 359q-30 0 -53 -42q-8 -16 -18 -42q-4 -10 -9.5 -26.5t-8.5 -27.5t-5 -39.5t-2 -38.5v-14q0 -21 1.5 -34.5t5 -24t10.5 -11.5q11 0 22 12q5 5 17 23
q37 55 44.5 75.5t18.5 88.5l9 66l2 10q0 10 -10.5 17.5t-23.5 7.5z" />
    <glyph glyph-name="b" unicode="b" horiz-adv-x="455" 
d="M273 -24q-71 0 -123 54q-18 -7 -41 -7q-24 0 -36 14q-16 18 -16 64v17.5t1 17.5l3 141l4 66v41l3 42l4 111q2 16 5 33q0 24 4 70t4 69q0 55 8 72q14 30 64 30q20 0 34 -8.5t18 -32.5q-3 -13 -5.5 -23.5t-2.5 -25.5l-3 -77q0 -34 -5.5 -112t-5.5 -101q18 16 37 27t36 11
q12 0 24 -3l16 -4q39 -13 68 -54q22 -30 40 -78q10 -25 13.5 -61t3.5 -75q0 -91 -30 -146q-39 -72 -122 -72zM293 308q0 28 -10 56q-3 6 -9 8q-38 0 -69 -97q-27 -83 -27 -142q0 -18 4.5 -25.5t21 -15.5t28.5 -12.5t22 -4.5q29 0 40 52q6 29 6 79q0 25 -3 55t-4 47z" />
    <glyph glyph-name="c" unicode="c" horiz-adv-x="403" 
d="M395 43q-30 -24 -74.5 -44t-79.5 -20q-14 0 -27.5 2.5t-34.5 7.5q-49 15 -70 28q-32 19 -54 57q-15 24 -20.5 51t-5.5 59q0 20 1.5 34.5t9 69t15 73t35.5 52.5q18 23 31 32q20 14 42 14q37 0 66.5 -9.5t56 -32.5t40.5 -49q11 -20 22 -58q5 -14 7.5 -24.5t2.5 -22.5
q0 -43 -9 -66q-14 -35 -50 -35q-11 0 -21 2.5t-22.5 8t-21.5 18.5t-12 36t-5 44t-2 39v21.5t2 23.5h-6q-14 0 -25 -33q-7 -21 -8 -26q-8 -25 -13 -49.5t-5 -48.5l3 -77q4 -30 9 -40q9 -19 32 -19q20 0 47 7t69 27q20 10 30 14q19 9 29 17q19 15 23 18q17 12 24 12
q14 0 21.5 -9.5t7.5 -22.5q0 -19 -23 -46q-15 -17 -37 -36z" />
    <glyph glyph-name="d" unicode="d" horiz-adv-x="464" 
d="M32 105l-3 33l3 56q0 42 11 81q2 6 16 49q18 55 43 88q36 47 86 47q59 0 96 -41v13l-1 39l5 138l1 87l-2 27q0 32 11 43t43 11h32q13 -3 28.5 -4.5t24.5 -11t9 -23.5q0 -8 -2 -15t-7 -20q-10 -21 -13.5 -43t-3.5 -50l-6 -136v-170l-2 -60q0 -47 3 -78t7.5 -39t12.5 -8
l58 46t37 23q13 0 22 -11.5t9 -24.5q0 -16 -26 -52q-22 -30 -37 -43q-31 -28 -70 -28q-24 0 -51 13t-43 32q-26 -38 -54 -62q-37 -32 -73 -32q-22 0 -48.5 7t-45 17.5t-33.5 21.5q-24 18 -27 29zM266 339q-6 4 -17.5 9.5t-17.5 5.5q-12 0 -27 -22q-6 -9 -19 -35t-22 -64.5
t-9 -68.5q0 -22 0.5 -48.5t4.5 -41t14 -16.5q9 0 28 24q13 17 27 34l29 64q12 27 18 57.5t6 61.5q0 14 -3.5 24.5t-11.5 15.5z" />
    <glyph glyph-name="e" unicode="e" horiz-adv-x="397" 
d="M426 111l-22 -29q-23 -29 -49 -48q-18 -13 -59 -33q-17 -9 -43 -15.5t-46 -6.5q-24 0 -51 11q-11 4 -47 25q-52 30 -69 84q-11 35 -11 109l2 55q7 54 12 76q9 35 30 72q14 24 28 37q20 18 44 18q32 0 77 -17t79 -40q28 -19 44 -45.5t16 -60.5q0 -27 -15.5 -55.5
t-36.5 -44.5q-29 -22 -42.5 -28.5t-46.5 -15.5q-13 -3 -30.5 -7t-39.5 -4l-1 -12q0 -38 7.5 -52.5t35.5 -14.5q29 0 41 4q15 7 25 11q37 16 60 31q28 18 51 47q10 14 15 18q10 9 21 9q16 0 25.5 -12.5t9.5 -27.5q0 -9 -4 -18.5t-10 -19.5zM224 368q-31 0 -51 -52
q-16 -42 -16 -86q38 4 66 33t28 69q0 36 -27 36z" />
    <glyph glyph-name="f" unicode="f" horiz-adv-x="280" 
d="M378 748q2 -7 10.5 -32.5t8.5 -35.5q0 -18 -18.5 -29t-33.5 -11q-8 0 -18 4.5t-13 12.5l-12 40.5t-20 29.5q-18 -4 -31 -25q-5 -8 -19.5 -41t-20.5 -75q-2 -13 -8 -81q0 -15 -2 -49.5t-2 -37.5l60 -3q19 0 37 -20t18 -41q0 -32 -45 -39q-35 -2 -69 -4l-10 -3
q-3 -26 -5 -48.5t-2 -33.5l1 -52q0 -12 -1 -37t-1 -38q0 -19 1.5 -40t3.5 -30v-7q0 -20 -13 -27.5t-33 -7.5l-54 2q-19 0 -28 18.5t-9 40.5q0 12 2 26.5l4 29t2 48t1 54.5v20.5v14.5l2 60l-3 1q-33 0 -57 11q-33 15 -33 47q0 23 15 32t34 9l24 -1q23 0 24 10q0 38 1 50.5
t9 93.5q4 35 6 59.5t8.5 53.5t13.5 51q11 35 26 58q20 32 42 50q29 23 62 23q43 0 85 -30t60 -71z" />
    <glyph glyph-name="g" unicode="g" horiz-adv-x="477" 
d="M307 402q4 14 17 21.5t29 7.5h10l16 -4q26 -9 33.5 -22t7.5 -44q0 -43 -2 -78q-7 -123 -7 -132l2 -38l-2 -88l2 -85q0 -43 -2 -70t-10 -63q-11 -49 -33 -71q-26 -26 -73 -26q-63 0 -124 29q-8 4 -70 38q-9 5 -15 10q-16 13 -16 29q0 12 6 20q10 13 28 13q9 0 16 -2
q2 -1 17 -6q28 -14 56 -29q33 -15 61 -15q13 0 18 14q2 7 5.5 27t5.5 38.5t2 39.5l9 120l2 12q-19 -28 -50.5 -45.5t-62.5 -17.5q-17 0 -32 4t-32 11q-52 25 -71 63.5t-19 101.5q0 53 10.5 102t32.5 102q16 41 40.5 57.5t70.5 22.5l19 2q23 0 43 -9q4 -2 62 -40zM279 299
q-9 20 -16 28q-13 16 -28 16q-23 0 -40 -32q-10 -19 -19.5 -49.5t-12.5 -52.5t-3 -45v-16q-1 -16 -1 -27q0 -20 3.5 -34t12.5 -14q6 0 12.5 5.5t15.5 18.5l23 29q12 15 29 51t25 48q3 4 5 17t2 22q0 22 -8 35z" />
    <glyph glyph-name="h" unicode="h" horiz-adv-x="502" 
d="M524 72q-21 -24 -35 -34q-22 -16 -45 -16q-18 0 -36.5 6t-24.5 8q-49 20 -65 59q-8 19 -17 88q-4 40 -4.5 57t-0.5 27v14q0 9 -2 13q-2 9 -10 9q-9 0 -19 -10.5t-16 -24.5l-26 -51q-10 -21 -20 -62.5t-13 -68.5q-6 -51 -10 -64q-12 -36 -46 -36q-18 0 -33.5 3.5
t-25.5 12.5q-13 12 -15 35.5t-2 42.5v10q0 44 4 132t4 133v43.5t1 43.5q0 42 7 168q4 72 4 102q0 12 -1 19q-4 29 -4 32q0 24 14.5 31.5t38.5 7.5h11q32 0 46 -6q23 -10 23 -41q0 -14 -2 -26t-3 -19q-4 -23 -4.5 -33.5t-0.5 -16.5q0 -32 -2.5 -85t-2.5 -63l-1 -48
q0 -16 -3 -50t-3 -51v-10l3 3l15 22q9 13 37.5 21t51.5 8q12 0 25 -3.5t25 -9.5q49 -24 67 -84q12 -40 12 -109l-2 -47q0 -28 2.5 -42.5t17.5 -14.5t34 28q7 12 15.5 24.5t12.5 16.5q14 14 32 14q15 0 25.5 -10.5t10.5 -25.5q0 -13 -16 -37q-9 -13 -28 -35z" />
    <glyph glyph-name="i" unicode="i" horiz-adv-x="244" 
d="M135 430q-31 0 -50 23.5t-19 57.5l1 12q4 27 39 53.5t61 26.5q24 0 39 -29q6 -12 17 -52l2 -19q0 -33 -33 -55q-27 -18 -57 -18zM301 34l-15 -16l-17 -16q-40 -23 -84 -23q-48 0 -81 25.5t-40 75.5l-3 19q-1 3 -1 10q1 12 1 18q0 7 -2 22t-2 24t2 32.5t2 25.5l2 37l4 39
q6 42 21 56t54 14q13 0 29.5 -6t21.5 -19q-4 -21 -6.5 -46.5t-4.5 -48.5q0 -30 -1 -48q-4 -72 -4 -78v-15q0 -21 2.5 -37t10.5 -16q35 17 69.5 34t48.5 17q11 0 17.5 -10t5.5 -20q0 -11 -10 -25.5t-20 -24.5z" />
    <glyph glyph-name="j" unicode="j" horiz-adv-x="230" 
d="M122 501q-25 0 -53 22q-31 25 -31 54q0 42 29 71t68 29q42 0 57 -30q10 -20 10 -66q0 -31 -25.5 -55.5t-54.5 -24.5zM185 378l-6 -18q-1 -11 -1.5 -29t-0.5 -32v-17q0 -38 -1 -58q-5 -98 -5 -99l3 -39l-3 -62l-1 -103v-22.5v-15.5q0 -75 -16 -105q-25 -46 -100 -46
q-40 0 -65 10.5t-62 38.5q-14 11 -20 20q-9 13 -9 29q0 17 7.5 25.5t19.5 8.5q13 0 36 -11q15 -7 34 -20q6 -4 28 -4q15 0 21 6.5t8 22.5v24l-1 39l3 202l-2 72q0 13 1 39t1 38t-0.5 24t-0.5 24l3 74q0 7 -2.5 19.5t-2.5 15.5q0 13 25 20t42 7q24 0 45 -12q27 -16 27 -44z
" />
    <glyph glyph-name="k" unicode="k" horiz-adv-x="468" 
d="M517 100l-23 -25q-28 -30 -43 -41q-40 -31 -92 -31q-113 0 -158 105l-20 -1l-2 -32l3 -57q0 -19 -17 -29t-33 -10q-18 0 -39.5 10.5t-34.5 25.5v20q0 16 2 48t2 49l9 273l2 31q0 15 -0.5 31t-0.5 33q0 33 2.5 89t2.5 67l-2 50q0 41 22 55q16 10 52 10h18q24 0 40 -8.5
t16 -35.5q0 -11 -5 -22.5t-9 -20.5t-5 -25t-1 -28q0 -16 -3 -34t-4 -26.5t-1.5 -22.5t-0.5 -21v-27l-4 -115l13 27q5 15 32.5 25t46.5 10q56 0 99 -45t43 -104q0 -42 -25 -80q-21 -32 -58 -58l-19 -12q0 -23 12.5 -42t29.5 -19q32 0 66 24q74 53 78 53q12 0 19 -8t7 -20
q0 -14 -17 -36zM257 322q-6 -7 -12 -17q-9 -16 -11 -19q-9 -15 -17.5 -29.5t-13.5 -33.5q12 -12 30 -14q31 0 51 38q17 32 17 73v14q0 20 -8 20q-5 0 -16 -10.5t-14 -13.5z" />
    <glyph glyph-name="l" unicode="l" horiz-adv-x="239" 
d="M289 2q-35 -28 -77 -28q-20 0 -39 6.5t-39 18.5q-47 29 -57.5 52t-10.5 81l-5 39l-1 43q0 6 -1 21t-1 23q0 62 3 122.5t10 125.5q1 13 6 50.5t5 59.5q0 17 2 31q7 48 7 52q0 6 -4 21t-4 21q0 18 20 31t54 13q30 0 45 -5q27 -9 27 -35q0 -7 -2 -16t-4 -16
q-8 -30 -11.5 -61t-7.5 -67.5t-6.5 -61t-2.5 -54.5q0 -17 -2.5 -32t-4.5 -31l-2 -59q0 -28 -2.5 -74.5t-2.5 -56.5v-38t3 -40q0 -28 2.5 -46.5t13.5 -34.5q16 2 28 7q15 11 47.5 28.5t40.5 17.5q13 0 19 -11t7 -22q0 -18 -19 -42q-13 -17 -34 -33z" />
    <glyph glyph-name="m" unicode="m" horiz-adv-x="676" 
d="M372 336q28 53 49 72q32 30 84 30q31 0 55 -16q20 -13 41 -42q11 -16 14.5 -38t3.5 -49v-29q0 -18 -2 -58.5t-2 -43.5q-1 -15 -1 -26q0 -27 5 -45.5t19 -18.5q18 0 51 16t41 16q9 0 17.5 -8.5t8.5 -26.5q0 -33 -60 -60q-7 -3 -48 -19q-18 -6 -38 -6q-66 0 -95 50
q-23 40 -23 110l3 54q0 22 -3 66t-3 67l-3 1q-6 0 -15 -15q-3 -5 -11 -21l-21 -40q-11 -26 -20 -62q-3 -11 -22 -109q-3 -16 -4 -24t-1 -26q0 -14 -12 -21.5t-26 -7.5q-20 0 -37.5 2.5t-29.5 9.5q-19 10 -19 40l2 33l1 84l1 69l-2 51q-10 0 -20 -16q-2 -3 -14.5 -26
t-25.5 -47q-4 -10 -9.5 -33t-7.5 -33l-15 -69q-8 -49 -9 -53q-10 -34 -33 -34q-9 0 -25 5q-2 1 -14 5q-23 8 -31 29t-8 47q0 21 3 64t3 65q0 39 4 77.5t11 81.5q1 31 3 62q6 29 49 36l22 2q23 0 31.5 -13t8.5 -36q0 -20 -2 -35t-3 -25l21 33l-1 4q12 7 23 9.5t23 2.5
q17 0 27.5 -2t15.5 -2q34 -6 49.5 -18.5t25.5 -39.5z" />
    <glyph glyph-name="n" unicode="n" horiz-adv-x="482" 
d="M185 345q26 43 46 58.5t42 15.5q13 0 24.5 -3t40.5 -14q43 -16 68.5 -50.5t25.5 -81.5q0 -12 -2 -42t-2 -32v-27.5t1 -26.5v-16q-2 -12 -2 -17q0 -4 7 -5q5 -1 7 0q14 0 44 16.5t39 16.5q16 0 23.5 -11t7.5 -25q0 -24 -29 -48q-16 -14 -49 -30q-12 -6 -23.5 -8t-25.5 -2
q-54 0 -81 19q-31 22 -43 75l-3 27q0 25 3.5 76t3.5 70q0 22 -12 35q-15 -2 -24 -11t-23 -43l-20 -47q-10 -24 -23 -73t-17.5 -82t-9.5 -45q-12 -29 -38 -29q-11 0 -25 5t-30 13t-22 19.5t-6 32.5l3 40q1 6 1 18q0 5 -0.5 12.5t-0.5 17.5l6 82q0 31 2.5 79t2.5 56q0 39 8 59
q12 31 47 31q27 0 43 -7q25 -11 25 -35q0 -6 -1.5 -13t-2.5 -10z" />
    <glyph glyph-name="o" unicode="o" horiz-adv-x="448" 
d="M385 252q11 1 18 11.5t17 44.5q3 11 7 19.5t10 22.5t13.5 23t23.5 9q18 0 26 -15t8 -31t-8 -41.5t-17 -43.5q-21 -47 -38 -67q-26 -30 -66 -38q-7 -31 -11 -46q-7 -28 -17 -45q-23 -41 -52 -58t-76 -17q-21 0 -31.5 1t-28.5 7q-40 13 -64 35t-59 101q-8 18 -9.5 38.5
t-1.5 37.5v11q0 33 8 68t13.5 49t21 41t17.5 30q4 5 27 24.5t30 23.5q14 8 37 8q40 0 79 -31q4 -3 41 -37l25 -18q21 -13 37.5 -49.5t19.5 -67.5zM263 233q-11 17 -16 25q-9 15 -12 27l1 -3q-2 7 -5 27t-3 31l-10 3q-15 0 -30 -26q-6 -10 -19 -41q-17 -46 -17 -104
q0 -27 3.5 -48.5t14.5 -37.5q8 -12 17.5 -19.5t21.5 -7.5q23 0 40 32q5 10 21 54q3 11 7 24t4 21q0 14 -18 43z" />
    <glyph glyph-name="p" unicode="p" horiz-adv-x="465" 
d="M394 106q-25 -36 -47 -48t-67 -18h-18q-38 0 -76 16q-4 -29 -4 -66v-10v-22v-19v-17v-15v-13q0 -19 -0.5 -38t-0.5 -39v-11v-61q-15 -10 -37 -16.5t-38 -6.5q-17 0 -28 6t-17 24v21t1 19q-4 51 -4 114v16v136q0 9 1 18t2 19l-2 22q0 18 2 40.5t5 46.5q-1 24 -2 49l8 154
q0 10 2.5 28.5t5 42t9.5 37.5q12 26 44 26q12 0 34 -4.5t29.5 -19t7.5 -39.5q0 -38 -5 -85l26 24q16 16 27.5 21t34.5 5q75 0 114 -48q36 -45 36 -126q0 -42 -11 -87.5t-32 -75.5zM309 289l-3 41q0 22 -7 22q-29 0 -63 -75q-26 -56 -38 -108q3 -19 19 -33t35 -14q21 0 34 24
q7 13 17 45q4 14 5 26.5t1 30.5v41z" />
    <glyph glyph-name="q" unicode="q" horiz-adv-x="457" 
d="M391 222v-47l-5 -72q0 -37 -1 -61q-4 -94 -4 -105l-6 -96v-39t1 -40q0 -12 5 -17q3 -3 18 -10q-34 -36 -66 -36q-14 0 -29 10q-9 6 -25 22q-8 8 -13 23.5t-5 40.5l-3 115q0 34 2 64t6 70l-17 -25q-23 -38 -70 -38q-18 0 -35.5 4.5t-36.5 12.5q-40 17 -58 56
q-12 27 -18 78l-2 45q0 7 1.5 15.5t2.5 13.5q14 91 31 132.5t45 73.5q18 20 40 33q26 16 51 16q19 0 48 -16q12 -7 44 -28q18 -13 30 -38l19 3q30 0 44 -10.5t14 -43.5q0 -18 -4 -53t-4 -53zM251 207l1 6q2 12 6.5 28t9.5 30l3 10l-4 13q-3 16 -4.5 25t-6.5 22q-6 11 -14 11
q-27 0 -47 -30q-6 -10 -26 -56q-12 -28 -17.5 -66.5t-5.5 -78.5q-1 -13 -1 -21q0 -18 3.5 -29.5t13.5 -11.5q9 0 37 42q23 35 29.5 49t12 31t11.5 33zM251 213l-1 -6z" />
    <glyph glyph-name="r" unicode="r" horiz-adv-x="280" 
d="M175 366l5 6q25 29 57 29q19 0 34.5 -5t24.5 -21q4 -7 8.5 -18t4.5 -26q0 -22 -14.5 -35.5t-33.5 -13.5q-13 0 -26 8q-32 -51 -45.5 -106t-13.5 -124q0 -5 -3.5 -19.5t-3.5 -22.5l1 -18q0 -12 -11 -16.5t-23 -4.5q-56 0 -70 26q-8 15 -8 77v9l1 30v119l4 114q0 41 5 63
q10 42 35 42l40 2q20 0 26.5 -10t6.5 -28q-1 -15 -1 -22v-35z" />
    <glyph glyph-name="s" unicode="s" horiz-adv-x="398" 
d="M309 -1q-13 -8 -26.5 -10.5t-32.5 -2.5q-53 0 -92 12.5t-95 41.5q-17 9 -27 18q-15 14 -15 31q0 16 16.5 33.5t30.5 17.5q8 0 26 -13q12 -10 23.5 -18t56.5 -20q26 -7 32 -7q19 0 19 12t-25 30q-18 13 -38 23q-6 4 -13 9q-1 1 -20 18q-6 5 -18.5 12.5t-18.5 10.5
q-20 13 -35.5 47t-15.5 61q0 28 10 50.5t30 45.5q29 34 65 45q24 7 77 7q18 0 42 -5t50 -9.5t38.5 -19.5t12.5 -47q0 -17 -6 -27q-9 -15 -27 -15q-12 0 -24 4q-33 11 -40 11q-35 0 -55 -8q-31 -12 -31 -42t50 -63q32 -20 42 -26l35 -27q30 -24 41 -39q17 -24 17 -57
q0 -21 -13 -42t-46 -42z" />
    <glyph glyph-name="t" unicode="t" horiz-adv-x="324" 
d="M343 51l-35 -22q-49 -29 -68.5 -37.5t-38.5 -8.5q-33 0 -57.5 11.5t-44.5 37.5q-9 12 -17.5 32t-8.5 34q0 27 -2.5 41.5t-3.5 34.5t-1 21q0 15 0.5 32.5t1.5 36.5q0 19 2 61.5t2 45.5v12q-45 8 -60 14q-41 15 -41 41q0 21 20.5 27.5t46.5 6.5l42 6q3 14 4 36.5t1 42.5
q0 26 12 43.5t38 17.5q40 0 53 -3q35 -8 35 -34q0 -7 -5.5 -13.5t-7.5 -9.5q-1 -2 -1.5 -10.5t-0.5 -12.5v-13l1 -32q9 -3 22.5 -4t25.5 -1q19 0 38.5 -19.5t19.5 -39.5q0 -14 -11 -22.5t-37 -8.5q-37 -3 -69 -12q0 -27 -2 -59q-5 -80 -5 -99q0 -25 2.5 -65t2.5 -46
q0 -18 3 -27.5t16 -9.5q16 0 62 26t59 26q14 0 22.5 -11.5t8.5 -24.5t-6 -22.5t-18 -19.5z" />
    <glyph glyph-name="u" unicode="u" horiz-adv-x="475" 
d="M304 82q-15 -42 -31 -64q-25 -34 -59 -34q-28 0 -59 5.5t-48 18.5q-28 21 -40 74q-8 36 -8 88l-2 51l3 61l10 100q0 42 11.5 54.5t38.5 12.5q23 0 48 -7.5t28 -24.5q-16 -106 -16 -212v-66q2 -38 10 -65q24 27 40 60q7 14 25 64t20 55q11 30 16.5 64t8.5 42q14 39 71 39
q26 0 40.5 -12.5t14.5 -40.5q0 -16 -7.5 -38t-9.5 -28q-1 -4 -2 -38t-1 -55v-26q0 -30 4.5 -53.5t21.5 -23.5q5 0 52 39q23 19 42 19q11 0 19.5 -9.5t8.5 -20.5q0 -20 -22 -42q-18 -18 -36 -35q-13 -14 -40 -25t-46 -11q-51 0 -81 39q-6 8 -12.5 20.5t-12.5 24.5z" />
    <glyph glyph-name="v" unicode="v" horiz-adv-x="336" 
d="M265 87q-23 -54 -30 -66q-24 -39 -55 -39q-8 0 -18 2t-19 5q-33 9 -50 40q-5 9 -24 63q-12 36 -18 53q-9 28 -16 55l-2 3q-4 7 -8.5 20.5t-6.5 25.5q-7 20 -18 65q-14 56 -14 71q0 27 18 40q7 5 39 17q15 6 23.5 8t21.5 2q7 0 19 -5.5t12 -13.5l-2 -56q0 -14 12 -49
q5 -15 9.5 -29t6.5 -22.5t7 -18.5q9 -16 12.5 -29.5t6.5 -25.5t7 -25t6 -19q6 14 10.5 28t11.5 34l21 54v-4q2 15 13.5 52t28.5 81q4 10 12.5 14.5t18.5 4.5q26 0 38 -19.5t12 -44.5q0 -35 -34 -135q-20 -59 -51 -137z" />
    <glyph glyph-name="w" unicode="w" horiz-adv-x="571" 
d="M555 297l-17 -62q-17 -57 -25 -85q-14 -49 -27 -84q-17 -45 -36.5 -62t-42.5 -17q-20 0 -41 7.5t-30.5 19.5t-20.5 45.5t-14 47.5l-12 34l-5 17q-11 -32 -16 -48q-10 -29 -15 -48q-11 -42 -16 -51q-15 -27 -44 -27h-16t-16 -1q-30 0 -43 6q-20 9 -30 36l-11 36
q-10 43 -16.5 77t-13.5 85l-11 55l-10 92q-2 6 -7.5 25t-5.5 23q0 16 29.5 24t51.5 8q20 0 38 -6t27 -22l-10 -60q0 -17 3.5 -40.5t8.5 -54t12 -70.5q1 -4 11 -48q7 16 7 33q3 25 9 48q2 9 26 78q7 21 15 42q11 23 58 31q7 1 14 2.5t16 1.5q22 0 31 -13q6 -9 11 -34l19 -93
q4 -19 10 -43q2 -6 12 -44l2 5l8 39l11 27l13 44l16 45q13 46 27 92q7 13 20 13q6 0 15.5 -4.5t15.5 -10.5q12 -10 18 -19.5t6 -25.5q0 -25 -9 -66z" />
    <glyph glyph-name="x" unicode="x" horiz-adv-x="452" 
d="M167 97q-9 -18 -20 -35.5t-24 -36.5q-8 -11 -11 -18l-9 -21t-11 -10q-5 -2 -12 -2q-21 0 -42.5 20.5t-21.5 43.5q0 15 7 27q11 15 16 23l66 98q-5 16 -18 41q-9 18 -13.5 26.5t-16.5 36.5l-16 38q-12 21 -17 30q-10 18 -10 34q0 14 7.5 23t20.5 15t31.5 13t30.5 7
q20 0 30 -15q5 -8 14 -33q20 -57 21 -60q8 -16 22 -31q5 7 14 20t18 24l69 87q12 14 23.5 22t26.5 8q21 0 44.5 -12.5t23.5 -33.5q0 -12 -11.5 -23.5l-14.5 -14.5l-23 -23q-18 -18 -43 -53q-18 -26 -41 -61l-34 -40q10 -35 38 -69q32 -38 59 -38q25 0 65.5 31.5t52.5 31.5
t21 -7.5t9 -21.5q0 -16 -21 -39q-14 -15 -35 -33q-30 -27 -57 -40q-34 -17 -68 -17q-31 0 -61 14q-34 17 -47 28q-21 18 -32 46z" />
    <glyph glyph-name="y" unicode="y" horiz-adv-x="477" 
d="M186 332q0 -19 -2 -65t-2 -49q0 -33 0.5 -66t6.5 -33q7 0 17 16q3 4 12 23q13 28 21 46q15 34 17 46l34 136q6 56 12 68q11 20 33 20q12 0 33 -5t35.5 -12.5t14.5 -27.5q0 -18 -3 -39.5t-7 -52t-6 -93t-2 -118.5l-2 -52q0 -10 -1 -16q-4 -25 -4 -27l2 -60
q0 -16 -2.5 -34.5t-2.5 -25.5q-1 -10 -1.5 -22t-0.5 -18v-13q0 -12 -4.5 -23.5t-18.5 -30.5q-18 -24 -50 -34.5t-63 -10.5q-30 0 -55.5 9.5t-58.5 28.5q-20 12 -46 34q-33 28 -33 42t8.5 19t19.5 5q35 0 76 -21t84 -43q17 0 20 26l13 102l3 72l5 58q-23 -31 -48 -48
q-32 -22 -65 -22q-35 0 -63 19.5t-36.5 50t-13 76t-4.5 82.5q0 52 2.5 81t14.5 65q5 17 15.5 26.5t28.5 9.5q23 0 49 -18.5t26 -43.5q0 -8 -3 -18t-5 -19z" />
    <glyph glyph-name="z" unicode="z" horiz-adv-x="392" 
d="M347 344l-26 -34q-25 -30 -65 -94q-36 -58 -61 -103l81 9q9 1 17 2.5t19 1.5q52 0 52 -56q0 -12 -6 -23t-19 -13q-57 -9 -113 -17l-64 -16q-26 -6 -39.5 -8.5t-24.5 -2.5q-22 0 -45.5 22.5t-23.5 46.5q0 22 16 56q10 22 28 49.5t37 55.5q9 16 19 31t21 30q17 24 35 49
l2 3h-13q-13 0 -34.5 -2.5t-27.5 -2.5q-33 0 -51 8q-29 13 -29 43q0 19 15.5 33t96.5 25q46 6 58 7l34 6q7 1 15.5 1.5t12.5 0.5q9 0 18.5 -0.5t18.5 -0.5q19 0 30.5 -10t22 -25t10.5 -29q0 -10 -4 -20t-13 -23z" />
    <glyph glyph-name="braceleft" unicode="{" horiz-adv-x="417" 
d="M172 268q33 -20 46.5 -48t13.5 -70l-3 -138l-3 -69q0 -39 35 -39q12 0 44 5.5t43 5.5q15 0 26.5 -10.5t11.5 -27.5q0 -18 -11 -25.5t-29 -7.5q-24 0 -71 -8t-71 -8q-40 0 -63 18q-27 21 -27 63q0 29 2.5 74t2.5 53l-1 90q0 39 -8 56t-37 30q-18 8 -27.5 27.5t-9.5 39.5
q0 24 41 46t41 67q0 35 2.5 89.5t2.5 61.5q0 92 29 119t116 27q10 0 40 3.5t45 3.5q13 0 23.5 -7t10.5 -24t-10 -25t-43 -11l-38 -4q-35 -4 -47.5 -17.5t-12.5 -49.5l-3 -172q0 -44 -9 -67.5t-43 -45.5z" />
    <glyph glyph-name="bar" unicode="|" horiz-adv-x="500" 
d="M202 -177v854h97v-854h-97z" />
    <glyph glyph-name="braceright" unicode="}" horiz-adv-x="417" 
d="M185 375l3 136l3 71q0 39 -37 39q-16 0 -32 -3q-47 -9 -52 -9q-16 0 -27 11t-11 28q0 21 14 26.5t26 5.5q10 0 22 2l24 4q32 5 54 8t41 3q40 0 65 -19.5t25 -61.5q0 -29 -1 -47q-4 -72 -4 -80l1 -89q0 -39 8 -57t36 -31q19 -8 28.5 -26t9.5 -40q0 -24 -41 -46t-41 -67
q0 -35 -1 -57q-4 -87 -4 -95q0 -93 -28.5 -119.5t-116.5 -26.5q-10 0 -53 -5q-17 -2 -32 -2q-13 0 -23.5 7t-10.5 24q0 22 18 30q8 3 36 6l37 4q36 4 48.5 17.5t12.5 50.5l3 95l-1 81q0 41 10 64.5t42 43.5l9 5q-32 23 -46 50t-14 69z" />
    <glyph glyph-name="asciitilde" unicode="~" horiz-adv-x="667" 
d="M423 571q-35 0 -100 30t-92 30q-22 0 -38.5 -18.5t-34.5 -53.5l-69 46q32 71 55 97q37 42 95 42q36 0 78 -18q99 -42 116 -42q24 0 39.5 15t35.5 50l70 -42q-30 -65 -59 -95q-40 -41 -96 -41z" />
    <glyph glyph-name="Adieresis" unicode="&#xc4;" 
d="M490 756q-27 0 -45 19t-18 45q0 28 31 54t57 26q22 0 35 -24q6 -11 15 -44l2 -16q0 -28 -26 -44t-51 -16zM315 756q-26 0 -44 19t-18 45q0 28 31 54t56 26q22 0 35 -24q6 -11 15 -44l3 -16q0 -27 -29 -45q-25 -15 -49 -15zM665 46q-21 -18 -45.5 -29.5t-49.5 -11.5
q-15 0 -27 3.5t-27 12.5q-41 23 -51.5 38.5t-21.5 66.5l-4 -7q-38 -69 -66 -98q-46 -47 -104 -47q-30 0 -78.5 12t-68.5 27q-3 2 -23 19t-24 22q-27 28 -40 98q-9 50 -9 107q0 16 3 39q0 3 7 48t11 62.5t20 68.5q4 15 8 31l21 44l13 32q7 16 19 33.5t26 33.5q35 46 64 67
q40 29 88 29t76 -14q21 -10 63 -48l14 -12q14 11 31.5 15.5t37.5 4.5q31 0 45.5 -10t14.5 -26q0 -8 -1.5 -18t-2.5 -15q-7 -38 -10.5 -74t-3.5 -80q0 -9 -2 -27t-2 -27q0 -16 -2.5 -44.5t-2.5 -34.5v-94l2 -93l-1 -17q0 -16 2 -24.5t12 -8.5q17 0 34 5.5t44 16.5l22 7
q12 0 18.5 -9.5t7.5 -19.5q0 -14 -13 -30q-8 -11 -24 -24zM414 599q-14 16 -26.5 24t-27.5 8q-27 0 -59 -33q-19 -19 -45 -56q-22 -31 -39 -72q-12 -29 -27 -77q-4 -14 -6.5 -38.5t-7 -49t-7.5 -43t-3 -33.5q0 -11 1 -23q0 -1 4.5 -41.5t6.5 -50.5q11 -45 40 -45
q21 0 39.5 10.5t39.5 30.5q53 50 82.5 105.5t43.5 129.5q4 20 6 34.5t7 25.5q1 4 2.5 39t1.5 60q0 32 -1 40q-4 31 -25 55z" />
    <glyph glyph-name="Aring" unicode="&#xc5;" 
d="M390 754q-37 0 -66 23q-32 26 -32 65q0 40 30.5 64t68.5 24q37 0 67.5 -24t30.5 -64t-30.5 -64t-68.5 -24zM390 865q-8 0 -15 -7t-7 -16t6 -16t15 -7q8 0 16 7t8 16t-7 16t-16 7zM667 46q-21 -18 -45.5 -29.5t-49.5 -11.5q-15 0 -27 3.5t-27 12.5q-41 23 -51.5 38.5
t-21.5 66.5l-4 -7q-38 -69 -66 -98q-46 -47 -104 -47q-30 0 -78.5 12t-68.5 27q-3 2 -23 19t-24 22q-27 28 -40 98q-9 50 -9 107q0 16 3 39q0 3 7 48t11 62.5t20 68.5q4 15 8 31l21 44l13 32q7 16 19 33.5t26 33.5q35 46 64 67q40 29 88 29t76 -14q21 -10 63 -48l14 -12
q14 11 31.5 15.5t37.5 4.5q31 0 45.5 -10t14.5 -26q0 -8 -1.5 -18t-2.5 -15q-7 -38 -10.5 -74t-3.5 -80q0 -9 -2 -27t-2 -27q0 -16 -2.5 -44.5t-2.5 -34.5v-94l2 -93l-1 -17q0 -16 2 -24.5t12 -8.5q17 0 34 5.5t44 16.5l22 7q12 0 18.5 -9.5t7.5 -19.5q0 -14 -13 -30
q-8 -11 -24 -24zM416 599q-14 16 -26.5 24t-27.5 8q-27 0 -59 -33q-19 -19 -45 -56q-22 -31 -39 -72q-12 -29 -27 -77q-4 -14 -6.5 -38.5t-7 -49t-7.5 -43t-3 -33.5q0 -11 1 -23q0 -1 4.5 -41.5t6.5 -50.5q11 -45 40 -45q21 0 39.5 10.5t39.5 30.5q53 50 82.5 105.5
t43.5 129.5q4 20 6 34.5t7 25.5q1 4 2.5 39t1.5 60q0 32 -1 40q-4 31 -25 55z" />
    <glyph glyph-name="Ccedilla" unicode="&#xc7;" horiz-adv-x="634" 
d="M462 690q56 -45 82 -121q22 -65 22 -148q0 -32 -11 -71l-21 -2l-24 3q-42 13 -57.5 31.5t-22.5 64.5q-1 7 -2 21.5t-1 27.5v17l-3 55q0 32 -1 37q-6 31 -45 31q-12 0 -27.5 -2t-28.5 -4q-47 -7 -81 -64q-18 -30 -43 -103q-19 -57 -29 -113t-10 -115l3 -42q9 -47 25 -65
t61 -33q22 -7 50 -7q39 0 68 11.5t68 38.5q13 8 30 22q10 8 28 24l25 18q16 11 28 23q8 8 26 29q6 6 13 6q17 0 30 -15t13 -32q0 -22 -17 -47q-8 -11 -34 -40q-57 -64 -115 -101q-74 -47 -145 -47q-22 0 -38 2.5t-40 10.5q-53 17 -85 41q-26 19 -67 69q-29 34 -43 76.5
t-14 88.5l1 72q0 33 9 75q6 27 19 73q17 62 38 106q27 57 62.5 93.5t61.5 51.5q32 18 77 18q23 0 37.5 -3t34.5 -13q12 -5 50.5 -24.5t42.5 -24.5zM296 -181q-12 -27 -40 -27q-22 0 -36.5 18.5t-14.5 41.5q0 21 26 76q10 22 21 44h110z" />
    <glyph glyph-name="Eacute" unicode="&#xc9;" horiz-adv-x="713" 
d="M481 807q-55 -22 -64 -26q-51 -20 -62 -20q-21 0 -36 15t-15 37q0 36 34 50q38 17 64 27q49 20 61 20q22 0 37 -15t15 -38q0 -36 -34 -50zM657 112q-31 -21 -36 -25q-28 -18 -60 -32q-12 -5 -21 -9.5t-24 -13.5l-19 -6l-18 -5q-22 -8 -43 -16l-70 -14q-33 -9 -68 -9
q-28 0 -64 6.5t-60 18.5q-5 2 -23 11.5t-22 13.5l-21 21q-20 19 -28 28q-13 15 -23 32t-16.5 36.5t-6.5 37.5q0 25 10 49.5t26 46.5q25 33 70 58q32 18 87 38q-96 22 -136 61q-35 34 -35 84q0 57 50 102q33 30 100 61q32 15 74 31q19 7 62 23q9 4 80 12t84 8q54 0 95.5 -33
t41.5 -90q0 -34 -15 -59q-18 -30 -53 -30t-60 28t-25 64h-11q-28 0 -72 -12.5t-76.5 -26.5t-56.5 -25q-37 -17 -49 -27q-16 -14 -29 -24q-26 -22 -26 -26q0 -6 15 -9q49 -20 138 -26q46 -3 145 -3h25q16 0 24 3l11 2l14 5q7 0 21 -26t14 -35v-19q0 -36 -16 -45
q-4 -3 -54 -10.5t-131 -39.5q-8 -3 -83 -35q-24 -10 -46.5 -19.5t-43.5 -26.5l-25 -18q-20 -15 -29 -25q-16 -17 -16 -33q0 -31 51 -39q20 -3 50 -3h18q72 0 162.5 21t159.5 53l19 9.5t20 11.5t24 15q19 11 26 11q15 0 28.5 -13.5t13.5 -29.5q0 -17 -17 -37q-12 -14 -31 -27
z" />
    <glyph glyph-name="Ntilde" unicode="&#xd1;" horiz-adv-x="643" 
d="M402 765h-164q-21 0 -35 15t-14 37q0 21 14 37t35 16l165 -1q22 0 36 -15t14 -38q0 -22 -15.5 -36.5t-35.5 -14.5zM560 599l-3 -72q0 -10 1.5 -24t0.5 -19q0 -15 -2 -52.5t-2 -40.5v-21v-18q-2 -12 -2 -17q0 -35 -1 -70l-2 -70v-86l2 -86q-21 -14 -41 -19.5t-43 -5.5
q-33 0 -54 17q-16 13 -34 44q-30 50 -76 140q-32 62 -44 87l-55 122q0 -23 -3 -71t-3 -72v-108l2 -129q0 -5 2 -18t2 -14q0 -27 -25 -42q-21 -12 -45 -12q-28 0 -42 19t-14 47q0 32 2 108t2 81v66l2 132q0 16 1 40t4 35l-2 58q0 33 1 47q6 54 8 80q0 27 9.5 44.5t32.5 21
t40 5t33 1.5q21 0 31 -8t15 -29q3 -30 7 -60q4 -15 7 -24q1 -4 15 -40l12 -37q15 -43 34 -87q25 -57 70 -140l42 -78l-3 64l3 115q0 19 -0.5 37.5t-0.5 37.5v11l4 46q0 48 2.5 98t11.5 74q5 14 15.5 23t27.5 9q15 0 31 -5.5t25 -18.5v-16v-14v-11q0 -17 -0.5 -33.5
t-0.5 -32.5v-9z" />
    <glyph glyph-name="Odieresis" unicode="&#xd6;" horiz-adv-x="714" 
d="M445 756q-26 0 -44 20t-18 46q0 27 31 53t57 26q22 0 35 -24q6 -11 15 -44l2 -15q0 -29 -28 -47q-23 -15 -50 -15zM272 756q-26 0 -44.5 20.5t-18.5 47.5t31 52t57 25q22 0 35 -24q6 -11 15 -44l2 -16q0 -28 -28 -46q-23 -15 -49 -15zM677 268q-11 -50 -21 -76.5
t-35 -68.5q-8 -14 -16.5 -28.5t-30.5 -34.5l-31 -26q-34 -28 -88.5 -42t-104.5 -14q-43 0 -86 18q-31 13 -76 42l-71 48q-9 5 -26 32.5t-21 34.5q-21 37 -30.5 89t-9.5 102q0 60 14 118q11 47 37 111q13 30 21 47q12 24 28 43q30 37 76 61.5t93 24.5q30 0 51 -10
q37 -17 47 -19.5t23 -11.5t26 -17q33 -16 67 -32q39 -20 62 -40q32 -27 38 -33q22 -22 44 -69q11 -25 17 -48.5t9 -52.5l3 -51q0 -41 -1.5 -56t-7.5 -41zM392 627q-27 5 -47 5q-52 0 -85 -38q-25 -28 -50 -92q-8 -21 -13 -34q-10 -26 -10 -34q0 -26 -9 -95q-5 -38 -5 -58
q0 -47 12 -88.5t40 -70.5q24 -26 52 -40.5t61 -14.5q51 0 96 36q36 29 69 84q21 35 34 84t13 92q0 87 -40 163q-46 87 -118 101z" />
    <glyph glyph-name="Udieresis" unicode="&#xdc;" horiz-adv-x="688" 
d="M472 754q-26 0 -43.5 18.5t-17.5 46.5l1 12q4 23 33.5 45.5t52.5 22.5q24 0 38 -31q11 -38 15 -51q0 -28 -29 -47q-25 -16 -50 -16zM299 753q-26 0 -44 19t-18 46q0 29 30.5 54.5t57.5 25.5q22 0 35 -24q6 -10 15 -44l2 -15q0 -29 -28 -47q-23 -15 -50 -15zM630 111
q28 11 33 13q22 8 34 8q15 0 28 -8.5t13 -26.5q0 -11 -9 -24.5t-20 -22.5q-21 -18 -40.5 -27.5t-44.5 -9.5q-52 0 -88.5 34t-45.5 87l-6 37l-6 -10q-4 -7 -27 -53q-18 -35 -31 -52q-32 -41 -64.5 -58.5t-83.5 -17.5q-11 0 -18 1t-20 4q-60 16 -80.5 31.5t-50.5 69.5
q1 5 -3.5 20.5t-7.5 28.5q-11 45 -15.5 98.5t-4.5 110.5q0 111 19 217q4 28 9 59.5t10.5 54.5t15.5 37.5t27.5 18.5t22.5 5q7 1 21 1q22 0 39.5 -10.5t17.5 -35.5q-11 -36 -19.5 -81.5t-12.5 -87.5q-6 -38 -8.5 -59t-2.5 -33l-3 -136q0 -49 3.5 -78t12 -63.5t19.5 -77.5
q6 -16 24 -16q12 0 27 10q24 18 60 84q19 35 50 102q4 9 8 17.5t8 22t20 62.5q21 65 26 108l7 63l13 101q4 45 24 61t65 16q29 0 39 -10t10 -31q0 -9 -4 -27.5t-4 -19.5l-8 -56q-14 -96 -14 -187q0 -92 4 -144q9 -110 32 -120z" />
    <glyph glyph-name="aacute" unicode="&#xe1;" horiz-adv-x="463" 
d="M357 526q-38 -16 -64 -26q-51 -20 -61 -20q-21 0 -36 15t-15 37q0 37 35 50q38 17 63 27q48 20 59 20q22 0 37 -15t15 -38q0 -18 -8.5 -30.5t-24.5 -19.5zM513 58q-16 -26 -36 -38t-49 -12q-75 0 -112 58l-22 -29q-20 -28 -42.5 -41.5t-55.5 -13.5q-168 0 -168 172
q0 28 1 48.5t5 43.5q0 1 10.5 40t20.5 59q33 61 62 83.5t62 22.5q24 0 60.5 -9t61.5 -20q35 -16 56 -50l11 1q21 0 33 -7.5t16 -19.5q-16 -39 -20 -78t-4 -100l-3 -54q0 -12 2.5 -21t10.5 -9q17 0 51.5 32.5t41.5 32.5q14 0 21 -11.5t7 -24.5q0 -16 -10 -36q-4 -8 -11 -19z
M256 359q-30 0 -53 -42q-8 -16 -18 -42q-4 -10 -9.5 -26.5t-8.5 -27.5t-5 -39.5t-2 -38.5v-14q0 -21 1.5 -34.5t5 -24t10.5 -11.5q11 0 22 12q5 5 17 23q37 55 44.5 75.5t18.5 88.5l9 66l2 10q0 10 -10.5 17.5t-23.5 7.5z" />
    <glyph glyph-name="agrave" unicode="&#xe0;" horiz-adv-x="463" 
d="M261 479q-14 0 -61 19q-32 13 -64.5 27t-32.5 51q0 22 15.5 37.5t37.5 15.5q9 0 41 -12.5t81 -34.5q35 -14 35 -50q0 -23 -15 -38t-37 -15zM514 58q-16 -26 -36 -38t-49 -12q-75 0 -112 58l-22 -29q-20 -28 -42.5 -41.5t-55.5 -13.5q-168 0 -168 172q0 28 1 48.5t5 43.5
q0 1 10.5 40t20.5 59q33 61 62 83.5t62 22.5q24 0 60.5 -9t61.5 -20q35 -16 56 -50l11 1q21 0 33 -7.5t16 -19.5q-16 -39 -20 -78t-4 -100l-3 -54q0 -12 2.5 -21t10.5 -9q17 0 51.5 32.5t41.5 32.5q14 0 21 -11.5t7 -24.5q0 -16 -10 -36q-4 -8 -11 -19zM257 359
q-30 0 -53 -42q-8 -16 -18 -42q-4 -10 -9.5 -26.5t-8.5 -27.5t-5 -39.5t-2 -38.5v-14q0 -21 1.5 -34.5t5 -24t10.5 -11.5q11 0 22 12q5 5 17 23q37 55 44.5 75.5t18.5 88.5l9 66l2 10q0 10 -10.5 17.5t-23.5 7.5z" />
    <glyph glyph-name="acircumflex" unicode="&#xe2;" horiz-adv-x="463" 
d="M314 480q-12 0 -51 16q-15 6 -30 13q-27 -11 -51 -20t-30 -9q-22 0 -37 15t-15 39q0 35 32 49q47 21 52 23q40 17 50 17t49 -16q3 -1 52 -23q31 -13 31 -49q0 -23 -15 -39t-37 -16zM515 58q-16 -26 -36 -38t-49 -12q-75 0 -112 58l-22 -29q-20 -28 -42.5 -41.5
t-55.5 -13.5q-168 0 -168 172q0 28 1 48.5t5 43.5q0 1 10.5 40t20.5 59q33 61 62 83.5t62 22.5q24 0 60.5 -9t61.5 -20q35 -16 56 -50l11 1q21 0 33 -7.5t16 -19.5q-16 -39 -20 -78t-4 -100l-3 -54q0 -12 2.5 -21t10.5 -9q17 0 51.5 32.5t41.5 32.5q14 0 21 -11.5t7 -24.5
q0 -16 -10 -36q-4 -8 -11 -19zM258 359q-30 0 -53 -42q-8 -16 -18 -42q-4 -10 -9.5 -26.5t-8.5 -27.5t-5 -39.5t-2 -38.5v-14q0 -21 1.5 -34.5t5 -24t10.5 -11.5q11 0 22 12q5 5 17 23q37 55 44.5 75.5t18.5 88.5l9 66l2 10q0 10 -10.5 17.5t-23.5 7.5z" />
    <glyph glyph-name="adieresis" unicode="&#xe4;" horiz-adv-x="463" 
d="M351 480q-25 0 -43.5 19.5t-18.5 46.5q0 29 30 53.5t57 24.5q21 0 34 -24q6 -12 15 -43l3 -16q0 -28 -28 -46q-23 -15 -49 -15zM179 479q-26 0 -43.5 19.5t-17.5 46.5v12q4 23 33.5 45t52.5 22t37 -31q3 -8 15 -51q0 -29 -26.5 -46t-50.5 -17zM514 57q-16 -26 -36 -38
t-49 -12q-75 0 -112 58l-22 -29q-20 -28 -42.5 -41.5t-55.5 -13.5q-168 0 -168 172q0 28 1 48.5t5 43.5q0 1 10.5 40t20.5 59q33 61 62 83.5t62 22.5q24 0 60.5 -9t61.5 -20q35 -16 56 -50l11 1q21 0 33 -7.5t16 -19.5q-16 -39 -20 -78t-4 -100l-3 -54q0 -12 2.5 -21
t10.5 -9q17 0 51.5 32.5t41.5 32.5q14 0 21 -11.5t7 -24.5q0 -16 -10 -36q-4 -8 -11 -19zM257 358q-30 0 -53 -42q-8 -16 -18 -42q-4 -10 -9.5 -26.5t-8.5 -27.5t-5 -39.5t-2 -38.5v-14q0 -21 1.5 -34.5t5 -24t10.5 -11.5q11 0 22 12q5 5 17 23q37 55 44.5 75.5t18.5 88.5
l9 66l2 10q0 10 -10.5 17.5t-23.5 7.5z" />
    <glyph glyph-name="atilde" unicode="&#xe3;" horiz-adv-x="463" 
d="M314 484h-164q-21 0 -35 15t-14 37q0 21 14 37t35 16l165 -1q22 0 36 -15t14 -38q0 -22 -15.5 -36.5t-35.5 -14.5zM514 58q-16 -26 -36 -38t-49 -12q-75 0 -112 58l-22 -29q-20 -28 -42.5 -41.5t-55.5 -13.5q-168 0 -168 172q0 28 1 48.5t5 43.5q0 1 10.5 40t20.5 59
q33 61 62 83.5t62 22.5q24 0 60.5 -9t61.5 -20q35 -16 56 -50l11 1q21 0 33 -7.5t16 -19.5q-16 -39 -20 -78t-4 -100l-3 -54q0 -12 2.5 -21t10.5 -9q17 0 51.5 32.5t41.5 32.5q14 0 21 -11.5t7 -24.5q0 -16 -10 -36q-4 -8 -11 -19zM257 359q-30 0 -53 -42q-8 -16 -18 -42
q-4 -10 -9.5 -26.5t-8.5 -27.5t-5 -39.5t-2 -38.5v-14q0 -21 1.5 -34.5t5 -24t10.5 -11.5q11 0 22 12q5 5 17 23q37 55 44.5 75.5t18.5 88.5l9 66l2 10q0 10 -10.5 17.5t-23.5 7.5z" />
    <glyph glyph-name="aring" unicode="&#xe5;" horiz-adv-x="463" 
d="M275 480q-37 0 -65 22q-31 25 -31 65t29.5 64t67.5 24q37 0 67.5 -23.5t30.5 -63.5t-30.5 -64t-68.5 -24zM276 590q-22 0 -22 -22q0 -23 22 -23t22 22q0 23 -22 23zM514 58q-16 -26 -36 -38t-49 -12q-75 0 -112 58l-22 -29q-20 -28 -42.5 -41.5t-55.5 -13.5
q-168 0 -168 172q0 28 1 48.5t5 43.5q0 1 10.5 40t20.5 59q33 61 62 83.5t62 22.5q24 0 60.5 -9t61.5 -20q35 -16 56 -50l11 1q21 0 33 -7.5t16 -19.5q-16 -39 -20 -78t-4 -100l-3 -54q0 -12 2.5 -21t10.5 -9q17 0 51.5 32.5t41.5 32.5q14 0 21 -11.5t7 -24.5q0 -16 -10 -36
q-4 -8 -11 -19zM257 359q-30 0 -53 -42q-8 -16 -18 -42q-4 -10 -9.5 -26.5t-8.5 -27.5t-5 -39.5t-2 -38.5v-14q0 -21 1.5 -34.5t5 -24t10.5 -11.5q11 0 22 12q5 5 17 23q37 55 44.5 75.5t18.5 88.5l9 66l2 10q0 10 -10.5 17.5t-23.5 7.5z" />
    <glyph glyph-name="ccedilla" unicode="&#xe7;" horiz-adv-x="403" 
d="M395 43q-30 -24 -74.5 -44t-79.5 -20q-14 0 -27.5 2.5t-34.5 7.5q-49 15 -70 28q-32 19 -54 57q-15 24 -20.5 51t-5.5 59q0 20 1.5 34.5t9 69t15 73t35.5 52.5q18 23 31 32q20 14 42 14q37 0 66.5 -9.5t56 -32.5t40.5 -49q11 -20 22 -58q5 -14 7.5 -24.5t2.5 -22.5
q0 -43 -9 -66q-14 -35 -50 -35q-11 0 -21 2.5t-22.5 8t-21.5 18.5t-12 36t-5 44t-2 39v21.5t2 23.5h-6q-14 0 -25 -33q-7 -21 -8 -26q-8 -25 -13 -49.5t-5 -48.5l3 -77q4 -30 9 -40q9 -19 32 -19q20 0 47 7t69 27q20 10 30 14q19 9 29 17q19 15 23 18q17 12 24 12
q14 0 21.5 -9.5t7.5 -22.5q0 -19 -23 -46q-15 -17 -37 -36zM190 -174q-14 -27 -41 -27q-24 0 -36 18t-12 43q0 24 25 76l21 42h108z" />
    <glyph glyph-name="eacute" unicode="&#xe9;" horiz-adv-x="397" 
d="M322 526q-31 -13 -63 -26q-50 -20 -60 -20q-21 0 -36 15t-15 37q0 36 34 50q38 17 63 27q48 20 60 20q22 0 36.5 -15.5t14.5 -37.5q0 -36 -34 -50zM427 111l-22 -29q-23 -29 -49 -48q-18 -13 -59 -33q-17 -9 -43 -15.5t-46 -6.5q-24 0 -51 11q-11 4 -47 25q-52 30 -69 84
q-11 35 -11 109l2 55q7 54 12 76q9 35 30 72q14 24 28 37q20 18 44 18q32 0 77 -17t79 -40q28 -19 44 -45.5t16 -60.5q0 -27 -15.5 -55.5t-36.5 -44.5q-29 -22 -42.5 -28.5t-46.5 -15.5q-13 -3 -30.5 -7t-39.5 -4l-1 -12q0 -38 7.5 -52.5t35.5 -14.5q29 0 41 4q15 7 25 11
q37 16 60 31q28 18 51 47q10 14 15 18q10 9 21 9q16 0 25.5 -12.5t9.5 -27.5q0 -9 -4 -18.5t-10 -19.5zM225 368q-31 0 -51 -52q-16 -42 -16 -86q38 4 66 33t28 69q0 36 -27 36z" />
    <glyph glyph-name="egrave" unicode="&#xe8;" horiz-adv-x="397" 
d="M227 479q-13 0 -59 19q-32 13 -64.5 27t-32.5 51q0 22 15.5 37.5t36.5 15.5q13 0 59 -19q25 -10 62 -28q34 -14 34 -50q0 -23 -14 -38t-37 -15zM427 111l-22 -29q-23 -29 -49 -48q-18 -13 -59 -33q-17 -9 -43 -15.5t-46 -6.5q-24 0 -51 11q-11 4 -47 25q-52 30 -69 84
q-11 35 -11 109l2 55q7 54 12 76q9 35 30 72q14 24 28 37q20 18 44 18q32 0 77 -17t79 -40q28 -19 44 -45.5t16 -60.5q0 -27 -15.5 -55.5t-36.5 -44.5q-29 -22 -42.5 -28.5t-46.5 -15.5q-13 -3 -30.5 -7t-39.5 -4l-1 -12q0 -38 7.5 -52.5t35.5 -14.5q29 0 41 4q15 7 25 11
q37 16 60 31q28 18 51 47q10 14 15 18q10 9 21 9q16 0 25.5 -12.5t9.5 -27.5q0 -9 -4 -18.5t-10 -19.5zM225 368q-31 0 -51 -52q-16 -42 -16 -86q38 4 66 33t28 69q0 36 -27 36z" />
    <glyph glyph-name="ecircumflex" unicode="&#xea;" horiz-adv-x="397" 
d="M280 480q-13 0 -51 16q-15 6 -29 13q-27 -11 -51 -20t-30 -9q-22 0 -36.5 15.5t-14.5 38.5q0 34 31 49q46 21 52 23q40 17 49 17q10 0 49 -16q3 -1 52 -23q31 -13 31 -49q0 -23 -15 -39t-37 -16zM425 111l-22 -29q-23 -29 -49 -48q-18 -13 -59 -33q-17 -9 -43 -15.5
t-46 -6.5q-24 0 -51 11q-11 4 -47 25q-52 30 -69 84q-11 35 -11 109l2 55q7 54 12 76q9 35 30 72q14 24 28 37q20 18 44 18q32 0 77 -17t79 -40q28 -19 44 -45.5t16 -60.5q0 -27 -15.5 -55.5t-36.5 -44.5q-29 -22 -42.5 -28.5t-46.5 -15.5q-13 -3 -30.5 -7t-39.5 -4l-1 -12
q0 -38 7.5 -52.5t35.5 -14.5q29 0 41 4q15 7 25 11q37 16 60 31q28 18 51 47q10 14 15 18q10 9 21 9q16 0 25.5 -12.5t9.5 -27.5q0 -9 -4 -18.5t-10 -19.5zM223 368q-31 0 -51 -52q-16 -42 -16 -86q38 4 66 33t28 69q0 36 -27 36z" />
    <glyph glyph-name="edieresis" unicode="&#xeb;" horiz-adv-x="397" 
d="M277 480q-26 0 -43.5 19.5t-17.5 46.5q0 8 2 12q4 23 33 45t51 22q18 0 30 -19q9 -15 14 -36l3 -14l4 -15q0 -28 -28 -46q-23 -15 -48 -15zM106 480q-25 0 -43 20t-18 46q0 28 30 53.5t56 25.5q22 0 35 -24q6 -10 15 -44q2 -11 1 -15q0 -29 -28 -47q-23 -15 -48 -15z
M427 111l-22 -29q-23 -29 -49 -48q-18 -13 -59 -33q-17 -9 -43 -15.5t-46 -6.5q-24 0 -51 11q-11 4 -47 25q-52 30 -69 84q-11 35 -11 109l2 55q7 54 12 76q9 35 30 72q14 24 28 37q20 18 44 18q32 0 77 -17t79 -40q28 -19 44 -45.5t16 -60.5q0 -27 -15.5 -55.5t-36.5 -44.5
q-29 -22 -42.5 -28.5t-46.5 -15.5q-13 -3 -30.5 -7t-39.5 -4l-1 -12q0 -38 7.5 -52.5t35.5 -14.5q29 0 41 4q15 7 25 11q37 16 60 31q28 18 51 47q10 14 15 18q10 9 21 9q16 0 25.5 -12.5t9.5 -27.5q0 -9 -4 -18.5t-10 -19.5zM225 368q-31 0 -51 -52q-16 -42 -16 -86
q38 4 66 33t28 69q0 36 -27 36z" />
    <glyph glyph-name="iacute" unicode="&#xed;" horiz-adv-x="244" 
d="M247 526q-50 -21 -82 -33.5t-39 -12.5q-20 0 -35 15t-15 37q0 18 8.5 30.5t24.5 19.5q37 17 62 27q47 20 58 20q21 0 35.5 -15.5t14.5 -37.5q0 -37 -32 -50zM301 34l-15 -16l-17 -16q-40 -23 -84 -23q-48 0 -81 25.5t-40 75.5l-3 19q-1 3 -1 10q1 12 1 18q0 7 -2 22
t-2 24t2 32.5t2 25.5l2 37l4 39q6 42 21 56t54 14q13 0 29.5 -6t21.5 -19q-4 -21 -6.5 -46.5t-4.5 -48.5q0 -30 -1 -48q-4 -72 -4 -78v-15q0 -21 2.5 -37t10.5 -16q35 17 69.5 34t48.5 17q11 0 17.5 -10t5.5 -20q0 -11 -10 -25.5t-20 -24.5z" />
    <glyph glyph-name="igrave" unicode="&#xec;" horiz-adv-x="244" 
d="M152 479q-14 0 -60 19q-31 13 -63 27t-32 51q0 23 15 38t36 15q13 0 59 -19q52 -23 63 -28q32 -13 32 -50q0 -23 -14 -38t-36 -15zM300 34l-16 -16l-16 -16q-40 -23 -87 -23q-48 0 -81.5 26t-40.5 75l-3 19q-1 6 1 28q0 7 -2 22t-2 24t2 32.5t2 25.5l1 37q0 12 2 22.5
t3 16.5q6 42 21 56t54 14q14 0 30.5 -6t21.5 -19q-4 -21 -6.5 -46.5t-4.5 -48.5q0 -30 -1 -48q-4 -72 -4 -78v-15q0 -22 2.5 -37.5t11.5 -15.5q41 21 72.5 36t46.5 15q11 0 17.5 -10t5.5 -20q0 -11 -10 -25.5t-20 -24.5z" />
    <glyph glyph-name="icircumflex" unicode="&#xee;" horiz-adv-x="244" 
d="M204 480q-12 0 -50 16q-15 6 -30 13q-26 -11 -49 -20t-30 -9q-22 0 -36.5 15.5t-14.5 38.5q0 34 31 49q25 11 51 23q40 17 49 17q8 0 34 -10.5t65 -28.5q31 -13 31 -49q0 -23 -15 -39t-36 -16zM301 34l-16 -16l-17 -16q-40 -23 -85 -23q-49 0 -82.5 26t-40.5 75l-3 19
q-1 6 1 28q0 7 -2 22t-2 24t2 32.5t2 25.5l1 37q0 12 2 22.5t3 16.5q6 42 21 56t54 14q14 0 30.5 -6t21.5 -19q-4 -21 -6.5 -46.5t-4.5 -48.5q0 -30 -1 -48q-4 -72 -4 -78v-15q0 -22 2.5 -37.5t11.5 -15.5q41 21 72.5 36t46.5 15q11 0 17.5 -10t5.5 -20q0 -11 -10 -25.5
t-20 -24.5z" />
    <glyph glyph-name="idieresis" unicode="&#xef;" horiz-adv-x="244" 
d="M200 480q-25 0 -42.5 19.5t-17.5 46.5l1 12q3 22 33 44.5t52 22.5q18 0 30 -19q8 -13 13 -36l3 -14l5 -15q0 -28 -28 -46q-23 -15 -49 -15zM32 480q-26 0 -43.5 19.5t-17.5 46.5q0 28 30 53.5t56 25.5q21 0 34 -24q6 -12 14 -44l3 -15q0 -29 -28 -47q-23 -15 -48 -15z
M301 34l-16 -16l-17 -16q-40 -23 -86 -23q-49 0 -82.5 26t-40.5 75l-3 19q-1 6 1 28q0 7 -2 22t-2 24t2 32.5t2 25.5l1 37q0 12 2 22.5t3 16.5q6 42 21.5 56t54.5 14q14 0 30.5 -6t21.5 -19q-4 -21 -6.5 -46.5t-4.5 -48.5q0 -21 -3 -63t-3 -63v-15q0 -22 2.5 -37.5
t11.5 -15.5q36 17 71 34t49 17q11 0 17.5 -10.5t6.5 -19.5q0 -11 -11 -27q-7 -10 -20 -23z" />
    <glyph glyph-name="ntilde" unicode="&#xf1;" horiz-adv-x="482" 
d="M324 484h-163q-21 0 -35 15t-14 37q0 21 14 37t34 16l165 -1q22 0 36 -15t14 -38q0 -22 -15.5 -36.5t-35.5 -14.5zM185 345q26 43 46 58.5t42 15.5q13 0 24.5 -3t40.5 -14q43 -16 68.5 -50.5t25.5 -81.5q0 -12 -2 -42t-2 -32v-27.5t1 -26.5v-16q-2 -12 -2 -17q0 -4 7 -5
q5 -1 7 0q14 0 44 16.5t39 16.5q16 0 23.5 -11t7.5 -25q0 -24 -29 -48q-16 -14 -49 -30q-12 -6 -23.5 -8t-25.5 -2q-54 0 -81 19q-31 22 -43 75l-3 27q0 25 3.5 76t3.5 70q0 22 -12 35q-15 -2 -24 -11t-23 -43l-20 -47q-10 -24 -23 -73t-17.5 -82t-9.5 -45q-12 -29 -38 -29
q-11 0 -25 5t-30 13t-22 19.5t-6 32.5l3 40q1 6 1 18q0 5 -0.5 12.5t-0.5 17.5l6 82q0 31 2.5 79t2.5 56q0 39 8 59q12 31 47 31q27 0 43 -7q25 -11 25 -35q0 -6 -1.5 -13t-2.5 -10z" />
    <glyph glyph-name="oacute" unicode="&#xf3;" horiz-adv-x="448" 
d="M349 526q-51 -21 -64 -26q-51 -20 -60 -20q-21 0 -36 15t-15 37q0 36 34 50q38 17 63 27q48 20 60 20q22 0 37 -15t15 -38q0 -36 -34 -50zM385 252q11 1 18 11.5t17 44.5q3 11 7 19.5t10 22.5t13.5 23t23.5 9q18 0 26 -15t8 -31t-8 -41.5t-17 -43.5q-21 -47 -38 -67
q-26 -30 -66 -38q-7 -31 -11 -46q-7 -28 -17 -45q-23 -41 -52 -58t-76 -17q-21 0 -31.5 1t-28.5 7q-40 13 -64 35t-59 101q-8 18 -9.5 38.5t-1.5 37.5v11q0 33 8 68t13.5 49t21 41t17.5 30q4 5 27 24.5t30 23.5q14 8 37 8q40 0 79 -31q4 -3 41 -37l25 -18q21 -13 37.5 -49.5
t19.5 -67.5zM263 233q-11 17 -16 25q-9 15 -12 27l1 -3q-2 7 -5 27t-3 31l-10 3q-15 0 -30 -26q-6 -10 -19 -41q-17 -46 -17 -104q0 -27 3.5 -48.5t14.5 -37.5q8 -12 17.5 -19.5t21.5 -7.5q23 0 40 32q5 10 21 54q3 11 7 24t4 21q0 14 -18 43z" />
    <glyph glyph-name="ograve" unicode="&#xf2;" horiz-adv-x="448" 
d="M254 479q-14 0 -61 19q-32 13 -64.5 27t-32.5 51q0 22 15.5 37.5t37.5 15.5q9 0 41 -12.5t81 -34.5q33 -13 33 -50q0 -23 -14 -38t-36 -15zM385 252q11 1 18 11.5t17 44.5q3 11 7 19.5t10 22.5t13.5 23t23.5 9q18 0 26 -15t8 -31t-8 -41.5t-17 -43.5q-21 -47 -38 -67
q-26 -30 -66 -38q-7 -31 -11 -46q-7 -28 -17 -45q-23 -41 -52 -58t-76 -17q-21 0 -31.5 1t-28.5 7q-40 13 -64 35t-59 101q-8 18 -9.5 38.5t-1.5 37.5v11q0 33 8 68t13.5 49t21 41t17.5 30q4 5 27 24.5t30 23.5q14 8 37 8q40 0 79 -31q4 -3 41 -37l25 -18q21 -13 37.5 -49.5
t19.5 -67.5zM263 233q-11 17 -16 25q-9 15 -12 27l1 -3q-2 7 -5 27t-3 31l-10 3q-15 0 -30 -26q-6 -10 -19 -41q-17 -46 -17 -104q0 -27 3.5 -48.5t14.5 -37.5q8 -12 17.5 -19.5t21.5 -7.5q23 0 40 32q5 10 21 54q3 11 7 24t4 21q0 14 -18 43z" />
    <glyph glyph-name="ocircumflex" unicode="&#xf4;" horiz-adv-x="448" 
d="M307 480q-14 0 -52 16q-15 6 -29 13q-27 -11 -51 -20t-30 -9q-22 0 -37 15t-15 39q0 35 32 49q47 21 52 23q40 17 50 17t49 -16q3 -1 52 -23q31 -13 31 -49q0 -23 -15 -39t-37 -16zM385 252q11 1 18 11.5t17 44.5q3 11 7 19.5t10 22.5t13.5 23t23.5 9q18 0 26 -15t8 -31
t-8 -41.5t-17 -43.5q-21 -47 -38 -67q-26 -30 -66 -38q-7 -31 -11 -46q-7 -28 -17 -45q-23 -41 -52 -58t-76 -17q-21 0 -31.5 1t-28.5 7q-40 13 -64 35t-59 101q-8 18 -9.5 38.5t-1.5 37.5v11q0 33 8 68t13.5 49t21 41t17.5 30q4 5 27 24.5t30 23.5q14 8 37 8q40 0 79 -31
q4 -3 41 -37l25 -18q21 -13 37.5 -49.5t19.5 -67.5zM263 233q-11 17 -16 25q-9 15 -12 27l1 -3q-2 7 -5 27t-3 31l-10 3q-15 0 -30 -26q-6 -10 -19 -41q-17 -46 -17 -104q0 -27 3.5 -48.5t14.5 -37.5q8 -12 17.5 -19.5t21.5 -7.5q23 0 40 32q5 10 21 54q3 11 7 24t4 21
q0 14 -18 43z" />
    <glyph glyph-name="odieresis" unicode="&#xf6;" horiz-adv-x="463" 
d="M335 480q-26 0 -44 21t-18 47q0 27 31 51.5t56 24.5q21 0 34 -24q6 -12 15 -43l2 -16q0 -28 -28 -46q-23 -15 -48 -15zM163 480q-26 0 -43.5 19.5t-17.5 46.5v12q4 22 34.5 44.5t52.5 22.5q24 0 37 -31q5 -11 14 -51q0 -29 -26.5 -46t-50.5 -17zM385 252q11 1 18 11.5
t17 44.5q3 11 7 19.5t10 22.5t13.5 23t23.5 9q18 0 26 -15t8 -31t-8 -41.5t-17 -43.5q-21 -47 -38 -67q-26 -30 -66 -38q-7 -31 -11 -46q-7 -28 -17 -45q-23 -41 -52 -58t-76 -17q-21 0 -31.5 1t-28.5 7q-40 13 -64 35t-59 101q-8 18 -9.5 38.5t-1.5 37.5v11q0 33 8 68
t13.5 49t21 41t17.5 30q4 5 27 24.5t30 23.5q14 8 37 8q40 0 79 -31q4 -3 41 -37l25 -18q21 -13 37.5 -49.5t19.5 -67.5zM263 233q-11 17 -16 25q-9 15 -12 27l1 -3q-2 7 -5 27t-3 31l-10 3q-15 0 -30 -26q-6 -10 -19 -41q-17 -46 -17 -104q0 -27 3.5 -48.5t14.5 -37.5
q8 -12 17.5 -19.5t21.5 -7.5q23 0 40 32q5 10 21 54q3 11 7 24t4 21q0 14 -18 43z" />
    <glyph glyph-name="otilde" unicode="&#xf5;" horiz-adv-x="448" 
d="M306 484h-163q-21 0 -35 15t-14 37q0 21 14 37t35 16l164 -1q22 0 36 -15t14 -38q0 -22 -15.5 -36.5t-35.5 -14.5zM385 252q11 1 18 11.5t17 44.5q3 11 7 19.5t10 22.5t13.5 23t23.5 9q18 0 26 -15t8 -31t-8 -41.5t-17 -43.5q-21 -47 -38 -67q-26 -30 -66 -38
q-7 -31 -11 -46q-7 -28 -17 -45q-23 -41 -52 -58t-76 -17q-21 0 -31.5 1t-28.5 7q-40 13 -64 35t-59 101q-8 18 -9.5 38.5t-1.5 37.5v11q0 33 8 68t13.5 49t21 41t17.5 30q4 5 27 24.5t30 23.5q14 8 37 8q40 0 79 -31q4 -3 41 -37l25 -18q21 -13 37.5 -49.5t19.5 -67.5z
M263 233q-11 17 -16 25q-9 15 -12 27l1 -3q-2 7 -5 27t-3 31l-10 3q-15 0 -30 -26q-6 -10 -19 -41q-17 -46 -17 -104q0 -27 3.5 -48.5t14.5 -37.5q8 -12 17.5 -19.5t21.5 -7.5q23 0 40 32q5 10 21 54q3 11 7 24t4 21q0 14 -18 43z" />
    <glyph glyph-name="uacute" unicode="&#xfa;" horiz-adv-x="475" 
d="M363 526q-51 -21 -64 -26q-51 -20 -60 -20q-21 0 -36 15t-15 37q0 36 34 50q38 17 63 27q48 20 60 20q22 0 37 -15t15 -38q0 -36 -34 -50zM304 82q-15 -42 -31 -64q-25 -34 -59 -34q-28 0 -59 5.5t-48 18.5q-28 21 -40 74q-8 36 -8 88l-2 51l3 61l10 100q0 42 11.5 54.5
t38.5 12.5q23 0 48 -7.5t28 -24.5q-16 -106 -16 -212v-66q2 -38 10 -65q24 27 40 60q7 14 25 64t20 55q11 30 16.5 64t8.5 42q14 39 71 39q26 0 40.5 -12.5t14.5 -40.5q0 -16 -7.5 -38t-9.5 -28q-1 -4 -2 -38t-1 -55v-26q0 -30 4.5 -53.5t21.5 -23.5q5 0 52 39q23 19 42 19
q11 0 19.5 -9.5t8.5 -20.5q0 -20 -22 -42q-18 -18 -36 -35q-13 -14 -40 -25t-46 -11q-51 0 -81 39q-6 8 -12.5 20.5t-12.5 24.5z" />
    <glyph glyph-name="ugrave" unicode="&#xf9;" horiz-adv-x="475" 
d="M268 479q-14 0 -61 19q-32 13 -64.5 27t-32.5 51q0 22 15.5 37.5t37.5 15.5q9 0 41 -12.5t81 -34.5q34 -14 34 -50q0 -22 -14.5 -37.5t-36.5 -15.5zM304 82q-15 -42 -31 -64q-25 -34 -59 -34q-28 0 -59 5.5t-48 18.5q-28 21 -40 74q-8 36 -8 88l-2 51l3 61l10 100
q0 42 11.5 54.5t38.5 12.5q23 0 48 -7.5t28 -24.5q-16 -106 -16 -212v-66q2 -38 10 -65q24 27 40 60q7 14 25 64t20 55q11 30 16.5 64t8.5 42q14 39 71 39q26 0 40.5 -12.5t14.5 -40.5q0 -16 -7.5 -38t-9.5 -28q-1 -4 -2 -38t-1 -55v-26q0 -30 4.5 -53.5t21.5 -23.5
q5 0 52 39q23 19 42 19q11 0 19.5 -9.5t8.5 -20.5q0 -20 -22 -42q-18 -18 -36 -35q-13 -14 -40 -25t-46 -11q-51 0 -81 39q-6 8 -12.5 20.5t-12.5 24.5z" />
    <glyph glyph-name="ucircumflex" unicode="&#xfb;" horiz-adv-x="475" 
d="M321 480q-14 0 -52 16q-15 6 -29 13q-27 -11 -51 -20t-30 -9q-22 0 -37 15t-15 39q0 35 32 49q47 21 52 23q40 17 50 17t49 -16q3 -1 52 -23q31 -13 31 -49q0 -23 -15 -39t-37 -16zM304 82q-15 -42 -31 -64q-25 -34 -59 -34q-28 0 -59 5.5t-48 18.5q-28 21 -40 74
q-8 36 -8 88l-2 51l3 61l10 100q0 42 11.5 54.5t38.5 12.5q23 0 48 -7.5t28 -24.5q-16 -106 -16 -212v-66q2 -38 10 -65q24 27 40 60q7 14 25 64t20 55q11 30 16.5 64t8.5 42q14 39 71 39q26 0 40.5 -12.5t14.5 -40.5q0 -16 -7.5 -38t-9.5 -28q-1 -4 -2 -38t-1 -55v-26
q0 -30 4.5 -53.5t21.5 -23.5q5 0 52 39q23 19 42 19q11 0 19.5 -9.5t8.5 -20.5q0 -20 -22 -42q-18 -18 -36 -35q-13 -14 -40 -25t-46 -11q-51 0 -81 39q-6 8 -12.5 20.5t-12.5 24.5z" />
    <glyph glyph-name="udieresis" unicode="&#xfc;" horiz-adv-x="475" 
d="M366 480q-26 0 -44 20t-18 46q0 29 30.5 53.5t57.5 24.5q21 0 34 -24q6 -12 15 -43l2 -15q0 -29 -28 -47q-23 -15 -49 -15zM194 480q-26 0 -44 19t-18 46q0 28 31 54t56 26q21 0 34 -24q6 -11 15 -44l3 -15q0 -29 -28 -47q-23 -15 -49 -15zM304 82q-15 -42 -31 -64
q-25 -34 -59 -34q-28 0 -59 5.5t-48 18.5q-28 21 -40 74q-8 36 -8 88l-2 51l3 61l10 100q0 42 11.5 54.5t38.5 12.5q23 0 48 -7.5t28 -24.5q-16 -106 -16 -212v-66q2 -38 10 -65q24 27 40 60q7 14 25 64t20 55q11 30 16.5 64t8.5 42q14 39 71 39q26 0 40.5 -12.5t14.5 -40.5
q0 -16 -7.5 -38t-9.5 -28q-1 -4 -2 -38t-1 -55v-26q0 -30 4.5 -53.5t21.5 -23.5q5 0 52 39q23 19 42 19q11 0 19.5 -9.5t8.5 -20.5q0 -20 -22 -42q-18 -18 -36 -35q-13 -14 -40 -25t-46 -11q-51 0 -81 39q-6 8 -12.5 20.5t-12.5 24.5z" />
    <glyph glyph-name="dagger" unicode="&#x2020;" horiz-adv-x="477" 
d="M379 361q-26 0 -40 1.5t-48 7.5q0 -60 2 -108q7 -168 7 -180q0 -112 -9 -168q-20 -123 -79 -123q-17 0 -30.5 10.5t-13.5 30.5q0 6 2 19t2 20q8 84 9.5 104.5t1.5 52.5l-1 138q0 20 2 64.5t2 47.5l-1 93h-43q-26 0 -42 1.5t-32.5 6t-28.5 17t-12 32.5q0 25 10 44
q14 27 40 27q9 0 15 -1q5 -1 28.5 -8t56.5 -12q-3 21 -6 40.5t-9 43.5q-8 44 -9.5 53t-1.5 25q0 28 24 41q17 9 42 9q40 0 57.5 -19.5t17.5 -62.5q0 -18 -3 -52t-3 -51l2 -33l112 18q25 0 38 -17.5t13 -43.5q0 -37 -18.5 -52.5t-53.5 -15.5z" />
    <glyph glyph-name="degree" unicode="&#xb0;" horiz-adv-x="194" 
d="M97 480q-36 0 -63.5 23t-27.5 64q0 40 28 64t63 24t63.5 -23.5t28.5 -63.5t-28.5 -64t-63.5 -24zM97 590q-21 0 -21 -22q0 -23 21 -23t21 22q0 9 -6 16t-15 7z" />
    <glyph glyph-name="cent" unicode="&#xa2;" horiz-adv-x="389" 
d="M163 567q0 61 54 61q36 0 36 -37q0 -6 -2 -19t-2 -20q0 -21 12 -42q27 -5 53.5 -27t31.5 -49l10 -57l3 -22q0 -19 -26 -38t-42 -19q-27 0 -39 31q-5 14 -12 56q-2 14 -15 31t-26 17q-23 0 -33.5 -34.5t-10.5 -107.5q0 -58 5 -82q11 -54 44 -54q25 0 39 39.5t52 39.5
q28 0 40 -4q24 -8 24 -30q0 -11 -6 -27q-6 -12 -7 -16q-13 -26 -39 -53t-53 -42q4 -8 6 -19.5t2 -23.5q0 -37 -16 -60q-19 -28 -55 -28q-16 0 -25 6q-13 9 -13 28q0 12 3 28q7 37 7 47q0 18 -7 32q-67 10 -101 85q-27 59 -27 138q0 17 2 40.5t4 42t3.5 29t11.5 32.5
q18 44 42.5 62.5t70.5 26.5q1 7 1 20v19z" />
    <glyph glyph-name="sterling" unicode="&#xa3;" horiz-adv-x="537" 
d="M496 20q-27 -11 -78.5 -13t-96.5 -3l-95 -9l-39 -2q-14 0 -46 -2t-33 -2q-41 0 -41 41q0 17 3 29t19 56q1 1 1 10.5t1 16.5v34q0 26 2 77t2 77v15q-10 0 -28 -2t-27 -2q-11 0 -18 8t-7 18q0 12 9.5 28t18.5 26q14 17 36 17l17 -3q0 31 1.5 46.5t7.5 54.5q1 6 1 18
q-1 20 -1 29l4 56q0 10 -2 21q-5 29 -5 35q0 20 20 30.5t62 10.5l12 1q15 0 28.5 -2t25.5 -8q19 -11 19 -38q0 -18 -5 -41.5t-9 -44.5q-7 -33 -10.5 -80.5t-6.5 -90.5l35 -1q18 0 55 3t57 3q38 0 60 -5.5t38 -29.5q7 -9 7 -19q0 -12 -15 -22q-8 -5 -22.5 -11t-29 -7.5
t-35.5 -1.5h-19h-76l-57 2q-4 -32 -5 -62t-1 -71v-19v-37v-33l154 -3h24q38 0 61 -5.5t40 -26.5q11 -13 11 -29q0 -28 -24 -37z" />
    <glyph glyph-name="section" unicode="&#xa7;" horiz-adv-x="477" 
d="M375 177q24 -18 34.5 -46.5t10.5 -61.5q0 -70 -41 -138q-47 -79 -113 -79q-20 0 -49.5 11t-30.5 11q-14 6 -29 9q-49 12 -63.5 39t-14.5 83q0 48 9.5 70.5t27.5 22.5q14 0 29 -8.5t29.5 -10.5t25.5 -8q19 -10 19 -28q0 -10 -5.5 -32t-5.5 -29q0 -29 20 -29q25 0 42 43
q13 34 13 66q0 23 -39 39q-8 3 -33 12q-59 20 -83 31q-51 24 -68 54q-6 11 -8 22.5t-2 25.5q0 37 15 64t44 52q-22 20 -30.5 37.5t-8.5 50.5q0 44 14 88q19 56 53 96q44 52 95 52q16 0 28 -6t25 -12l24 -7q45 -14 68.5 -50.5t23.5 -85.5q0 -24 -7 -49q-11 -37 -28 -37
q-11 0 -55 19q-21 9 -30.5 15.5t-10.5 7.5q-9 9 -9 20q0 10 4 22q10 31 10 38q0 12 -13 12q-27 0 -43 -42q-12 -32 -12 -67q0 -13 15 -22q4 -3 26 -12l55 -22t54 -25t50 -39q20 -27 20 -68q0 -29 -14.5 -53t-37.5 -46zM285 266q-4 7 -41 23q-24 10 -47 20q-5 -13 -7 -31
q0 -17 24 -28q30 -10 38 -14l27 -12q7 16 7 29z" />
    <glyph glyph-name="bullet" unicode="&#x2022;" horiz-adv-x="667" 
d="M335 190q-58 0 -98.5 43.5t-40.5 105.5q0 61 40.5 104.5t98.5 43.5q57 0 97.5 -43.5t40.5 -104.5q0 -62 -40 -105.5t-98 -43.5z" />
    <glyph glyph-name="paragraph" unicode="&#xb6;" horiz-adv-x="572" 
d="M496 583l-1 -279q0 -39 -2 -129t-2 -97l1 -77l3 -60q0 -14 -6 -21t-29.5 -17t-25.5 -11q-16 -6 -24 -6q-24 0 -28.5 17t-4.5 32l3 526v28q0 46 -1.5 71.5t-7.5 33.5q-1 2 -9 2q-12 0 -14 -16v-14l-2 -318v-203v-79q0 -81 -78 -81q-19 0 -27.5 12t-8.5 31l1 102v60l-1 189
q0 16 -14 19q-79 12 -130 63q-55 56 -55 138q0 101 77 148q61 37 162 37l109 -3h17q26 0 43 2t26 3.5t22 1.5q19 0 27.5 -14t8.5 -32q0 -16 -6 -27.5t-23 -15.5v-16zM233 414v34v84l3 51l-1 7q-31 -1 -47.5 -22t-16.5 -55q0 -32 18 -64t44 -35z" />
    <glyph glyph-name="germandbls" unicode="&#xdf;" horiz-adv-x="677" 
d="M578 32q-27 -22 -69.5 -35.5t-80.5 -13.5q-33 0 -60 16.5t-40 48.5l-6 18q-6 21 -6 32q0 15 16 36t31 21q14 0 51.5 -36.5t56.5 -36.5q11 0 18 9q1 2 12 19q6 9 13 17l14 16q1 2 4 19t5 37q0 23 -19 48q-15 17 -21 25q-2 2 -9.5 16t-9.5 16q-7 8 -16 14q-12 9 -18 13
q-33 28 -46.5 62t-13.5 81q0 36 20 74q44 83 44 111q0 16 -4 28q-9 23 -17 31t-26 8q-40 0 -54 -14q-7 -7 -25 -49t-24.5 -96t-6.5 -111q0 -35 -12 -143q-6 -54 -6 -83q-1 -13 -1 -17q0 -6 1 -19t1 -20l-3 -75q0 -9 2 -37.5t4 -32.5v-7q0 -19 -13.5 -27t-33.5 -8l-55 2
q-19 0 -28 18.5t-9 40.5q0 16 1.5 27t4 34.5t3 66t0.5 65.5l2 60q-49 1 -72 17.5t-23 41.5q0 22 15.5 31.5t35.5 9.5l24 -1q23 0 23 10q0 39 4.5 79.5t8 70t5.5 54t7 44.5q10 49 19.5 74.5t21.5 44.5q21 35 39 49q24 19 61 19q14 0 31.5 -2t32.5 -4q70 -12 122.5 -77.5
t52.5 -139.5q0 -37 -23 -76q-51 -86 -51 -89q0 -16 8 -28t39 -35q53 -38 86 -79q46 -56 46 -108l1 -24q0 -51 -23 -87q-18 -28 -62 -64z" />
    <glyph glyph-name="registered" unicode="&#xae;" horiz-adv-x="762" 
d="M381 676q143 0 245.5 -100.5t102.5 -242.5q0 -143 -102 -243t-246 -100q-143 0 -245.5 100.5t-102.5 242.5q0 143 102 243t246 100zM380 647q-129 0 -219.5 -92.5t-90.5 -221.5t90.5 -221.5t219.5 -92.5q130 0 220 92t90 222q0 129 -90.5 221.5t-219.5 92.5zM331 282
q0 -8 -1 -23.5t-1 -21.5l-2 -81q0 -14 -4 -20q-4 -5 -12 -5q-6 0 -13 2t-16 5q-21 6 -22.5 15.5t-1.5 27.5l-2 139q0 20 1 60t1 60l3 67q0 15 6.5 26t20.5 11q7 0 14.5 -3.5t13.5 -5.5q7 0 19.5 4t24 7t31.5 3q46 0 89 -31.5t43 -75.5q0 -38 -31 -74q-26 -30 -65 -52l-11 -9
q3 -10 51 -70t48 -75q0 -9 -10.5 -19.5t-20.5 -10.5q-13 0 -25 9q-23 15 -67 66q-1 1 -61 75zM331 350q47 23 72 45q41 35 41 71q0 12 -10 15.5t-25 3.5q-52 0 -64 -12t-12 -64z" />
    <glyph glyph-name="copyright" unicode="&#xa9;" horiz-adv-x="762" 
d="M381 676q143 0 245.5 -100.5t102.5 -242.5q0 -143 -102 -243t-246 -100q-143 0 -245.5 100.5t-102.5 242.5q0 143 102 243t246 100zM380 647q-129 0 -219.5 -92.5t-90.5 -221.5t90.5 -221.5t219.5 -92.5q130 0 220 92t90 222q0 129 -90.5 221.5t-219.5 92.5zM401 474
q-33 -34 -59 -95.5t-26 -108.5q0 -30 11 -55q15 -33 41 -33t52 23q21 18 37 46l13 29q7 13 15 13q4 0 8 -4l6 -8q5 -6 10 -11.5t5 -13.5q0 -44 -38 -91t-82 -47q-62 0 -107.5 50.5t-45.5 113.5q0 64 29.5 131.5t75.5 115.5q12 12 23 20q18 13 29 13q9 0 19.5 -6t24.5 -9
q29 -8 42 -39q10 -24 10 -60q0 -28 -6 -41q-9 -20 -34 -20q-23 0 -38.5 20.5t-15.5 45.5z" />
    <glyph glyph-name="trademark" unicode="&#x2122;" horiz-adv-x="634" 
d="M3 648q0 16 42 25.5t101 9.5q41 0 80 6l12 1q13 0 23.5 -10.5t10.5 -23.5q0 -27 -16 -36q-10 -5 -44 -9q-13 -1 -25 -2q-11 -3 -11 -19q0 -79 -1 -159l-2 -160q0 -17 -20 -17q-13 0 -32.5 7t-18.5 18l1 9l-1 11q-4 33 -4 79v11v126l3 78q0 12 -11 12q-8 -1 -13 -1h-30
q-15 0 -20 2q-7 3 -12 15l-4 9q-8 13 -8 18zM369 503v-19l3 -113q0 -14 2 -47.5t2 -36.5q0 -20 -19 -20q-17 0 -21 1q-7 2 -13 6q-11 7 -15 27t-4 49v23v31l2 130q0 15 2 49.5t2 37.5l-1 27q0 21 17 21q6 0 14.5 -2t15.5 -4l19 -2q18 -2 23 -10q2 -4 7 -27l11 -50l24 -93
l14 43q7 28 16.5 63.5t14.5 51.5l11 33q5 14 6 16q5 8 16 8q21 0 48.5 -12t27.5 -30l-2 -36l1 -147q0 -14 2 -49t2 -39v-79v-18q-3 -13 -21 -13q-24 0 -39 10.5t-15 33.5l-2 55l-1 48l2 88l-1 21q-6 -28 -11 -47.5t-17 -55.5l-15 -51q-3 -12 -5 -24q-5 -14 -16 -14
q-19 0 -31 8q-18 14 -33 65q-5 16 -9.5 37.5t-7.5 34.5t-6 21z" />
    <glyph glyph-name="acute" unicode="&#xb4;" horiz-adv-x="188" 
d="M216 526q-28 -13 -60 -26q-48 -20 -57 -20q-21 0 -35 15t-14 37q0 37 32 50q36 17 60 27q46 20 57 20q20 0 34 -15t14 -38q0 -36 -31 -50z" />
    <glyph glyph-name="dieresis" unicode="&#xa8;" horiz-adv-x="231" 
d="M191 480q-25 0 -42.5 19.5t-17.5 46.5q0 8 2 12q3 22 32.5 44.5t50.5 22.5q18 0 30 -19q8 -13 13 -36l3 -14l4 -15q0 -28 -27 -46q-23 -15 -48 -15zM22 480q-25 0 -42.5 19.5t-17.5 46.5t30 53t55 26q16 0 26.5 -14t21.5 -54l2 -15q0 -29 -27 -47q-22 -15 -48 -15z" />
    <glyph glyph-name="AE" unicode="&#xc6;" horiz-adv-x="1116" 
d="M844 7l-44 -9q-34 -8 -55.5 -12t-44.5 -4q-39 0 -66 4.5t-46 11.5q-54 22 -67 32q-25 19 -43 64q-8 20 -14 60.5t-6 64.5l2 41l-3 27h-13q-40 0 -73.5 -3t-71.5 -11q-18 -3 -28 -13q-6 -6 -19 -28l-104 -184q-27 -50 -62 -96q-13 -19 -28 -19q-9 0 -29 11t-26.5 15
t-11.5 10.5t-5 14.5q0 14 25 61q9 17 19 35l27 55l43 97q13 27 27.5 54t29.5 54q46 85 92.5 172t87.5 173q10 21 15 31q9 18 16 29q11 18 30 18q13 0 23.5 -2t16.5 -3q31 -6 49 -11.5t45 -19.5l73 -40q28 13 65.5 27t72.5 28q10 4 80.5 12t84.5 8q54 0 97 -33.5t43 -89.5
q0 -35 -14 -59q-18 -31 -54 -31q-38 0 -61 27t-26 65h-10q-18 0 -29 -2t-63 -16q-71 -20 -97 -35q-58 -32 -58 -81q0 -30 19.5 -43t54.5 -13q15 0 24 1q38 4 42 4h52q9 0 20 2t20.5 4t20 2h16.5h21q13 7 22 7q8 0 19 -22q1 -1 13 -31v-7v-16q0 -38 -14 -48q-6 -4 -46 -10
l-78 -8q-25 0 -39 -1t-38 -6l-137 -25q-29 -6 -35 -9q-17 -9 -17 -31q0 -26 11.5 -70.5t24.5 -61.5q19 -27 60 -27q13 0 28.5 1.5t39.5 5.5q70 11 126.5 26t111.5 41l19 9.5t19 10.5q18 12 26 16q20 11 27 11q15 0 28 -14t13 -29q0 -25 -44.5 -59.5t-128.5 -75.5l-21 -9z
M523 634q-9 4 -35.5 9.5t-34.5 5.5q-12 -7 -20 -14q-14 -12 -14 -18l-53 -121q-18 -40 -28 -66q-14 -36 -19 -67l11 -3q9 0 19 2t24 5l100 2q0 42 9.5 89t26.5 82q10 18 16 29q11 21 13 29l5 16q-9 14 -20 20z" />
    <glyph glyph-name="Oslash" unicode="&#xd8;" horiz-adv-x="805" 
d="M763 692l-107 -111q15 -16 28 -42.5t25 -51.5l-1 -3q5 -14 10.5 -51t5.5 -51q0 -21 -0.5 -49.5t-8.5 -64.5q-11 -50 -21 -76.5t-35 -68.5q-8 -14 -16.5 -28.5t-30.5 -34.5l-31 -26q-33 -28 -87.5 -42t-104.5 -14q-37 0 -68.5 11.5t-70.5 34.5q-45 26 -48 28q-7 5 -26 23
l-93 -93q-13 -13 -26 -13t-24 9t-11 24q0 16 10 26l91 96q-32 41 -44.5 98t-12.5 121q0 47 9.5 99.5t26.5 91.5q5 9 8 19t7 20q14 36 20 47q11 21 30 43q30 37 77 61.5t93 24.5q23 0 39.5 -5t41.5 -19q2 -1 9.5 -3.5t19.5 -5.5q3 -6 32 -21q36 -19 73 -37q15 -8 30 -15
q8 -4 28 -19q53 54 106 109q8 7 18 8q11 0 23 -11t12 -25q0 -7 -6 -13zM480 604q-9 5 -16 10q-16 10 -28 12q-33 5 -61 5q-39 0 -72 -33q-26 -26 -45 -69q-14 -30 -24 -62t-14 -62l-4 -51q0 -13 -3 -40t-3 -41q0 -26 6 -52l322 327q-10 20 -21.5 30.5t-36.5 25.5zM566 490
l-323 -342q21 -36 55.5 -58t73.5 -22q52 0 98 36q38 29 72 84q20 34 33.5 84t13.5 93q0 27 -6.5 63t-16.5 62z" />
    <glyph glyph-name="yen" unicode="&#xa5;" horiz-adv-x="818" 
d="M512 131q-42 -79 -86 -110q-37 -26 -81 -26q-30 0 -58 10t-58 28q-53 31 -76.5 77t-23.5 109q-16 0 -32.5 -3t-26.5 -5l-8 -2h-10q-17 0 -33 8t-16 24q0 21 16.5 28t39.5 7h37l30 2v21q-35 -3 -69 -3q-24 0 -31 4q-13 7 -13 32q0 20 13.5 26t35.5 6l57 -2l7 -1l-1 18
q0 18 4 59.5t4 53.5q7 80 9 93t12 66t23 67q18 19 66 19q30 0 48.5 -9.5t18.5 -22.5q0 -6 -3 -16q-1 -3 -6 -17q-6 -12 -10 -31.5t-6 -34.5l-15 -80q-2 -8 -3.5 -27t-1.5 -40q-2 -23 -4 -45.5t-2 -42.5v-13l107 -1q14 0 42.5 -3.5t38.5 -3.5l41 3q10 36 19.5 76.5t13.5 73.5
l8 57l9 55l6 56q8 27 43 27l29 -3l23 3q16 0 24.5 -13t8.5 -27t-3 -30t-6 -31q-4 -37 -4 -82v-6q-4 -37 -4.5 -50.5t-0.5 -22.5q0 -7 -2 -21t-2 -22v-34l81 3q30 0 42 -3q26 -7 26 -29q0 -18 -19 -26t-39 -8q-14 0 -47.5 2t-36.5 2l-11 -1l-1 -11q17 0 55 1t57 1q26 0 35 -4
q18 -8 18 -32q0 -15 -11 -27t-26 -15q-25 6 -40.5 9t-35.5 3l-44 1h-11q0 -52 -4 -128q-9 -171 -9 -215q0 -16 1 -48t1 -49l2 -24q0 -31 -12.5 -42.5t-42.5 -11.5q-40 0 -75 29l-1 118l2 98l3 104zM392 303q-14 0 -27.5 -1t-26.5 -2l-45 3l-33 -2v-22h21h23h20h18h15h14h12
h36t36 1h10l8 24q-20 0 -40.5 -0.5t-40.5 -0.5zM409 223h-23l-89 1l-36 3q-1 -7 2 -34t5 -36q7 -24 15 -48q12 -29 34 -29q23 0 31.5 6t26.5 31t29 40q21 30 25 42l7 24h-27z" />
    <glyph glyph-name="ordfeminine" unicode="&#xaa;" horiz-adv-x="333" 
d="M108 507q-11 5 -22 17t-11 22q0 30 30.5 83t60.5 53q10 0 23 -8q21 -13 25 -14q27 -9 35 -33q4 -13 4 -51q0 -30 -2 -98.5t-2 -72.5q0 -13 -6 -23.5t-20 -10.5q-26 0 -37 20q-22 -11 -43 -11q-26 0 -47.5 22.5t-21.5 49.5q0 18 9 31.5t25 23.5zM173 595l-15 -26l-22 -45
l-1 -3l39 14l1 12zM141 454l4 2q8 -1 13 -1q16 0 16 10v4q-12 -1 -22.5 -5t-10.5 -10zM265 308l-62 1l-50 -1l-45 1h-25.5t-15.5 -1h-5q-9 0 -13.5 7t-4.5 14q0 18 8.5 24.5t26.5 6.5l27 1h123l17 -1h14q14 0 21.5 -3.5t7.5 -16.5q0 -17 -6.5 -24.5t-17.5 -7.5z" />
    <glyph glyph-name="ordmasculine" unicode="&#xba;" horiz-adv-x="333" 
d="M172 367q-9 0 -25.5 7t-28.5 14q-24 12 -33.5 43t-9.5 63q0 39 11 85.5t32 71.5q4 4 11.5 9t14.5 5t20.5 -5.5t18.5 -6.5q40 -6 60 -48q16 -34 16 -81q0 -52 -19 -98q-24 -59 -68 -59zM171 586l-1 -3l-1 -4q-17 -51 -17 -98q-1 -12 -1 -20q0 -24 8 -24q11 0 13.5 34.5
t2.5 64.5q1 14 1 25q0 21 -5 25zM264 307l-62 1l-50 -1l-45 1h-25.5t-15.5 -1h-5q-9 0 -13.5 7t-4.5 14q0 18 8.5 24.5t26.5 6.5l27 1h123l17 -1h14q14 0 21.5 -3.5t7.5 -16.5q0 -17 -6.5 -24.5t-17.5 -7.5z" />
    <glyph glyph-name="ae" unicode="&#xe6;" 
d="M689 111q-34 -54 -97.5 -92.5t-125.5 -38.5q-41 0 -82 27q-33 22 -63 60q-6 -6 -13 -15.5t-10 -14.5q-21 -29 -43.5 -42t-55.5 -13q-170 0 -170 171q0 28 1 48.5t5 44.5q12 42 18.5 64t13.5 35q33 61 65 85q27 20 61 20q33 0 67 -10q17 -5 63 -24l23 18q13 10 28.5 21.5
t31.5 11.5t46 -8.5t49 -17.5q58 -28 82 -50q39 -36 39 -87q0 -27 -15.5 -55.5t-37.5 -45.5q-29 -22 -43.5 -29t-43.5 -14t-42.5 -9.5t-31.5 -2.5l-1 -12q0 -38 7.5 -52.5t35.5 -14.5q23 0 33.5 2.5t33.5 13.5q34 14 56 27q30 18 49 40q24 29 25 29q10 9 21 9
q16 0 25.5 -12.5t9.5 -28.5q0 -9 -4 -18.5t-10 -19.5zM483 368q-32 0 -52 -52q-16 -42 -16 -86q39 4 67.5 32.5t28.5 67.5q0 17 -7.5 27.5t-20.5 10.5zM259 359q-26 0 -46 -29q-13 -20 -25 -55l-20 -58q-2 -7 -4 -35.5t-2 -38.5v-14q0 -21 1 -34.5t7 -26.5q3 -8 10 -9
q9 0 17 7q4 3 23 28q38 56 45 75.5t17 88.5l9 66l2 10q0 10 -10.5 17.5t-23.5 7.5z" />
    <glyph glyph-name="oslash" unicode="&#xf8;" horiz-adv-x="473" 
d="M471 318q-14 -6 -23 -12t-25 -17q4 -30 4.5 -41t0.5 -23l-1 -30q-12 -125 -58 -174q-39 -41 -106 -41q-41 0 -79 16.5t-62 48.5q-22 -22 -32 -30q-23 -18 -38 -18q-10 0 -17 8t-7 18q0 13 11 25t44 33q7 4 9 14l-15 43q-3 6 -4.5 39.5t-1.5 43.5q0 14 3 32.5t4 24.5
q9 34 14.5 49t20 41t18.5 31q2 3 27 25q19 16 32.5 23t35.5 7q32 0 64 -21q16 -11 54 -45q1 -1 26 -18q13 -9 24 -26q24 17 47 30q30 17 42 17t22 -8t10 -22q0 -13 -16 -26q-12 -10 -28 -17zM289 266q-8 6 -19 24t-10 25l4 17q0 9 -8 16t-19 7q-14 0 -29 -14q-10 -9 -21 -27
l-7 -9q-2 -18 -3.5 -26.5t-7.5 -30.5l-3 -18q0 -16 5 -30.5t9 -24.5q13 7 31 24q22 21 30 27l54 37zM320 204l-37 -32l-82 -63q3 -19 17.5 -34.5t30.5 -15.5q21 0 36 24q8 14 18 45q9 23 13.5 37t4.5 27z" />
    <glyph glyph-name="questiondown" unicode="&#xbf;" horiz-adv-x="535" 
d="M335 611q-16 -12 -28 -18q-19 -10 -35 -10q-26 0 -41 29q-5 10 -18 53q-2 13 -1 18q0 34 29.5 53.5t60.5 19.5q30 0 52 -23t22 -55q0 -21 -13 -40q-9 -13 -28 -27zM509 179q-10 -15 -18 -25q-12 -15 -28 -31q-22 -28 -53 -54q-10 -8 -60 -46q-11 -9 -22 -15.5t-17 -8.5
q-23 -9 -47 -15.5t-42 -6.5q-23 0 -47.5 10t-33.5 14q-33 15 -52.5 31t-44.5 47q-14 19 -24 38.5t-10 40.5q0 14 3 25.5t10 35.5q12 38 85 128q53 65 107 131q-8 11 -8 25q0 22 35.5 40t60.5 18q21 0 44.5 -14.5t23.5 -39.5q0 -20 -25 -56q-9 -13 -22 -30q-40 -52 -78 -108
q-31 -43 -61 -85q-39 -60 -39 -93q0 -16 8.5 -26t22.5 -10q15 0 36 9q25 12 35 16q28 14 67.5 43t58 51t28.5 40q12 27 22 47q2 11 19 11q9 0 20 -2t26 -5t34.5 -23.5t19.5 -41.5q0 -10 -10 -28.5t-24 -36.5z" />
    <glyph glyph-name="exclamdown" unicode="&#xa1;" horiz-adv-x="275" 
d="M194 609q-14 -11 -30 -19.5t-30 -8.5q-16 0 -27 13q-14 16 -23 53l-7 34q0 32 32 54q27 18 55 18q29 0 49 -23t20 -55q0 -22 -10.5 -37t-28.5 -29zM216 499l-5 -20q-1 -3 -1 -11.5v-13.5q0 -22 1 -27v-8q-9 -101 -9 -104q-4 -56 -4 -105q0 -20 -3.5 -76.5t-3.5 -85.5
q0 -28 -3 -40q-6 -23 -24 -30l-38 5q-20 2 -39 3q-20 4 -35 22q-10 14 -9 30v11l25 35q4 5 10.5 94.5t6.5 120.5l1 39l3 33v24t2 29l1 24l-2 57q0 23 -3 32v5q0 12 25.5 19.5t38.5 7.5q22 0 44.5 -12.5t22.5 -34.5z" />
    <glyph glyph-name="logicalnot" unicode="&#xac;" horiz-adv-x="500" 
d="M354 -10v176h-321v110h433v-286h-112z" />
    <glyph glyph-name="florin" unicode="&#x192;" horiz-adv-x="448" 
d="M412 556q-24 0 -33 19q-7 26 -10.5 35.5t-8.5 17t-12 15.5q-18 -5 -31 -25q-7 -11 -20 -41t-19 -75q-2 -15 -7.5 -72t-5.5 -96q10 -2 29 -2.5t31 -0.5q20 0 38 -21t18 -40q0 -25 -30 -35q-21 -7 -55 -7h-15q-7 0 -25 -4q-3 -26 -5 -48.5t-2 -33.5v-27t1 -26l-2 -45v-51
q0 -28 -1 -45.5t-6 -38.5q-9 -42 -15 -61q-11 -36 -26 -60q-20 -32 -43 -50q-29 -22 -63 -22q-44 0 -86 31t-63 76q0 2 -2 5l-5 18q-4 11 -5 16q-5 16 -5 23q0 18 19 29t34 11q11 0 20 -3.5t12 -12.5l12 -43q2 -6 5 -11q4 -6 15 -17q18 5 31 25q8 12 18 38q18 43 25 99.5
t7 120.5v12q0 18 -0.5 36.5t-0.5 37.5v10l-3 1q-35 0 -57 10q-33 15 -33 47q0 22 17 32t35 10l22 -1q23 0 24 10l3 95l7 49l2 26q5 53 16 101q15 61 35.5 94t43.5 51q29 23 62 23q45 0 86.5 -30.5t62.5 -76.5q0 -2 2 -5l5 -18q4 -11 5 -16q5 -16 5 -23q0 -18 -19 -29
t-34 -11z" />
    <glyph glyph-name="guillemotleft" unicode="&#xab;" horiz-adv-x="411" 
d="M355 35q-6 -2 -18 -2h-6q-10 0 -26 18t-21 24q-24 30 -35 44q-21 26 -36.5 38.5t-22.5 20.5q-14 15 -14 25l2 19l-1 9q0 14 7 24q3 4 17 17q29 27 57 69q11 17 48 77q6 9 8 11q6 5 14 5l7 -1l8 -2q10 0 17.5 -4t7.5 -14q0 -6 -5 -19t-10 -25q-11 -31 -23 -56.5t-28 -50.5
q-9 -11 -15 -22.5t-5 -14.5q0 -3 4 -9.5t9 -12.5q10 -14 43 -76t33 -71q0 -16 -16 -21zM207 35q-6 -2 -18 -2h-7q-11 0 -26 16q-7 8 -22 28t-34 43q-22 26 -37 38t-22 20q-14 15 -14 25l2 19q0 20 4 28t19 23q30 28 57 68q10 15 48 77q6 9 8 11q6 5 14 5l7 -1
q16 -1 24.5 -4.5t8.5 -15.5q0 -6 -4 -16q-2 -9 -4 -14l-7 -14q-9 -26 -22.5 -55.5t-27.5 -51.5q-4 -6 -11 -18q-10 -16 -10 -19t4.5 -10t8.5 -13q11 -13 44 -75.5t33 -70.5q0 -16 -16 -21z" />
    <glyph glyph-name="guillemotright" unicode="&#xbb;" horiz-adv-x="411" 
d="M382 235q0 -12 -6.5 -21.5t-15.5 -18.5q-21 -20 -45 -51q-19 -25 -40 -58q-18 -32 -24 -39q-11 -14 -19 -14l-10 2l-11 -1q-6 0 -12.5 5.5t-6.5 13.5q0 6 4 16l5 13l6 16l16 40q15 35 34 66q7 10 11 18q10 17 10 19q0 3 -4 9.5t-9 12.5q-12 16 -42 72q-34 63 -34 76
q0 14 9 18t25 4h6q13 0 27 -15q15 -20 20 -27l39 -47q8 -10 15.5 -18.5t19.5 -18.5t20 -18q14 -15 14 -24zM233 239l1 -7q0 -11 -8 -21q-4 -5 -17 -17q-19 -19 -43 -51q-17 -24 -39 -58q-10 -16 -19 -31q-15 -22 -24 -22l-9 1h-13q-6 0 -12.5 5.5t-6.5 13.5q0 5 6 22
q2 5 9 23q11 32 22.5 55.5t28.5 50.5q5 9 11 18q10 16 9 19q0 3 -4.5 10t-8.5 11q-9 13 -42.5 76.5t-33.5 72.5q0 14 9 18t25 4h5q10 0 21 -9q4 -3 28 -34q21 -28 34 -44q18 -21 39 -38q14 -11 21 -19q14 -15 14 -25z" />
    <glyph glyph-name="ellipsis" unicode="&#x2026;" 
d="M617 27q-9 -11 -34.5 -25.5t-31.5 -19t-9 -6.5q-9 -6 -17 -6q-26 0 -45.5 23t-19.5 50v19q0 11 12 30q9 14 19 29q6 11 10 17q12 17 28 17q8 0 18 -4.5t25 -7t34.5 -31t19.5 -53.5q0 -22 -9 -32zM404 27q-9 -11 -34.5 -25.5t-31.5 -19t-9 -6.5q-9 -6 -17 -6
q-26 0 -45.5 23t-19.5 50v19q0 11 12 30q9 14 19 29q6 11 10 17q12 17 28 17q8 0 18 -4.5t25 -7t34.5 -31t19.5 -53.5q0 -22 -9 -32zM191 27q-9 -11 -34.5 -25.5t-31.5 -19t-9 -6.5q-9 -6 -17 -6q-26 0 -45.5 23t-19.5 50v19q0 11 11 27.5l21 31.5q6 11 10 17q12 17 28 17
q8 0 18 -4.5t24.5 -7t34 -31t19.5 -53.5q0 -22 -9 -32z" />
    <glyph glyph-name="nonbreakingspace" unicode="&#xa0;" horiz-adv-x="290" 
 />
    <glyph glyph-name="Agrave" unicode="&#xc0;" 
d="M359 760q-12 0 -60 19q-33 13 -66 27t-33 51q0 23 16 38t38 15q8 0 42.5 -13t80.5 -34q34 -14 34 -50q0 -23 -15 -38t-37 -15zM668 46q-21 -18 -45.5 -29.5t-49.5 -11.5q-15 0 -27 3.5t-27 12.5q-41 23 -51.5 38.5t-21.5 66.5l-4 -7q-38 -69 -66 -98q-46 -47 -104 -47
q-30 0 -78.5 12t-68.5 27q-3 2 -23 19t-24 22q-27 28 -40 98q-9 50 -9 107q0 16 3 39q0 3 7 48t11 62.5t20 68.5q4 15 8 31l21 44l13 32q7 16 19 33.5t26 33.5q35 46 64 67q40 29 88 29t76 -14q21 -10 63 -48l14 -12q14 11 31.5 15.5t37.5 4.5q31 0 45.5 -10t14.5 -26
q0 -8 -1.5 -18t-2.5 -15q-7 -38 -10.5 -74t-3.5 -80q0 -9 -2 -27t-2 -27q0 -16 -2.5 -44.5t-2.5 -34.5v-94l2 -93l-1 -17q0 -16 2 -24.5t12 -8.5q17 0 34 5.5t44 16.5l22 7q12 0 18.5 -9.5t7.5 -19.5q0 -14 -13 -30q-8 -11 -24 -24zM417 599q-14 16 -26.5 24t-27.5 8
q-27 0 -59 -33q-19 -19 -45 -56q-22 -31 -39 -72q-12 -29 -27 -77q-4 -14 -6.5 -38.5t-7 -49t-7.5 -43t-3 -33.5q0 -11 1 -23q0 -1 4.5 -41.5t6.5 -50.5q11 -45 40 -45q21 0 39.5 10.5t39.5 30.5q53 50 82.5 105.5t43.5 129.5q4 20 6 34.5t7 25.5q1 4 2.5 39t1.5 60
q0 32 -1 40q-4 31 -25 55z" />
    <glyph glyph-name="Atilde" unicode="&#xc3;" 
d="M413 765h-166q-21 0 -35 15t-14 37q0 21 14 37t36 16l165 -1q23 0 37 -15t14 -38q0 -22 -15.5 -36.5t-35.5 -14.5zM667 46q-21 -18 -45.5 -29.5t-49.5 -11.5q-15 0 -27 3.5t-27 12.5q-41 23 -51.5 38.5t-21.5 66.5l-4 -7q-38 -69 -66 -98q-46 -47 -104 -47
q-30 0 -78.5 12t-68.5 27q-3 2 -23 19t-24 22q-27 28 -40 98q-9 50 -9 107q0 16 3 39q0 3 7 48t11 62.5t20 68.5q4 15 8 31l21 44l13 32q7 16 19 33.5t26 33.5q35 46 64 67q40 29 88 29t76 -14q21 -10 63 -48l14 -12q14 11 31.5 15.5t37.5 4.5q31 0 45.5 -10t14.5 -26
q0 -8 -1.5 -18t-2.5 -15q-7 -38 -10.5 -74t-3.5 -80q0 -9 -2 -27t-2 -27q0 -16 -2.5 -44.5t-2.5 -34.5v-94l2 -93l-1 -17q0 -16 2 -24.5t12 -8.5q17 0 34 5.5t44 16.5l22 7q12 0 18.5 -9.5t7.5 -19.5q0 -14 -13 -30q-8 -11 -24 -24zM416 599q-14 16 -26.5 24t-27.5 8
q-27 0 -59 -33q-19 -19 -45 -56q-22 -31 -39 -72q-12 -29 -27 -77q-4 -14 -6.5 -38.5t-7 -49t-7.5 -43t-3 -33.5q0 -11 1 -23q0 -1 4.5 -41.5t6.5 -50.5q11 -45 40 -45q21 0 39.5 10.5t39.5 30.5q53 50 82.5 105.5t43.5 129.5q4 20 6 34.5t7 25.5q1 4 2.5 39t1.5 60
q0 32 -1 40q-4 31 -25 55z" />
    <glyph glyph-name="Otilde" unicode="&#xd5;" horiz-adv-x="714" 
d="M439 765h-166q-21 0 -35 15t-14 37q0 21 14 37t36 16l166 -1q22 0 36 -15t14 -38q0 -22 -15.5 -36.5t-35.5 -14.5zM676 268q-11 -50 -21 -76.5t-35 -68.5q-8 -14 -16.5 -28.5t-30.5 -34.5l-31 -26q-34 -28 -88.5 -42t-104.5 -14q-43 0 -86 18q-31 13 -76 42l-71 48
q-9 5 -26 32.5t-21 34.5q-21 37 -30.5 89t-9.5 102q0 60 14 118q11 47 37 111q13 30 21 47q12 24 28 43q30 37 76 61.5t93 24.5q30 0 51 -10q37 -17 47 -19.5t23 -11.5t26 -17q33 -16 67 -32q39 -20 62 -40q32 -27 38 -33q22 -22 44 -69q11 -25 17 -48.5t9 -52.5l3 -51
q0 -41 -1.5 -56t-7.5 -41zM391 627q-27 5 -47 5q-52 0 -85 -38q-25 -28 -50 -92q-8 -21 -13 -34q-10 -26 -10 -34q0 -26 -9 -95q-5 -38 -5 -58q0 -47 12 -88.5t40 -70.5q24 -26 52 -40.5t61 -14.5q51 0 96 36q36 29 69 84q21 35 34 84t13 92q0 87 -40 163q-46 87 -118 101z
" />
    <glyph glyph-name="OE" unicode="&#x152;" horiz-adv-x="1172" 
d="M1118 112l-51 -34q-11 -7 -34 -18q-31 -15 -61 -29q-8 -4 -18.5 -6.5t-16.5 -3.5l-42 -16q-17 -2 -25 -3l-16 -4q-36 -9 -57 -13t-48 -4q-53 0 -98 16q-52 19 -84 57q-23 -28 -50.5 -42t-73.5 -24.5t-89 -10.5t-87 18q-32 13 -78 43l-45 30q-21 14 -29 18.5t-25 32
t-21 34.5q-21 38 -30 88t-9 103q0 60 14 118q11 47 37 111q13 30 21 47q12 23 29 43q31 38 77.5 62t93.5 24q24 0 41 -5.5t41 -19.5q5 -2 13.5 -4t12.5 -3q9 -3 19.5 -10.5t20.5 -13.5q58 -34 117 -68q20 22 39 34t52 26l140 57q13 5 108 14q51 5 57 5q54 0 95 -31
q46 -35 46 -91q0 -35 -15 -60q-19 -31 -54 -31q-38 0 -61 27.5t-26 65.5l-12 1q-51 0 -149.5 -38t-123.5 -72q-12 -17 -12 -33q0 -28 33 -37q19 -5 57 -5l76 3q19 0 55.5 1t53.5 1h22q18 0 53 10q7 0 21 -26t15 -35v-23q0 -23 -9.5 -34.5t-33.5 -11.5l-51 2q-43 0 -82 -6
t-83 -17.5t-66 -27.5t-49 -57q-12 -18 -23 -39t-11 -35q0 -17 17 -39q13 -17 21 -21.5t25 -4.5q19 0 46 2.5t52 5.5q13 0 28 3t30.5 6t24.5 5q17 6 26 8q45 12 68 19q35 11 66 26l39 20q12 8 25 16q19 11 27 11q15 0 28 -14t13 -29q0 -18 -16 -37q-10 -12 -31 -27zM395 627
q-27 5 -49 5q-53 0 -86 -38q-25 -28 -49 -92q-10 -23 -14 -34q-10 -26 -10 -34q0 -26 -9 -95q-5 -38 -5 -58q0 -47 12 -88.5t38 -69t54.5 -42t61.5 -14.5q50 0 97 37q39 31 71 84q22 35 35 83t13 92q0 85 -41 162q-47 88 -119 102z" />
    <glyph glyph-name="oe" unicode="&#x153;" horiz-adv-x="655" 
d="M684 111l-22 -30q-22 -28 -50 -47q-22 -15 -59 -33q-19 -8 -44 -15t-44 -7q-22 0 -58 14q-17 7 -31 13t-22 11.5t-14 15.5q-25 -28 -49.5 -40.5t-64.5 -12.5q-25 0 -35 1.5t-28 6.5q-40 13 -64 35t-59 101q-8 18 -9.5 38.5t-1.5 37.5v11q0 33 7 67l16 54q1 4 18.5 35
t20.5 34l26 24q17 15 29 21q17 9 40 9q31 0 66 -22.5t58 -51.5q3 7 6 15q1 3 10 15q17 28 27 37q19 18 45 18t57.5 -9.5t57.5 -24.5l43 -22q28 -15 45 -45t17 -63q0 -27 -15.5 -55t-37.5 -44q-29 -21 -44 -28.5t-44 -14.5t-42.5 -9.5t-31.5 -2.5l-1 -12q0 -37 8 -52t37 -15
t43 5q14 7 24 11q32 13 55 27q30 19 48.5 40t20.5 23q14 14 26 14q15 0 24.5 -11.5t9.5 -27.5q0 -10 -3 -18t-11 -21zM478 369q-31 0 -49 -51q-12 -35 -17 -87q39 5 66.5 33.5t27.5 68.5q0 16 -7.5 26t-20.5 10zM266 234q-11 17 -16 25q-9 15 -12 27l2 -2h-1q-2 3 -5 21.5
t-3 35.5l-10 3q-15 0 -30 -26q-6 -10 -19 -41q-18 -45 -18 -104q0 -27 3.5 -48.5t14.5 -37.5q8 -12 18 -19.5t22 -7.5q23 0 40 32q9 17 21 54q6 15 9 25t3 20q0 7 -5 17t-14 26z" />
    <glyph glyph-name="endash" unicode="&#x2013;" horiz-adv-x="629" 
d="M455 277h-279q-28 0 -48 19t-20 50t19 50t49 19h278q28 0 46.5 -19.5t18.5 -48.5t-17.5 -49.5t-46.5 -20.5z" />
    <glyph glyph-name="emdash" unicode="&#x2014;" horiz-adv-x="549" 
d="M508 195q-15 -3 -31 -5t-49 -2h-46l-234 -3q-32 0 -51.5 3t-34.5 16l-6 3l-3 2q-9 12 -19 29q-13 22 -14 29q0 14 19.5 19.5t44 9t56 5.5t60.5 2l108 3q31 0 60.5 -0.5t63 -4t44.5 -6.5q25 -7 33.5 -23.5t11.5 -25.5q7 -18 7 -27q0 -12 -9 -19q-5 -4 -11 -5z" />
    <glyph glyph-name="quotedblleft" unicode="&#x201c;" horiz-adv-x="373" 
d="M333 612q-2 -14 -2 -21q1 -19 1 -28q0 -32 -11 -62q-16 -43 -46 -43l-33 6q-21 4 -31 11q-14 11 -14 36q0 32 7 66q13 55 27 111q8 39 14 47q10 13 48 13q27 0 38.5 -13.5t11.5 -41.5q0 -41 -10 -81zM165 613q-2 -7 -2 -21q1 -19 1 -28q0 -32 -11 -62q-16 -43 -47 -43
l-32 6q-21 4 -31 11q-14 11 -14 36q0 32 7 66q13 55 27 111q8 39 14 47q10 13 48 13q27 0 38.5 -13.5t11.5 -41.5q0 -41 -10 -81z" />
    <glyph glyph-name="quotedblright" unicode="&#x201d;" horiz-adv-x="374" 
d="M336 637l-26 -116q-8 -39 -14 -47q-12 -15 -48 -15q-29 0 -39.5 15.5t-10.5 45.5q0 23 1.5 34.5t8.5 40.5q3 12 3 25q-1 17 -1 26q0 32 11 61q16 42 46 42q33 0 50 -7q28 -12 28 -42q0 -16 -2 -27.5t-7 -35.5zM167 637l-26 -116q-8 -39 -14 -47q-12 -15 -48 -15
q-29 0 -39.5 15.5t-10.5 45.5q0 23 1.5 33.5t7.5 41.5q3 12 3 25q-1 17 -1 26q0 32 11 61q16 42 46 42q43 0 61 -13t18 -36q0 -16 -2 -27.5t-7 -35.5z" />
    <glyph glyph-name="quoteleft" unicode="&#x2018;" horiz-adv-x="193" 
d="M154 612q-2 -8 -2 -24v-25q0 -33 -10 -62q-15 -43 -43 -43l-30 6q-21 4 -29 11q-12 10 -12 36q0 34 11 83t21 94q6 34 8 39q8 21 49 21q25 0 35.5 -13.5t10.5 -41.5q0 -39 -9 -81z" />
    <glyph glyph-name="quoteright" unicode="&#x2019;" horiz-adv-x="194" 
d="M157 637l-24 -116q-7 -39 -13 -47q-11 -15 -45 -15q-27 0 -36.5 15t-9.5 46q0 39 10 75q2 14 2 22q-1 19 -1 29q0 32 10 61q14 42 42 42q31 0 47 -7q27 -12 27 -42q0 -16 -2 -27.5t-7 -35.5z" />
    <glyph glyph-name="ydieresis" unicode="&#xff;" horiz-adv-x="477" 
d="M315 480q-25 0 -42.5 19.5t-17.5 46.5l1 12q4 23 33 45t51 22q18 0 30 -19q8 -12 14 -36l3 -14l4 -15q0 -28 -28 -46q-23 -15 -48 -15zM145 480q-26 0 -43.5 19.5t-17.5 46.5q0 28 30 53.5t56 25.5q21 0 34 -24q6 -11 15 -44l2 -15q0 -29 -28 -47q-23 -15 -48 -15z
M185 332q0 -19 -2 -65t-2 -49q0 -33 0.5 -66t6.5 -33q7 0 17 16q3 4 12 23q13 28 21 46q15 34 17 46l34 136q6 56 12 68q11 20 33 20q12 0 33 -5t35.5 -12.5t14.5 -27.5q0 -18 -3 -39.5t-7 -52t-6 -93t-2 -118.5l-2 -52q0 -10 -1 -16q-4 -25 -4 -27l2 -60q0 -16 -2.5 -34.5
t-2.5 -25.5q-1 -10 -1.5 -22t-0.5 -18v-13q0 -12 -4.5 -23.5t-18.5 -30.5q-18 -24 -50 -34.5t-63 -10.5q-30 0 -55.5 9.5t-58.5 28.5q-20 12 -46 34q-33 28 -33 42t8.5 19t19.5 5q35 0 76 -21t84 -43q17 0 20 26l13 102l3 72l5 58q-23 -31 -48 -48q-32 -22 -65 -22
q-35 0 -63 19.5t-36.5 50t-13 76t-4.5 82.5q0 52 2.5 81t14.5 65q5 17 15.5 26.5t28.5 9.5q23 0 49 -18.5t26 -43.5q0 -8 -3 -18t-5 -19z" />
    <glyph glyph-name="Ydieresis" unicode="&#x178;" horiz-adv-x="678" 
d="M417 761q-26 0 -43.5 19.5t-17.5 46.5v12q4 22 34.5 44.5t52.5 22.5q18 0 30 -19q9 -15 14 -36l3 -14l4 -15q0 -28 -28 -46q-23 -15 -49 -15zM245 761q-26 0 -44 20t-18 46q0 27 31 53t56 26q22 0 35 -24q6 -10 15 -44l2 -15q0 -29 -28 -47q-23 -15 -49 -15zM456 131
q-31 -60 -64 -92q-46 -44 -101 -44q-37 0 -75 16q-14 6 -41 21q-52 31 -73 77q-16 35 -25 106q-3 23 -4 57.5t-1 38.5q0 89 7 174.5t23 168.5q10 49 23 64q17 19 65 19q21 0 43.5 -7.5t22.5 -24.5q0 -7 -2.5 -14.5t-8.5 -20t-8.5 -27t-7.5 -58.5l-11 -59q-8 -44 -10.5 -109
t-2.5 -141q0 -41 2 -76.5t7 -41.5q14 -44 16 -48q14 -30 35 -30q19 0 31 9t25 28q19 26 29 41q20 29 25 43l42 106q7 23 15 46q5 16 14 51t16.5 82.5t11.5 73.5q1 7 6 41.5t5 53.5q0 42 44 42l30 -2l23 3q15 0 23 -13.5t8 -26.5t-3 -29.5t-5 -33t-3.5 -55t-4.5 -65.5
q-1 -41 -6 -81v-49q0 -26 -1 -42q-4 -64 -4 -70q0 -55 -10 -231q-5 -88 -5 -139q0 -13 1 -39t1 -39l2 -25q0 -53 -54 -53q-21 0 -39.5 6.5t-34.5 22.5l-2 118l3 80q0 30 1 61l2 62q0 16 2.5 43t2.5 31z" />
    <glyph glyph-name="fraction" unicode="&#x2215;" horiz-adv-x="72" 
d="M149 612l-148 -578q-4 -18 -9 -36q-9 -22 -25 -24h-7q-14 0 -28.5 7t-14.5 22q3 21 4 29q22 84 63 233q49 180 51 187q22 84 48 190q4 15 10 23t20 8q13 0 28 -6t15 -18q0 -6 -1.5 -13.5t-5.5 -23.5z" />
    <glyph glyph-name="currency" unicode="&#xa4;" horiz-adv-x="461" 
d="M30 486q0 16 23 35t37 19q11 0 36.5 -21.5t30.5 -21.5l9 2q12 4 28 8t37 4q18 0 31.5 -3t41.5 -12l3 -1q10 0 32.5 27.5t33.5 27.5q14 0 34 -23t20 -37q0 -11 -22 -35t-22 -35q0 -5 3 -12q2 -6 6 -14.5t6 -23t2 -28.5q0 -26 -10 -58l-5 -14q0 -7 24 -31t24 -37
q0 -14 -24 -33t-37 -19t-27 12q-33 28 -34 28q-5 0 -26 -9t-56 -9q-32 0 -55 10q-6 3 -10 4q-10 4 -12 4q-6 0 -29 -22t-35 -22q-13 0 -32 24.5t-19 37.5q0 11 12 25q27 32 27 34q0 1 -5 19q-10 24 -10 55q0 16 3 33.5t10 31.5l4 8q3 6 3 9q0 6 -35 37q-16 14 -16 26z
M231 430q-37 0 -62.5 -25.5t-25.5 -62.5t26 -62t62 -25t61.5 25.5t25.5 61.5t-25 62t-62 26z" />
    <glyph glyph-name="guilsinglleft" unicode="&#x2039;" horiz-adv-x="258" 
d="M191 -13q-5 0 -21 5t-20 7q-5 3 -14.5 21t-12.5 23q-12 24 -32 54q-53 81 -58 89q-11 20 -11 29q0 7 3 13q2 4 9 12l4 5q12 13 23 36q5 10 12 27t35 56q13 18 20 34l9 18q4 10 21 21t27 11q18 0 34 -24.5t16 -42.5q0 -10 -10 -22l-4 -4l1 -4v-14l-35 -42q-26 -39 -51 -77
q9 -15 17 -25q3 -4 21 -23q3 -4 10 -15t10 -16l19 -28.5t13 -35.5q1 -2 5.5 -9.5t4.5 -12.5q0 -12 -15 -39t-30 -27z" />
    <glyph glyph-name="guilsinglright" unicode="&#x203a;" horiz-adv-x="258" 
d="M216 187l-21 -30q-13 -28 -25 -56q-26 -41 -51 -82q-5 -10 -21 -21t-27 -11q-18 0 -34 25t-16 41q0 8 5 15.5t8 11.5v19q43 53 74 100l12 18q-15 24 -38 49q-5 5 -10 13.5t-10 17.5q-10 14 -19.5 29t-12.5 34q-5 11 -9 23q0 13 15.5 39.5t30.5 26.5q4 0 19 -5t19 -8
q5 -4 15 -21.5t13 -22.5q12 -22 33 -54q46 -70 57 -89.5t11 -28.5q0 -4 -8 -17t-10 -16z" />
    <glyph glyph-name="fi" unicode="&#xf001;" horiz-adv-x="512" 
d="M395 430q-31 0 -51.5 23.5t-20.5 57.5v12q5 27 41.5 53.5t63.5 26.5q26 0 41 -29q5 -9 18 -52q2 -13 1 -19q0 -33 -34 -55q-28 -18 -59 -18zM569 34l-17 -16l-17 -16q-42 -23 -88 -23q-49 0 -83.5 26t-41.5 75l-3 19q-1 3 -1 10q1 12 1 18q0 7 -2 22t-2 24q0 19 2 34
t3 24l1 37q0 12 2 22.5t3 16.5q6 42 22 56t55 14q15 0 31.5 -6t21.5 -19q-4 -21 -6.5 -46.5t-4.5 -48.5q0 -21 -3 -63t-3 -63v-15q0 -23 3 -38t12 -15q6 0 56 25.5t66 25.5q12 0 18.5 -10t6.5 -20q0 -12 -9.5 -25t-22.5 -25zM385 748l2 -2l18 -66q0 -18 -19 -29t-34 -11
q-9 0 -19 4.5t-13 12.5q-8 27 -11 37q-6 17 -22 33q-18 -5 -31 -25q-6 -10 -18 -38q-16 -36 -22 -78q-2 -12 -8 -81q0 -15 -2 -49.5t-2 -37.5l60 -3q20 0 38 -20t18 -41q0 -32 -46 -39l-70 -4l-10 -3q-3 -26 -5 -48.5t-2 -33.5l1 -52q0 -12 -1 -37t-1 -38q0 -19 1.5 -40
t3.5 -30l1 -7q0 -19 -13.5 -27t-33.5 -8l-56 2q-18 0 -27 19t-9 40q0 8 2 25t2 27q3 33 3.5 75.5t0.5 65.5l2 60q-49 1 -72 17.5t-23 41.5q0 22 15.5 31.5t35.5 9.5l24 -1q23 0 24 10q0 36 2.5 66t8.5 78q0 3 4 44t8 60q14 58 21 77t21 41q20 32 43 50q29 23 63 23
q43 0 85.5 -30t61.5 -71z" />
    <glyph glyph-name="fl" unicode="&#xf002;" horiz-adv-x="529" 
d="M577 2q-36 -28 -80 -28q-20 0 -40.5 6.5t-41.5 18.5q-48 29 -58.5 52t-10.5 81l-6 39v43q0 10 -1 21l-2 22q0 141 21 309q4 36 4.5 51.5t0.5 24.5l-12 -2q-13 0 -21.5 5t-10.5 12q-8 27 -11 37q-6 17 -22 33q-18 -5 -31 -25q-6 -10 -18 -38q-16 -36 -22 -78
q-2 -12 -8 -81q0 -15 -2 -49.5t-2 -37.5q15 -2 29.5 -2h30.5q19 0 37.5 -20.5t18.5 -41.5q0 -32 -46 -39l-70 -4l-10 -3q-3 -26 -5 -48.5t-2 -33.5l2 -52l-3 -75q0 -8 2 -36.5t4 -33.5v-7q0 -19 -13.5 -27t-33.5 -8l-56 2q-18 0 -27 19t-9 40q0 8 2 25t2 27q3 33 3.5 75.5
t0.5 65.5l2 60q-49 1 -71.5 17.5t-22.5 41.5q0 22 15.5 31.5t34.5 9.5l24 -1q23 0 25 10q0 38 1 50.5t9 93.5q0 3 4 44t8 60q9 40 16 60q11 35 27 58q20 32 43 50q29 23 62 23q38 0 77 -24t61 -59q12 11 27 14.5t35 3.5h22q28 0 41.5 -11t13.5 -28q0 -7 -2 -16t-4 -16
q-6 -24 -10.5 -54.5t-9 -70.5t-7 -64.5t-2.5 -54.5l-6 -63l-3 -59q0 -28 -2.5 -74.5t-2.5 -56.5q0 -13 1 -39t1 -39q0 -29 3 -47t14 -34q17 2 29 7q16 12 49.5 29t42.5 17q14 0 20 -11t6 -22q0 -18 -20 -42q-15 -18 -34 -33z" />
    <glyph glyph-name="daggerdbl" unicode="&#x2021;" horiz-adv-x="480" 
d="M287 499q18 2 37.5 6t34 6.5t22.5 4t19 1.5q25 0 38 -17.5t13 -43.5q0 -37 -18.5 -52.5t-52.5 -15.5q-26 0 -40 1.5t-48 7.5l3 -56l-3 -42l112 18q25 0 38 -17.5t13 -43.5q0 -37 -18.5 -52.5t-52.5 -15.5q-27 0 -40.5 1.5t-49.5 7.5q4 -47 4.5 -64t0.5 -36
q0 -140 -21 -209.5t-66 -69.5q-17 0 -30 10.5t-13 30.5l1 15q6 53 9 118.5t3 120.5l3 84l-85 -2q-32 0 -46 7q-24 12 -24 46q0 25 11 45q15 26 41 26q8 0 17 -2t21 -4q31 -7 65 -7l-3 42l2 49l-84 3q-29 0 -48 11q-25 14 -25 44q0 23 12.5 47t37.5 24q9 0 15 -1
q5 -1 22.5 -6t32.5 -8.5t30 -6.5q-2 15 -4 33.5t-10 49t-10 40t-2 19.5q0 28 24 41q17 9 42 9q35 0 55 -15.5t20 -53.5q0 -17 -3 -51t-3 -52q1 -17 1 -25z" />
    <glyph glyph-name="periodcentered" unicode="&#xb7;" horiz-adv-x="237" 
d="M108 150q-29 0 -47.5 23.5t-18.5 55.5l1 14q4 26 37.5 53.5t56.5 27.5q21 0 34 -23q9 -15 15 -44l7 -35q0 -33 -31 -54q-27 -18 -54 -18z" />
    <glyph glyph-name="periodcentered" unicode="&#x2219;" horiz-adv-x="237" 
d="M108 150q-29 0 -47.5 23.5t-18.5 55.5l1 14q4 26 37.5 53.5t56.5 27.5q21 0 34 -23q9 -15 15 -44l7 -35q0 -33 -31 -54q-27 -18 -54 -18z" />
    <glyph glyph-name="quotesinglbase" unicode="&#x201a;" horiz-adv-x="194" 
d="M157 50l-24 -116q-7 -39 -13 -47q-11 -15 -45 -15q-27 0 -36.5 15t-9.5 46q0 39 10 75q2 14 2 22q-1 19 -1 29q0 32 10 61q14 42 42 42q31 0 47 -7q27 -12 27 -42q0 -16 -2 -27.5t-7 -35.5z" />
    <glyph glyph-name="quotedblbase" unicode="&#x201e;" horiz-adv-x="374" 
d="M336 50l-26 -116q-8 -39 -14 -47q-12 -15 -48 -15q-29 0 -39.5 15.5t-10.5 45.5q0 23 1.5 34.5t8.5 40.5q3 12 3 25q-1 17 -1 26q0 32 11 61q16 42 46 42q33 0 50 -7q28 -12 28 -42q0 -16 -2 -27.5t-7 -35.5zM167 50l-26 -116q-8 -39 -14 -47q-12 -15 -48 -15
q-29 0 -39.5 15.5t-10.5 45.5q0 23 1.5 33.5t7.5 41.5q3 12 3 25q-1 17 -1 26q0 32 11 61q16 42 46 42q43 0 61 -13t18 -36q0 -16 -2 -27.5t-7 -35.5z" />
    <glyph glyph-name="perthousand" unicode="&#x2030;" horiz-adv-x="996" 
d="M963 103q-18 -72 -45 -95t-68 -23q-9 0 -23.5 2.5t-22.5 5.5l4 -2q-22 6 -30 8q-20 8 -30 11q-38 13 -57 43q-15 24 -21 68l-2 20q0 19 1 27t9 43q14 53 35 76q28 31 78 31q14 0 22 -1t25 -4q49 -9 74 -30t43 -69q13 -36 13 -69q0 -19 -5 -42zM808 187q-8 -22 -12.5 -42
t-4.5 -38q0 -13 7 -24.5t16 -11.5q18 0 26 24t8 47q0 33 -2 58.5t-12 25.5q-6 0 -15 -17.5t-11 -21.5zM583 650q-10 -17 -15 -24q-3 -4 -12 -15q-34 -59 -68 -119l-66 -120l-55 -95l-84 -159q-7 -13 -30 -54q-19 -34 -27 -56q-3 -10 -11.5 -14t-18.5 -4q-19 0 -43.5 22.5
t-24.5 41.5q0 20 39 100q27 55 79 151q30 55 61 110l59 106l54 91l25 45l35 56q9 15 14 20q10 10 22 10q8 0 18 -3t25 -7t27 -11q20 -12 20 -28q0 -7 -5.5 -17t-17.5 -27zM253 411l-2 -2q-33 -6 -65 -12q-13 0 -28.5 4t-23.5 6q-46 13 -68.5 33.5t-38.5 66.5q-6 15 -6 32
q0 25 7 55t17 61t21.5 42.5t37.5 23.5t57 12q70 0 116 -47t46 -119q0 -25 -4.5 -48t-14 -43t-21.5 -36q-16 -23 -30 -29zM178 642q-21 0 -28.5 -34t-7.5 -66q0 -21 2.5 -31t12 -22t19.5 -12q5 0 12 5q13 14 17.5 34.5t4.5 49.5q0 30 -4 46q-8 30 -28 30zM650 102
q-18 -72 -45 -95t-67 -23q-9 0 -23.5 2.5t-22.5 5.5l3 -2q-22 6 -30 8q-20 8 -29 11q-38 13 -57 43q-15 24 -22 68l-2 20q0 19 1 27t9 43q13 51 36 76q28 31 78 31q14 0 22 -1t25 -4q50 -9 74 -30t42 -69q7 -18 10.5 -35.5t3.5 -33.5q0 -21 -6 -42zM496 186
q-8 -22 -12.5 -42t-4.5 -38q0 -13 7 -24.5t15 -11.5q19 0 27 23.5t8 47.5q0 34 -2 59t-13 25q-6 0 -15 -16q-5 -8 -10 -23z" />
    <glyph glyph-name="Acircumflex" unicode="&#xc2;" 
d="M413 761q-14 0 -52 16q-15 6 -29 13q-27 -11 -51 -20t-32 -9q-22 0 -37 15t-15 39q0 35 32 49q48 21 52 23q41 17 51 17q7 0 34 -10.5t68 -28.5q31 -13 31 -49q0 -23 -15 -39t-37 -16zM667 46q-21 -18 -45.5 -29.5t-49.5 -11.5q-15 0 -27 3.5t-27 12.5q-41 23 -51.5 38.5
t-21.5 66.5l-4 -7q-38 -69 -66 -98q-46 -47 -104 -47q-30 0 -78.5 12t-68.5 27q-3 2 -23 19t-24 22q-27 28 -40 98q-9 50 -9 107q0 16 3 39q0 3 7 48t11 62.5t20 68.5q4 15 8 31l21 44l13 32q7 16 19 33.5t26 33.5q35 46 64 67q40 29 88 29t76 -14q21 -10 63 -48l14 -12
q14 11 31.5 15.5t37.5 4.5q31 0 45.5 -10t14.5 -26q0 -8 -1.5 -18t-2.5 -15q-7 -38 -10.5 -74t-3.5 -80q0 -9 -2 -27t-2 -27q0 -16 -2.5 -44.5t-2.5 -34.5v-94l2 -93l-1 -17q0 -16 2 -24.5t12 -8.5q17 0 34 5.5t44 16.5l22 7q12 0 18.5 -9.5t7.5 -19.5q0 -14 -13 -30
q-8 -11 -24 -24zM416 599q-14 16 -26.5 24t-27.5 8q-27 0 -59 -33q-19 -19 -45 -56q-22 -31 -39 -72q-12 -29 -27 -77q-4 -14 -6.5 -38.5t-7 -49t-7.5 -43t-3 -33.5q0 -11 1 -23q0 -1 4.5 -41.5t6.5 -50.5q11 -45 40 -45q21 0 39.5 10.5t39.5 30.5q53 50 82.5 105.5
t43.5 129.5q4 20 6 34.5t7 25.5q1 4 2.5 39t1.5 60q0 32 -1 40q-4 31 -25 55z" />
    <glyph glyph-name="Ecircumflex" unicode="&#xca;" horiz-adv-x="713" 
d="M438 761q-14 0 -52 16q-15 6 -29 13q-27 -11 -51 -20t-32 -9q-22 0 -37 15t-15 39q0 35 33 49q44 20 70 30t32 10q7 0 34 -10.5t68 -28.5q32 -13 32 -49q0 -23 -15 -39t-38 -16zM657 112q-31 -21 -36 -25q-28 -18 -60 -32q-12 -5 -21 -9.5t-24 -13.5l-19 -6l-18 -5
q-22 -8 -43 -16l-70 -14q-33 -9 -68 -9q-28 0 -64 6.5t-60 18.5q-5 2 -23 11.5t-22 13.5l-21 21q-20 19 -28 28q-13 15 -23 32t-16.5 36.5t-6.5 37.5q0 25 10 49.5t26 46.5q25 33 70 58q32 18 87 38q-96 22 -136 61q-35 34 -35 84q0 57 50 102q33 30 100 61q32 15 74 31
q19 7 62 23q9 4 80 12t84 8q54 0 95.5 -33t41.5 -90q0 -34 -15 -59q-18 -30 -53 -30t-60 28t-25 64h-11q-28 0 -72 -12.5t-76.5 -26.5t-56.5 -25q-37 -17 -49 -27q-16 -14 -29 -24q-26 -22 -26 -26q0 -6 15 -9q49 -20 138 -26q46 -3 145 -3h25q16 0 24 3l11 2l14 5
q7 0 21 -26t14 -35v-19q0 -36 -16 -45q-4 -3 -54 -10.5t-131 -39.5q-8 -3 -83 -35q-24 -10 -46.5 -19.5t-43.5 -26.5l-25 -18q-20 -15 -29 -25q-16 -17 -16 -33q0 -31 51 -39q20 -3 50 -3h18q72 0 162.5 21t159.5 53l19 9.5t20 11.5t24 15q19 11 26 11q15 0 28.5 -13.5
t13.5 -29.5q0 -17 -17 -37q-12 -14 -31 -27z" />
    <glyph glyph-name="Aacute" unicode="&#xc1;" 
d="M456 807q-55 -22 -64 -26q-51 -20 -62 -20q-21 0 -36 15t-15 37q0 36 34 50q38 17 64 27q49 20 61 20q22 0 37 -15t15 -38q0 -36 -34 -50zM667 46q-21 -18 -45.5 -29.5t-49.5 -11.5q-15 0 -27 3.5t-27 12.5q-41 23 -51.5 38.5t-21.5 66.5l-4 -7q-38 -69 -66 -98
q-46 -47 -104 -47q-30 0 -78.5 12t-68.5 27q-3 2 -23 19t-24 22q-27 28 -40 98q-9 50 -9 107q0 16 3 39q0 3 7 48t11 62.5t20 68.5q4 15 8 31l21 44l13 32q7 16 19 33.5t26 33.5q35 46 64 67q40 29 88 29t76 -14q21 -10 63 -48l14 -12q14 11 31.5 15.5t37.5 4.5
q31 0 45.5 -10t14.5 -26q0 -8 -1.5 -18t-2.5 -15q-7 -38 -10.5 -74t-3.5 -80q0 -9 -2 -27t-2 -27q0 -16 -2.5 -44.5t-2.5 -34.5v-94l2 -93l-1 -17q0 -16 2 -24.5t12 -8.5q17 0 34 5.5t44 16.5l22 7q12 0 18.5 -9.5t7.5 -19.5q0 -14 -13 -30q-8 -11 -24 -24zM416 599
q-14 16 -26.5 24t-27.5 8q-27 0 -59 -33q-19 -19 -45 -56q-22 -31 -39 -72q-12 -29 -27 -77q-4 -14 -6.5 -38.5t-7 -49t-7.5 -43t-3 -33.5q0 -11 1 -23q0 -1 4.5 -41.5t6.5 -50.5q11 -45 40 -45q21 0 39.5 10.5t39.5 30.5q53 50 82.5 105.5t43.5 129.5q4 20 6 34.5t7 25.5
q1 4 2.5 39t1.5 60q0 32 -1 40q-4 31 -25 55z" />
    <glyph glyph-name="Edieresis" unicode="&#xcb;" horiz-adv-x="713" 
d="M435 761q-26 0 -44 20t-18 46l1 12q4 22 34.5 44.5t52.5 22.5q19 0 31 -19q8 -12 14 -36l3 -14l4 -15q0 -28 -29 -46q-24 -15 -49 -15zM261 761q-26 0 -44 20t-18 46q0 27 31 53t57 26q22 0 35 -24q6 -10 15 -44l2 -15q0 -29 -28 -47q-23 -15 -50 -15zM657 112
q-31 -21 -36 -25q-28 -18 -60 -32q-12 -5 -21 -9.5t-24 -13.5l-19 -6l-18 -5q-22 -8 -43 -16l-70 -14q-33 -9 -68 -9q-28 0 -64 6.5t-60 18.5q-5 2 -23 11.5t-22 13.5l-21 21q-20 19 -28 28q-13 15 -23 32t-16.5 36.5t-6.5 37.5q0 25 10 49.5t26 46.5q25 33 70 58
q32 18 87 38q-96 22 -136 61q-35 34 -35 84q0 57 50 102q33 30 100 61q32 15 74 31q19 7 62 23q9 4 80 12t84 8q54 0 95.5 -33t41.5 -90q0 -34 -15 -59q-18 -30 -53 -30t-60 28t-25 64h-11q-28 0 -72 -12.5t-76.5 -26.5t-56.5 -25q-37 -17 -49 -27q-16 -14 -29 -24
q-26 -22 -26 -26q0 -6 15 -9q49 -20 138 -26q46 -3 145 -3h25q16 0 24 3l11 2l14 5q7 0 21 -26t14 -35v-19q0 -36 -16 -45q-4 -3 -54 -10.5t-131 -39.5q-8 -3 -83 -35q-24 -10 -46.5 -19.5t-43.5 -26.5l-25 -18q-20 -15 -29 -25q-16 -17 -16 -33q0 -31 51 -39q20 -3 50 -3
h18q72 0 162.5 21t159.5 53l19 9.5t20 11.5t24 15q19 11 26 11q15 0 28.5 -13.5t13.5 -29.5q0 -17 -17 -37q-12 -14 -31 -27z" />
    <glyph glyph-name="Egrave" unicode="&#xc8;" horiz-adv-x="713" 
d="M385 760q-13 0 -61 19q-33 13 -65.5 27t-32.5 51q0 22 15.5 37.5t37.5 15.5q8 0 42.5 -13t80.5 -34q35 -14 35 -50q0 -23 -15 -38t-37 -15zM657 112q-31 -21 -36 -25q-28 -18 -60 -32q-12 -5 -21 -9.5t-24 -13.5l-19 -6l-18 -5q-22 -8 -43 -16l-70 -14q-33 -9 -68 -9
q-28 0 -64 6.5t-60 18.5q-5 2 -23 11.5t-22 13.5l-21 21q-20 19 -28 28q-13 15 -23 32t-16.5 36.5t-6.5 37.5q0 25 10 49.5t26 46.5q25 33 70 58q32 18 87 38q-96 22 -136 61q-35 34 -35 84q0 57 50 102q33 30 100 61q32 15 74 31q19 7 62 23q9 4 80 12t84 8q54 0 95.5 -33
t41.5 -90q0 -34 -15 -59q-18 -30 -53 -30t-60 28t-25 64h-11q-28 0 -72 -12.5t-76.5 -26.5t-56.5 -25q-37 -17 -49 -27q-16 -14 -29 -24q-26 -22 -26 -26q0 -6 15 -9q49 -20 138 -26q46 -3 145 -3h25q16 0 24 3l11 2l14 5q7 0 21 -26t14 -35v-19q0 -36 -16 -45
q-4 -3 -54 -10.5t-131 -39.5q-8 -3 -83 -35q-24 -10 -46.5 -19.5t-43.5 -26.5l-25 -18q-20 -15 -29 -25q-16 -17 -16 -33q0 -31 51 -39q20 -3 50 -3h18q72 0 162.5 21t159.5 53l19 9.5t20 11.5t24 15q19 11 26 11q15 0 28.5 -13.5t13.5 -29.5q0 -17 -17 -37q-12 -14 -31 -27
z" />
    <glyph glyph-name="Iacute" unicode="&#xcd;" horiz-adv-x="314" 
d="M279 807q-32 -13 -63 -26q-50 -20 -58 -20q-21 0 -36.5 15.5t-15.5 36.5q0 18 8.5 30.5t24.5 19.5q37 17 62 27q48 20 60 20q21 0 35.5 -15.5t14.5 -37.5q0 -37 -32 -50zM79 625q-25 0 -50 18q-29 21 -29 50q0 23 18.5 31t50 12.5t57.5 4.5l69 -1h33q29 0 40 -3t33 -19
q9 -8 16.5 -17.5t7.5 -22.5q0 -28 -27 -39q-17 -7 -48 -7q-4 0 -10.5 -3t-9.5 -4q-6 -61 -8 -139.5t-2 -150.5l1 -231q6 -13 19 -18q18 -4 28.5 -6.5t21 -13t10.5 -26.5q0 -25 -23 -36q-14 -7 -36 -9t-34 -3.5t-29 -1.5h-41h-15q-52 0 -78 6q-48 11 -48 41q0 21 14.5 26.5
t37.5 15.5q16 6 32 13q5 10 6 17.5t1 22.5l-1 78q0 32 2 108t2 82l-1 96v16q0 42 -1.5 62.5t-8.5 50.5z" />
    <glyph glyph-name="Icircumflex" unicode="&#xce;" horiz-adv-x="314" 
d="M237 761q-12 0 -50 16q-15 6 -30 13q-26 -11 -49 -20t-30 -9q-22 0 -36.5 15.5t-14.5 38.5q0 34 31 49q25 11 51 23q40 17 49 17q8 0 34 -10.5t65 -28.5q31 -13 31 -49q0 -23 -15 -39t-36 -16zM80 625q-25 0 -50 18q-29 21 -29 50q0 23 18.5 31t50 12.5t57.5 4.5l69 -1
h33q29 0 40 -3t33 -19q9 -8 16.5 -17.5t7.5 -22.5q0 -28 -27 -39q-17 -7 -48 -7q-4 0 -10.5 -3t-9.5 -4q-6 -61 -8 -139.5t-2 -150.5l1 -231q6 -13 19 -18q18 -4 28.5 -6.5t21 -13t10.5 -26.5q0 -25 -23 -36q-14 -7 -36 -9t-34 -3.5t-29 -1.5h-41h-15q-52 0 -78 6
q-48 11 -48 41q0 21 14.5 26.5t37.5 15.5q16 6 32 13q5 10 6 17.5t1 22.5l-1 78q0 32 2 108t2 82l-1 96v16q0 42 -1.5 62.5t-8.5 50.5z" />
    <glyph glyph-name="Idieresis" unicode="&#xcf;" horiz-adv-x="314" 
d="M233 761q-25 0 -42 20t-17 46v12q3 22 33 44.5t52 22.5q18 0 30 -19q8 -13 13 -36l3 -14l4 -15q0 -28 -28 -46q-23 -15 -48 -15zM66 761q-26 0 -43.5 19.5t-17.5 46.5q0 28 30 53.5t57 25.5q16 0 27 -14.5t20 -53.5l3 -15q0 -29 -28 -47q-23 -15 -48 -15zM80 625
q-25 0 -50 18q-29 21 -29 50q0 23 18.5 31t50 12.5t57.5 4.5l69 -1h33q29 0 40 -3t33 -19q9 -8 16.5 -17.5t7.5 -22.5q0 -28 -27 -39q-17 -7 -48 -7q-4 0 -10.5 -3t-9.5 -4q-6 -61 -8 -139.5t-2 -150.5l1 -231q6 -13 19 -18q18 -4 28.5 -6.5t21 -13t10.5 -26.5
q0 -25 -23 -36q-14 -7 -36 -9t-34 -3.5t-29 -1.5h-41h-15q-52 0 -78 6q-48 11 -48 41q0 21 14.5 26.5t37.5 15.5q16 6 32 13q5 10 6 17.5t1 22.5l-1 78q0 32 2 108t2 82l-1 96v16q0 42 -1.5 62.5t-8.5 50.5z" />
    <glyph glyph-name="Igrave" unicode="&#xcc;" horiz-adv-x="314" 
d="M185 760q-14 0 -60 19q-31 13 -62.5 26.5t-31.5 51.5q0 22 14.5 37.5t35.5 15.5q13 0 59 -19q52 -23 63 -28q32 -13 32 -50q0 -23 -14 -38t-36 -15zM79 625q-25 0 -50 18q-29 21 -29 50q0 23 18.5 31t50 12.5t57.5 4.5l69 -1h33q29 0 40 -3t33 -19q9 -8 16.5 -17.5
t7.5 -22.5q0 -28 -27 -39q-17 -7 -48 -7q-4 0 -10.5 -3t-9.5 -4q-6 -61 -8 -139.5t-2 -150.5l1 -231q6 -13 19 -18q18 -4 28.5 -6.5t21 -13t10.5 -26.5q0 -25 -23 -36q-14 -7 -36 -9t-34 -3.5t-29 -1.5h-41h-15q-52 0 -78 6q-48 11 -48 41q0 21 14.5 26.5t37.5 15.5
q16 6 32 13q5 10 6 17.5t1 22.5l-1 78q0 32 2 108t2 82l-1 96v16q0 42 -1.5 62.5t-8.5 50.5z" />
    <glyph glyph-name="Oacute" unicode="&#xd3;" horiz-adv-x="714" 
d="M482 807q-55 -22 -64 -26q-51 -20 -62 -20q-21 0 -36 15t-15 37q0 36 34 50q38 17 64 27q49 20 61 20q22 0 37 -15t15 -38q0 -36 -34 -50zM676 268q-11 -50 -21 -76.5t-35 -68.5q-8 -14 -16.5 -28.5t-30.5 -34.5l-31 -26q-34 -28 -88.5 -42t-104.5 -14q-43 0 -86 18
q-31 13 -76 42l-71 48q-9 5 -26 32.5t-21 34.5q-21 37 -30.5 89t-9.5 102q0 60 14 118q11 47 37 111q13 30 21 47q12 24 28 43q30 37 76 61.5t93 24.5q30 0 51 -10q37 -17 47 -19.5t23 -11.5t26 -17q33 -16 67 -32q39 -20 62 -40q32 -27 38 -33q22 -22 44 -69
q11 -25 17 -48.5t9 -52.5l3 -51q0 -41 -1.5 -56t-7.5 -41zM391 627q-27 5 -47 5q-52 0 -85 -38q-25 -28 -50 -92q-8 -21 -13 -34q-10 -26 -10 -34q0 -26 -9 -95q-5 -38 -5 -58q0 -47 12 -88.5t40 -70.5q24 -26 52 -40.5t61 -14.5q51 0 96 36q36 29 69 84q21 35 34 84t13 92
q0 87 -40 163q-46 87 -118 101z" />
    <glyph glyph-name="Ocircumflex" unicode="&#xd4;" horiz-adv-x="714" 
d="M439 761q-13 0 -52 16q-15 6 -30 13q-27 -11 -51 -20t-31 -9q-22 0 -37 15t-15 39q0 35 32 49q48 21 52 23q41 17 51 17q7 0 34 -10.5t68 -28.5q31 -13 31 -49q0 -23 -15 -39t-37 -16zM676 268q-11 -50 -21 -76.5t-35 -68.5q-8 -14 -16.5 -28.5t-30.5 -34.5l-31 -26
q-34 -28 -88.5 -42t-104.5 -14q-43 0 -86 18q-31 13 -76 42l-71 48q-9 5 -26 32.5t-21 34.5q-21 37 -30.5 89t-9.5 102q0 60 14 118q11 47 37 111q13 30 21 47q12 24 28 43q30 37 76 61.5t93 24.5q30 0 51 -10q37 -17 47 -19.5t23 -11.5t26 -17q33 -16 67 -32q39 -20 62 -40
q32 -27 38 -33q22 -22 44 -69q11 -25 17 -48.5t9 -52.5l3 -51q0 -41 -1.5 -56t-7.5 -41zM391 627q-27 5 -47 5q-52 0 -85 -38q-25 -28 -50 -92q-8 -21 -13 -34q-10 -26 -10 -34q0 -26 -9 -95q-5 -38 -5 -58q0 -47 12 -88.5t40 -70.5q24 -26 52 -40.5t61 -14.5q51 0 96 36
q36 29 69 84q21 35 34 84t13 92q0 87 -40 163q-46 87 -118 101z" />
    <glyph glyph-name="apple" unicode="&#xf000;" horiz-adv-x="824" 
d="M194 298l20 -3l-1 8q0 31 13 66q17 46 43 46q9 0 15 -7t6 -16q4 27 29 27q11 0 20 -9t9 -21l-2 -10q16 10 32.5 15.5t33.5 5.5q38 0 94 -21q122 -46 156 -46q32 0 54 18q26 22 51 83q1 2 3 4q8 7 9 8q7 6 7 21q-1 12 -1 17q0 16 5.5 24.5t13.5 8.5q11 0 14 -8l1 -39
l5 -48q-5 -24 -10 -47q-1 -7 -1.5 -15.5t-0.5 -12.5v-17q0 -3 -9 -23q-4 -9 -9.5 -21t-8 -27t-5 -32t-41.5 -47q-23 -18 -57 -37q-15 -46 -29 -78q-28 -65 -45 -65q-8 0 -14 6t-8 15q-1 -9 -6.5 -14.5t-14.5 -5.5q-22 0 -22 21q-2 -20 -22 -20q-11 0 -16.5 9t-5.5 21
q0 31 22 55q-9 11 -15 10q-16 0 -52 -48t-48 -48q-16 0 -25 18q0 -8 -5.5 -13.5t-13.5 -5.5q-7 0 -13 4q-10 7 -8 20q-6 -21 -29 -21q-10 0 -15 9t-5 19q0 21 16 37q18 15 37 31q0 8 -6.5 14t-14.5 6t-51 -23q-23 -12 -42 -12q-28 0 -50.5 19.5t-29.5 47.5q-9 -4 -21 -6
t-26 -2q-29 0 -48.5 16.5t-19.5 44.5q0 8 1 12h-4q-17 0 -25 15.5t-8 34.5q0 16 9.5 29t24.5 13l6 1q21 -11 37 -15.5t39 -4.5q24 0 54 5zM266 378q-14 0 -24 -12q-15 -18 -15 -46q0 -13 5 -21.5t18 -8.5q14 0 23 12q7 -20 27 -20q22 0 37 23.5t15 48.5v9l-8 1l2 -8
q0 -9 -6.5 -18.5t-14.5 -9.5q-19 0 -19 20q0 17 14 22q-8 6 -18 6q-11 0 -20 -6l1 -3q0 -18 -21 -25q-6 8 -6 16q0 7 5 14zM220 110q41 16 46 19q20 12 28 66q2 13 1 19q0 18 -7.5 30t-24.5 12q-18 0 -28.5 -16.5t-10.5 -35.5q0 -8 2 -25t2 -27q0 -14 -1.5 -23t-6.5 -19z
M71 242l11 23q0 4 -4 7q-5 3 -10 3q-13 0 -26 -6t-13 -18q0 -7 5.5 -12t12.5 -5q9 0 16 5l-2 -16v-30l12 -1q23 0 38 16t15 39l-1 13q-8 -4 -33 -11q-11 -4 -21 -7z" />
    <glyph glyph-name="Ograve" unicode="&#xd2;" horiz-adv-x="714" 
d="M385 760q-12 0 -60 19q-33 13 -66 27t-33 51q0 23 16 38t38 15q8 0 42.5 -13t80.5 -34q34 -14 34 -50q0 -23 -15 -38t-37 -15zM677 268q-11 -50 -21 -76.5t-35 -68.5q-8 -14 -16.5 -28.5t-30.5 -34.5l-31 -26q-34 -28 -88.5 -42t-104.5 -14q-43 0 -86 18q-31 13 -76 42
l-71 48q-9 5 -26 32.5t-21 34.5q-21 37 -30.5 89t-9.5 102q0 60 14 118q11 47 37 111q13 30 21 47q12 24 28 43q30 37 76 61.5t93 24.5q30 0 51 -10q37 -17 47 -19.5t23 -11.5t26 -17q33 -16 67 -32q39 -20 62 -40q32 -27 38 -33q22 -22 44 -69q11 -25 17 -48.5t9 -52.5
l3 -51q0 -41 -1.5 -56t-7.5 -41zM392 627q-27 5 -47 5q-52 0 -85 -38q-25 -28 -50 -92q-8 -21 -13 -34q-10 -26 -10 -34q0 -26 -9 -95q-5 -38 -5 -58q0 -47 12 -88.5t40 -70.5q24 -26 52 -40.5t61 -14.5q51 0 96 36q36 29 69 84q21 35 34 84t13 92q0 87 -40 163
q-46 87 -118 101z" />
    <glyph glyph-name="Uacute" unicode="&#xda;" horiz-adv-x="688" 
d="M471 807q-33 -13 -65 -26q-52 -20 -62 -20q-21 0 -35.5 15.5t-14.5 36.5q0 18 8.5 30.5t24.5 19.5q38 17 64 27q49 20 61 20q22 0 37.5 -15.5t15.5 -37.5q0 -36 -34 -50zM629 113q28 11 33 13q22 8 34 8q15 0 28 -8.5t13 -26.5q0 -11 -9 -24.5t-20 -22.5
q-21 -18 -40.5 -27.5t-44.5 -9.5q-52 0 -88.5 34t-45.5 87l-6 37l-6 -10q-4 -7 -27 -53q-18 -35 -31 -52q-32 -41 -64.5 -58.5t-83.5 -17.5q-11 0 -18 1t-20 4q-60 16 -80.5 31.5t-50.5 69.5q1 5 -3.5 20.5t-7.5 28.5q-11 45 -15.5 98.5t-4.5 110.5q0 111 19 217
q4 28 9 59.5t10.5 54.5t15.5 37.5t27.5 18.5t22.5 5q7 1 21 1q22 0 39.5 -10.5t17.5 -35.5q-11 -36 -19.5 -81.5t-12.5 -87.5q-6 -38 -8.5 -59t-2.5 -33l-3 -136q0 -49 3.5 -78t12 -63.5t19.5 -77.5q6 -16 24 -16q12 0 27 10q24 18 60 84q19 35 50 102q4 10 6 14
q7 15 10.5 27.5t19.5 61.5q21 66 26 107l7 63l13 101q4 45 24 61t65 16q29 0 39 -10t10 -31q0 -9 -4 -27.5t-4 -19.5l-8 -56q-14 -96 -14 -187q0 -92 4 -144q9 -110 32 -120z" />
    <glyph glyph-name="Ucircumflex" unicode="&#xdb;" horiz-adv-x="688" 
d="M428 761q-13 0 -52 16q-15 6 -30 13q-27 -11 -51 -20t-32 -9q-22 0 -36.5 15.5t-14.5 38.5q0 35 32 49q48 21 52 23q41 17 51 17q7 0 34 -10.5t68 -28.5q31 -13 31 -49q0 -23 -15 -39t-37 -16zM630 113q28 11 33 13q22 8 34 8q15 0 28 -8.5t13 -26.5q0 -11 -9 -24.5
t-20 -22.5q-21 -18 -40.5 -27.5t-44.5 -9.5q-52 0 -88.5 34t-45.5 87l-6 37l-6 -10q-4 -7 -27 -53q-18 -35 -31 -52q-32 -41 -64.5 -58.5t-83.5 -17.5q-11 0 -18 1t-20 4q-60 16 -80.5 31.5t-50.5 69.5q1 5 -3.5 20.5t-7.5 28.5q-11 45 -15.5 98.5t-4.5 110.5q0 111 19 217
q4 28 9 59.5t10.5 54.5t15.5 37.5t27.5 18.5t22.5 5q7 1 21 1q22 0 39.5 -10.5t17.5 -35.5q-11 -36 -19.5 -81.5t-12.5 -87.5q-6 -38 -8.5 -59t-2.5 -33l-3 -136q0 -49 3.5 -78t12 -63.5t19.5 -77.5q6 -16 24 -16q12 0 27 10q24 18 60 84q19 35 50 102q4 10 6 14
q7 15 10.5 27.5t19.5 61.5q21 66 26 107l7 63l13 101q4 45 24 61t65 16q29 0 39 -10t10 -31q0 -9 -4 -27.5t-4 -19.5l-8 -56q-14 -96 -14 -187q0 -92 4 -144q9 -110 32 -120z" />
    <glyph glyph-name="Ugrave" unicode="&#xd9;" horiz-adv-x="688" 
d="M374 760q-13 0 -61 19q-32 13 -65 27t-33 51q0 22 15.5 37.5t37.5 15.5q8 0 38 -11.5t86 -35.5q34 -14 34 -50q0 -23 -15 -38t-37 -15zM630 113q28 11 33 13q22 8 34 8q15 0 28 -8.5t13 -26.5q0 -11 -9 -24.5t-20 -22.5q-21 -18 -40.5 -27.5t-44.5 -9.5q-52 0 -88.5 34
t-45.5 87l-6 37l-6 -10q-4 -7 -27 -53q-18 -35 -31 -52q-32 -41 -64.5 -58.5t-83.5 -17.5q-11 0 -18 1t-20 4q-60 16 -80.5 31.5t-50.5 69.5q1 5 -3.5 20.5t-7.5 28.5q-11 45 -15.5 98.5t-4.5 110.5q0 111 19 217q4 28 9 59.5t10.5 54.5t15.5 37.5t27.5 18.5t22.5 5
q7 1 21 1q22 0 39.5 -10.5t17.5 -35.5q-11 -36 -19.5 -81.5t-12.5 -87.5q-6 -38 -8.5 -59t-2.5 -33l-3 -136q0 -49 3.5 -78t12 -63.5t19.5 -77.5q6 -16 24 -16q12 0 27 10q24 18 60 84q19 35 50 102q4 10 6 14q7 15 10.5 27.5t19.5 61.5q21 66 26 107l7 63l13 101
q4 45 24 61t65 16q29 0 39 -10t10 -31q0 -9 -4 -27.5t-4 -19.5l-8 -56q-14 -96 -14 -187q0 -92 4 -144q9 -110 32 -120z" />
    <glyph glyph-name="dotlessi" unicode="&#x131;" horiz-adv-x="244" 
d="M301 34l-15 -16l-17 -16q-40 -23 -84 -23q-48 0 -81 25.5t-40 75.5l-3 19q-1 3 -1 10q1 12 1 18q0 7 -2 22t-2 24t2 32.5t2 25.5l2 37l4 39q6 42 21 56t54 14q13 0 29.5 -6t21.5 -19q-4 -21 -6.5 -46.5t-4.5 -48.5q0 -30 -1 -48q-4 -72 -4 -78v-15q0 -21 2.5 -37
t10.5 -16q35 17 69.5 34t48.5 17q11 0 17.5 -10t5.5 -20q0 -11 -10 -25.5t-20 -24.5z" />
    <glyph glyph-name="circumflex" unicode="&#x2c6;" horiz-adv-x="227" 
d="M191 480q-9 0 -38 12q-20 8 -40 17q-24 -11 -39 -17q-29 -12 -39 -12q-22 0 -36.5 15.5t-14.5 38.5q0 35 32 49q39 18 65.5 29t32.5 11q9 0 47 -16q11 -5 50 -23q30 -13 30 -49q0 -23 -14 -39t-36 -16z" />
    <glyph glyph-name="tilde" unicode="&#x2dc;" horiz-adv-x="230" 
d="M193 484h-158q-21 0 -34 15t-13 37t13.5 37.5t33.5 15.5l159 -1q21 0 34.5 -15.5t13.5 -37.5q0 -21 -15 -36t-34 -15z" />
    <glyph glyph-name="macron" unicode="&#xaf;" horiz-adv-x="227" 
d="M192 484h-158q-21 0 -34 15t-13 37t13.5 37.5t33.5 15.5l159 -1q21 0 34.5 -15.5t13.5 -37.5q0 -21 -15 -36t-34 -15z" />
    <glyph glyph-name="breve" unicode="&#x2d8;" horiz-adv-x="243" 
d="M220 509q-18 -10 -47.5 -19t-50.5 -9q-42 0 -84 21q-52 26 -52 66q0 22 8.5 39t27.5 17q12 0 27.5 -9.5t23.5 -13.5q22 -14 54 -14q21 0 45 12.5t49 25.5q20 0 28 -18.5t8 -37.5q0 -21 -10 -36t-27 -24z" />
    <glyph glyph-name="dotaccent" unicode="&#x2d9;" horiz-adv-x="244" 
d="M132 430q-29 0 -47.5 23.5t-18.5 57.5l1 12q4 27 37.5 53.5t58.5 26.5q24 0 37 -29q5 -11 15 -52l2 -19q0 -33 -31 -55q-26 -18 -54 -18z" />
    <glyph glyph-name="ring" unicode="&#x2da;" horiz-adv-x="194" 
d="M97 480q-36 0 -63.5 23t-27.5 64q0 40 28 64t63 24t63.5 -23.5t28.5 -63.5t-28.5 -64t-63.5 -24zM97 590q-21 0 -21 -22q0 -23 21 -23t21 22q0 9 -6 16t-15 7z" />
    <glyph glyph-name="cedilla" unicode="&#xb8;" horiz-adv-x="139" 
d="M90 -181q-11 -26 -37 -26q-21 0 -33.5 17t-12.5 40q0 25 23 78l20 44h100z" />
    <glyph glyph-name="hungarumlaut" unicode="&#x2ba;" horiz-adv-x="500" 
d="M434 599q-10 -9 -22 -17q-6 -4 -17 -11l-48 -36q-37 -26 -48 -26q-9 0 -20.5 6t-11.5 16q0 8 7 19.5t25 31.5l33 49q8 12 18.5 22.5t21.5 10.5l36 -1l36 3q9 0 14.5 -6.5t5.5 -15.5q0 -10 -8 -21.5t-22 -23.5zM295 598q-10 -9 -21 -17q-5 -3 -17 -11l-48 -36
q-37 -26 -49 -26q-9 0 -20.5 6t-11.5 16q0 8 7 19.5t25 31.5l33 49q8 12 17 21q13 12 24 12l35 -1l36 3q9 0 14.5 -6.5t5.5 -15.5q0 -10 -8 -21.5t-22 -23.5z" />
    <glyph glyph-name="ogonek" unicode="&#x2db;" horiz-adv-x="500" 
d="M303 -151q-38 0 -60 18q-27 22 -27 65q0 25 11 49q5 11 16 29h82q-30 -46 -30 -70q0 -28 31 -28q10 0 26.5 5.5t19.5 5.5q9 0 13.5 -12.5t4.5 -24.5q0 -15 -34.5 -26t-52.5 -11z" />
    <glyph glyph-name="caron" unicode="&#x2c7;" horiz-adv-x="226" 
d="M210 521q-25 -11 -49 -22q-38 -16 -48 -16t-47 16q-41 19 -50 23q-32 13 -32 49q0 23 15 39t36 16q11 0 38 -12q14 -6 40 -20q19 9 42.5 20t36.5 11q21 0 35.5 -16.5t14.5 -38.5q0 -36 -32 -49z" />
    <glyph glyph-name="multiply" unicode="&#xd7;" horiz-adv-x="629" 
d="M412 174q-15 0 -28 6.5t-24 18.5l-48 49l-46 -48q-12 -13 -25 -20t-30 -7q-25 0 -43 20t-18 47q0 15 5.5 28t15.5 24l50 54l-49 51q-10 11 -16.5 25.5t-6.5 30.5q0 27 17.5 47.5t43.5 20.5q14 0 28 -7.5t25 -19.5l49 -51l50 54q22 22 49 22t46 -20t19 -48q0 -29 -21 -50
l-52 -55l48 -51q10 -11 17.5 -26.5t7.5 -30.5q0 -27 -19.5 -45.5t-44.5 -18.5z" />
    <glyph glyph-name="onesuperior" unicode="&#xb9;" horiz-adv-x="380" 
d="M152 588q-16 0 -29 7q-18 10 -18 25t27.5 27t43.5 12l30 -2q29 0 29 -33q0 -11 -2 -39t-2 -30q0 -40 -1 -65q-4 -100 -4 -110v-49q17 -3 27.5 -16.5t10.5 -33.5q0 -14 -9.5 -19t-25.5 -5h-15q-13 0 -45 -2t-35 -2q-20 0 -28 3q-15 6 -15 25q0 22 20 33q12 6 37 11l1 30
q0 31 1 93t1 92z" />
    <glyph glyph-name="twosuperior" unicode="&#xb2;" horiz-adv-x="377" 
d="M218 350l36 2q28 0 52 -9q34 -13 34 -37q0 -10 -7 -19t-18 -9l-45 3q-43 0 -95 -9q-14 -2 -57 -11q-24 -4 -38 -11q-6 -4 -12 -4q-13 0 -20 18.5t-7 35.5t8.5 24.5t25.5 14.5q43 17 80 50q24 22 67 71l12 14q14 19 22.5 43t8.5 45t-8 34.5t-24 13.5q-29 0 -62 -39
q-25 -29 -45 -68q-8 -12 -8 -16l2 -17q0 -11 -8 -18t-17 -7q-18 0 -32 15t-14 34q0 61 50.5 123t106.5 62q54 0 96.5 -43.5t42.5 -100.5q0 -39 -21 -75q-13 -22 -47 -59q-3 -3 -15 -12.5t-15 -11.5l5 2l-29 -25z" />
    <glyph glyph-name="threesuperior" unicode="&#xb3;" horiz-adv-x="377" 
d="M279 456q26 -10 42.5 -34.5t16.5 -51.5q0 -23 -10.5 -42.5t-29 -37.5t-58.5 -30t-71 -12q-44 0 -79 18q-46 23 -46 66q0 17 11.5 29.5t27.5 12.5q14 0 20 -12q2 -5 6 -25q0 -10 16 -12.5t23 -2.5h16q58 0 91 41q7 9 8 14q0 9 -22 16t-53 7q-19 0 -34 -7l-11 -2
q-16 0 -23 19t-7 39q0 14 6 21t16 7l21 -3q20 0 44 14t37 32q7 11 16 25.5t9 23.5q0 12 -9 20t-23 8q-18 0 -42.5 -15t-40.5 -33q-7 -10 -16 -22q-15 -21 -15 -25l1 -12q0 -15 -17 -15q-10 0 -24 6q-16 10 -22 15q-11 9 -11 27q0 43 43.5 88.5t82.5 55.5q10 2 21 4t20 2
q36 0 84.5 -42t48.5 -81q0 -18 -11 -39t-25 -32l-24 -20z" />
  </font>
</defs>
</svg>
